G04 #@! TF.GenerationSoftware,KiCad,Pcbnew,(5.1.5-0-10_14)*
G04 #@! TF.CreationDate,2020-05-04T22:30:03+03:00*
G04 #@! TF.ProjectId,PiGate,50694761-7465-42e6-9b69-6361645f7063,rev?*
G04 #@! TF.SameCoordinates,Original*
G04 #@! TF.FileFunction,Copper,L2,Bot*
G04 #@! TF.FilePolarity,Positive*
%FSLAX46Y46*%
G04 Gerber Fmt 4.6, Leading zero omitted, Abs format (unit mm)*
G04 Created by KiCad (PCBNEW (5.1.5-0-10_14)) date 2020-05-04 22:30:03*
%MOMM*%
%LPD*%
G04 APERTURE LIST*
%ADD10O,1.700000X1.700000*%
%ADD11R,1.700000X1.700000*%
%ADD12C,1.524000*%
%ADD13R,1.524000X1.524000*%
%ADD14C,1.600000*%
%ADD15R,1.600000X1.600000*%
%ADD16C,0.800000*%
%ADD17C,0.250000*%
%ADD18C,0.500000*%
%ADD19C,0.254000*%
G04 APERTURE END LIST*
D10*
X130395302Y-84030000D03*
X127855302Y-84030000D03*
X130395302Y-81490000D03*
X127855302Y-81490000D03*
X130395302Y-78950000D03*
X127855302Y-78950000D03*
X130395302Y-76410000D03*
X127855302Y-76410000D03*
X130395302Y-73870000D03*
X127855302Y-73870000D03*
X130395302Y-71330000D03*
X127855302Y-71330000D03*
X130395302Y-68790000D03*
X127855302Y-68790000D03*
X130395302Y-66250000D03*
X127855302Y-66250000D03*
X130395302Y-63710000D03*
X127855302Y-63710000D03*
X130395302Y-61170000D03*
X127855302Y-61170000D03*
X130395302Y-58630000D03*
X127855302Y-58630000D03*
X130395302Y-56090000D03*
X127855302Y-56090000D03*
X130395302Y-53550000D03*
D11*
X127855302Y-53550000D03*
D12*
X118364000Y-77800200D03*
X120904000Y-77800200D03*
X118364000Y-80340200D03*
X120904000Y-80340200D03*
X118364000Y-82880200D03*
X120904000Y-82880200D03*
X118364000Y-85420200D03*
D13*
X120904000Y-85420200D03*
D14*
X113817400Y-81370800D03*
D15*
X113817400Y-83870800D03*
D16*
X94970600Y-53086000D03*
X116651800Y-55560200D03*
X117563400Y-65672200D03*
X116586000Y-69621400D03*
X108966000Y-84658200D03*
X108966000Y-82956400D03*
X123063000Y-77597000D03*
X123088400Y-74904600D03*
X110261400Y-65252600D03*
X110261400Y-62433200D03*
D17*
X125069600Y-73888600D02*
X117671400Y-73870000D01*
X127855302Y-73870000D02*
X125069600Y-73888600D01*
X125069600Y-54279800D02*
X125069600Y-73888600D01*
X125799400Y-53550000D02*
X125069600Y-54279800D01*
D18*
X115671600Y-75742800D02*
X117475000Y-73939400D01*
X115671600Y-83316600D02*
X115671600Y-75742800D01*
X115117400Y-83870800D02*
X115671600Y-83316600D01*
X113817400Y-83870800D02*
X115117400Y-83870800D01*
D17*
X117671400Y-73870000D02*
X117475000Y-73939400D01*
D18*
X117475000Y-73939400D02*
X117544400Y-73870000D01*
D17*
X125806200Y-53543200D02*
X125799400Y-53550000D01*
D18*
X117544400Y-73870000D02*
X125254200Y-73870000D01*
X125254200Y-73870000D02*
X127855302Y-73870000D01*
X125813000Y-53550000D02*
X127855302Y-53550000D01*
X125806200Y-53543200D02*
X125813000Y-53550000D01*
X125120400Y-73736200D02*
X125120400Y-54229000D01*
X125120400Y-54229000D02*
X125806200Y-53543200D01*
X125254200Y-73870000D02*
X125120400Y-73736200D01*
D17*
X108966000Y-84658200D02*
X108966000Y-82956400D01*
X123063000Y-77597000D02*
X123063000Y-74930000D01*
X123063000Y-74930000D02*
X123088400Y-74904600D01*
X110261400Y-65252600D02*
X110261400Y-62433200D01*
D19*
G36*
X133340001Y-87340000D02*
G01*
X92660000Y-87340000D01*
X92660000Y-82854461D01*
X107931000Y-82854461D01*
X107931000Y-83058339D01*
X107970774Y-83258298D01*
X108048795Y-83446656D01*
X108162063Y-83616174D01*
X108206001Y-83660112D01*
X108206000Y-83954489D01*
X108162063Y-83998426D01*
X108048795Y-84167944D01*
X107970774Y-84356302D01*
X107931000Y-84556261D01*
X107931000Y-84760139D01*
X107970774Y-84960098D01*
X108048795Y-85148456D01*
X108162063Y-85317974D01*
X108306226Y-85462137D01*
X108475744Y-85575405D01*
X108664102Y-85653426D01*
X108864061Y-85693200D01*
X109067939Y-85693200D01*
X109267898Y-85653426D01*
X109456256Y-85575405D01*
X109625774Y-85462137D01*
X109769937Y-85317974D01*
X109883205Y-85148456D01*
X109961226Y-84960098D01*
X110001000Y-84760139D01*
X110001000Y-84556261D01*
X109961226Y-84356302D01*
X109883205Y-84167944D01*
X109769937Y-83998426D01*
X109726000Y-83954489D01*
X109726000Y-83660111D01*
X109769937Y-83616174D01*
X109883205Y-83446656D01*
X109961226Y-83258298D01*
X109998521Y-83070800D01*
X112379328Y-83070800D01*
X112379328Y-84670800D01*
X112391588Y-84795282D01*
X112427898Y-84914980D01*
X112486863Y-85025294D01*
X112566215Y-85121985D01*
X112662906Y-85201337D01*
X112773220Y-85260302D01*
X112892918Y-85296612D01*
X113017400Y-85308872D01*
X114617400Y-85308872D01*
X114741882Y-85296612D01*
X114861580Y-85260302D01*
X114971894Y-85201337D01*
X115068585Y-85121985D01*
X115147937Y-85025294D01*
X115206902Y-84914980D01*
X115243212Y-84795282D01*
X115247945Y-84747225D01*
X115290890Y-84742995D01*
X115457713Y-84692389D01*
X115611459Y-84610211D01*
X115746217Y-84499617D01*
X115773934Y-84465844D01*
X116266645Y-83973133D01*
X116300417Y-83945417D01*
X116411011Y-83810659D01*
X116493189Y-83656913D01*
X116543795Y-83490090D01*
X116556600Y-83360077D01*
X116556600Y-83360067D01*
X116560881Y-83316601D01*
X116556600Y-83273135D01*
X116556600Y-76109378D01*
X117910979Y-74755000D01*
X122062880Y-74755000D01*
X122053400Y-74802661D01*
X122053400Y-75006539D01*
X122093174Y-75206498D01*
X122171195Y-75394856D01*
X122284463Y-75564374D01*
X122303001Y-75582912D01*
X122303000Y-76893289D01*
X122259063Y-76937226D01*
X122145795Y-77106744D01*
X122136231Y-77129832D01*
X121989120Y-76909665D01*
X121794535Y-76715080D01*
X121565727Y-76562195D01*
X121311490Y-76456886D01*
X121041592Y-76403200D01*
X120766408Y-76403200D01*
X120496510Y-76456886D01*
X120242273Y-76562195D01*
X120013465Y-76715080D01*
X119818880Y-76909665D01*
X119665995Y-77138473D01*
X119634000Y-77215715D01*
X119602005Y-77138473D01*
X119449120Y-76909665D01*
X119254535Y-76715080D01*
X119025727Y-76562195D01*
X118771490Y-76456886D01*
X118501592Y-76403200D01*
X118226408Y-76403200D01*
X117956510Y-76456886D01*
X117702273Y-76562195D01*
X117473465Y-76715080D01*
X117278880Y-76909665D01*
X117125995Y-77138473D01*
X117020686Y-77392710D01*
X116967000Y-77662608D01*
X116967000Y-77937792D01*
X117020686Y-78207690D01*
X117125995Y-78461927D01*
X117278880Y-78690735D01*
X117473465Y-78885320D01*
X117702273Y-79038205D01*
X117779515Y-79070200D01*
X117702273Y-79102195D01*
X117473465Y-79255080D01*
X117278880Y-79449665D01*
X117125995Y-79678473D01*
X117020686Y-79932710D01*
X116967000Y-80202608D01*
X116967000Y-80477792D01*
X117020686Y-80747690D01*
X117125995Y-81001927D01*
X117278880Y-81230735D01*
X117473465Y-81425320D01*
X117702273Y-81578205D01*
X117779515Y-81610200D01*
X117702273Y-81642195D01*
X117473465Y-81795080D01*
X117278880Y-81989665D01*
X117125995Y-82218473D01*
X117020686Y-82472710D01*
X116967000Y-82742608D01*
X116967000Y-83017792D01*
X117020686Y-83287690D01*
X117125995Y-83541927D01*
X117278880Y-83770735D01*
X117473465Y-83965320D01*
X117702273Y-84118205D01*
X117779515Y-84150200D01*
X117702273Y-84182195D01*
X117473465Y-84335080D01*
X117278880Y-84529665D01*
X117125995Y-84758473D01*
X117020686Y-85012710D01*
X116967000Y-85282608D01*
X116967000Y-85557792D01*
X117020686Y-85827690D01*
X117125995Y-86081927D01*
X117278880Y-86310735D01*
X117473465Y-86505320D01*
X117702273Y-86658205D01*
X117956510Y-86763514D01*
X118226408Y-86817200D01*
X118501592Y-86817200D01*
X118771490Y-86763514D01*
X119025727Y-86658205D01*
X119254535Y-86505320D01*
X119449120Y-86310735D01*
X119507920Y-86222735D01*
X119516188Y-86306682D01*
X119552498Y-86426380D01*
X119611463Y-86536694D01*
X119690815Y-86633385D01*
X119787506Y-86712737D01*
X119897820Y-86771702D01*
X120017518Y-86808012D01*
X120142000Y-86820272D01*
X120618250Y-86817200D01*
X120777000Y-86658450D01*
X120777000Y-85547200D01*
X121031000Y-85547200D01*
X121031000Y-86658450D01*
X121189750Y-86817200D01*
X121666000Y-86820272D01*
X121790482Y-86808012D01*
X121910180Y-86771702D01*
X122020494Y-86712737D01*
X122117185Y-86633385D01*
X122196537Y-86536694D01*
X122255502Y-86426380D01*
X122291812Y-86306682D01*
X122304072Y-86182200D01*
X122301000Y-85705950D01*
X122142250Y-85547200D01*
X121031000Y-85547200D01*
X120777000Y-85547200D01*
X120757000Y-85547200D01*
X120757000Y-85293200D01*
X120777000Y-85293200D01*
X120777000Y-85273200D01*
X121031000Y-85273200D01*
X121031000Y-85293200D01*
X122142250Y-85293200D01*
X122301000Y-85134450D01*
X122304072Y-84658200D01*
X122291812Y-84533718D01*
X122255502Y-84414020D01*
X122241001Y-84386890D01*
X126413826Y-84386890D01*
X126458477Y-84534099D01*
X126583661Y-84796920D01*
X126757714Y-85030269D01*
X126973947Y-85225178D01*
X127224050Y-85374157D01*
X127498411Y-85471481D01*
X127728302Y-85350814D01*
X127728302Y-84157000D01*
X126535147Y-84157000D01*
X126413826Y-84386890D01*
X122241001Y-84386890D01*
X122196537Y-84303706D01*
X122117185Y-84207015D01*
X122020494Y-84127663D01*
X121910180Y-84068698D01*
X121790482Y-84032388D01*
X121706535Y-84024120D01*
X121794535Y-83965320D01*
X121989120Y-83770735D01*
X122142005Y-83541927D01*
X122247314Y-83287690D01*
X122301000Y-83017792D01*
X122301000Y-82742608D01*
X122247314Y-82472710D01*
X122142005Y-82218473D01*
X121989120Y-81989665D01*
X121794535Y-81795080D01*
X121565727Y-81642195D01*
X121488485Y-81610200D01*
X121565727Y-81578205D01*
X121794535Y-81425320D01*
X121989120Y-81230735D01*
X122142005Y-81001927D01*
X122247314Y-80747690D01*
X122301000Y-80477792D01*
X122301000Y-80202608D01*
X122247314Y-79932710D01*
X122142005Y-79678473D01*
X121989120Y-79449665D01*
X121794535Y-79255080D01*
X121565727Y-79102195D01*
X121488485Y-79070200D01*
X121565727Y-79038205D01*
X121794535Y-78885320D01*
X121989120Y-78690735D01*
X122142005Y-78461927D01*
X122239259Y-78227136D01*
X122259063Y-78256774D01*
X122403226Y-78400937D01*
X122572744Y-78514205D01*
X122761102Y-78592226D01*
X122961061Y-78632000D01*
X123164939Y-78632000D01*
X123364898Y-78592226D01*
X123553256Y-78514205D01*
X123722774Y-78400937D01*
X123866937Y-78256774D01*
X123980205Y-78087256D01*
X124058226Y-77898898D01*
X124098000Y-77698939D01*
X124098000Y-77495061D01*
X124058226Y-77295102D01*
X123980205Y-77106744D01*
X123866937Y-76937226D01*
X123823000Y-76893289D01*
X123823000Y-75633711D01*
X123892337Y-75564374D01*
X124005605Y-75394856D01*
X124083626Y-75206498D01*
X124123400Y-75006539D01*
X124123400Y-74802661D01*
X124113920Y-74755000D01*
X125210731Y-74755000D01*
X125254200Y-74759281D01*
X125297669Y-74755000D01*
X126660646Y-74755000D01*
X126701827Y-74816632D01*
X126908670Y-75023475D01*
X127083062Y-75140000D01*
X126908670Y-75256525D01*
X126701827Y-75463368D01*
X126539312Y-75706589D01*
X126427370Y-75976842D01*
X126370302Y-76263740D01*
X126370302Y-76556260D01*
X126427370Y-76843158D01*
X126539312Y-77113411D01*
X126701827Y-77356632D01*
X126908670Y-77563475D01*
X127083062Y-77680000D01*
X126908670Y-77796525D01*
X126701827Y-78003368D01*
X126539312Y-78246589D01*
X126427370Y-78516842D01*
X126370302Y-78803740D01*
X126370302Y-79096260D01*
X126427370Y-79383158D01*
X126539312Y-79653411D01*
X126701827Y-79896632D01*
X126908670Y-80103475D01*
X127083062Y-80220000D01*
X126908670Y-80336525D01*
X126701827Y-80543368D01*
X126539312Y-80786589D01*
X126427370Y-81056842D01*
X126370302Y-81343740D01*
X126370302Y-81636260D01*
X126427370Y-81923158D01*
X126539312Y-82193411D01*
X126701827Y-82436632D01*
X126908670Y-82643475D01*
X127090836Y-82765195D01*
X126973947Y-82834822D01*
X126757714Y-83029731D01*
X126583661Y-83263080D01*
X126458477Y-83525901D01*
X126413826Y-83673110D01*
X126535147Y-83903000D01*
X127728302Y-83903000D01*
X127728302Y-83883000D01*
X127982302Y-83883000D01*
X127982302Y-83903000D01*
X128002302Y-83903000D01*
X128002302Y-84157000D01*
X127982302Y-84157000D01*
X127982302Y-85350814D01*
X128212193Y-85471481D01*
X128486554Y-85374157D01*
X128736657Y-85225178D01*
X128952890Y-85030269D01*
X129124202Y-84800594D01*
X129241827Y-84976632D01*
X129448670Y-85183475D01*
X129691891Y-85345990D01*
X129962144Y-85457932D01*
X130249042Y-85515000D01*
X130541562Y-85515000D01*
X130828460Y-85457932D01*
X131098713Y-85345990D01*
X131341934Y-85183475D01*
X131548777Y-84976632D01*
X131711292Y-84733411D01*
X131823234Y-84463158D01*
X131880302Y-84176260D01*
X131880302Y-83883740D01*
X131823234Y-83596842D01*
X131711292Y-83326589D01*
X131548777Y-83083368D01*
X131341934Y-82876525D01*
X131167542Y-82760000D01*
X131341934Y-82643475D01*
X131548777Y-82436632D01*
X131711292Y-82193411D01*
X131823234Y-81923158D01*
X131880302Y-81636260D01*
X131880302Y-81343740D01*
X131823234Y-81056842D01*
X131711292Y-80786589D01*
X131548777Y-80543368D01*
X131341934Y-80336525D01*
X131167542Y-80220000D01*
X131341934Y-80103475D01*
X131548777Y-79896632D01*
X131711292Y-79653411D01*
X131823234Y-79383158D01*
X131880302Y-79096260D01*
X131880302Y-78803740D01*
X131823234Y-78516842D01*
X131711292Y-78246589D01*
X131548777Y-78003368D01*
X131341934Y-77796525D01*
X131159768Y-77674805D01*
X131276657Y-77605178D01*
X131492890Y-77410269D01*
X131666943Y-77176920D01*
X131792127Y-76914099D01*
X131836778Y-76766890D01*
X131715457Y-76537000D01*
X130522302Y-76537000D01*
X130522302Y-76557000D01*
X130268302Y-76557000D01*
X130268302Y-76537000D01*
X130248302Y-76537000D01*
X130248302Y-76283000D01*
X130268302Y-76283000D01*
X130268302Y-76263000D01*
X130522302Y-76263000D01*
X130522302Y-76283000D01*
X131715457Y-76283000D01*
X131836778Y-76053110D01*
X131792127Y-75905901D01*
X131666943Y-75643080D01*
X131492890Y-75409731D01*
X131276657Y-75214822D01*
X131159768Y-75145195D01*
X131341934Y-75023475D01*
X131548777Y-74816632D01*
X131711292Y-74573411D01*
X131823234Y-74303158D01*
X131880302Y-74016260D01*
X131880302Y-73723740D01*
X131823234Y-73436842D01*
X131711292Y-73166589D01*
X131548777Y-72923368D01*
X131341934Y-72716525D01*
X131167542Y-72600000D01*
X131341934Y-72483475D01*
X131548777Y-72276632D01*
X131711292Y-72033411D01*
X131823234Y-71763158D01*
X131880302Y-71476260D01*
X131880302Y-71183740D01*
X131823234Y-70896842D01*
X131711292Y-70626589D01*
X131548777Y-70383368D01*
X131341934Y-70176525D01*
X131167542Y-70060000D01*
X131341934Y-69943475D01*
X131548777Y-69736632D01*
X131711292Y-69493411D01*
X131823234Y-69223158D01*
X131880302Y-68936260D01*
X131880302Y-68643740D01*
X131823234Y-68356842D01*
X131711292Y-68086589D01*
X131548777Y-67843368D01*
X131341934Y-67636525D01*
X131167542Y-67520000D01*
X131341934Y-67403475D01*
X131548777Y-67196632D01*
X131711292Y-66953411D01*
X131823234Y-66683158D01*
X131880302Y-66396260D01*
X131880302Y-66103740D01*
X131823234Y-65816842D01*
X131711292Y-65546589D01*
X131548777Y-65303368D01*
X131341934Y-65096525D01*
X131167542Y-64980000D01*
X131341934Y-64863475D01*
X131548777Y-64656632D01*
X131711292Y-64413411D01*
X131823234Y-64143158D01*
X131880302Y-63856260D01*
X131880302Y-63563740D01*
X131823234Y-63276842D01*
X131711292Y-63006589D01*
X131548777Y-62763368D01*
X131341934Y-62556525D01*
X131167542Y-62440000D01*
X131341934Y-62323475D01*
X131548777Y-62116632D01*
X131711292Y-61873411D01*
X131823234Y-61603158D01*
X131880302Y-61316260D01*
X131880302Y-61023740D01*
X131823234Y-60736842D01*
X131711292Y-60466589D01*
X131548777Y-60223368D01*
X131341934Y-60016525D01*
X131159768Y-59894805D01*
X131276657Y-59825178D01*
X131492890Y-59630269D01*
X131666943Y-59396920D01*
X131792127Y-59134099D01*
X131836778Y-58986890D01*
X131715457Y-58757000D01*
X130522302Y-58757000D01*
X130522302Y-58777000D01*
X130268302Y-58777000D01*
X130268302Y-58757000D01*
X130248302Y-58757000D01*
X130248302Y-58503000D01*
X130268302Y-58503000D01*
X130268302Y-58483000D01*
X130522302Y-58483000D01*
X130522302Y-58503000D01*
X131715457Y-58503000D01*
X131836778Y-58273110D01*
X131792127Y-58125901D01*
X131666943Y-57863080D01*
X131492890Y-57629731D01*
X131276657Y-57434822D01*
X131159768Y-57365195D01*
X131341934Y-57243475D01*
X131548777Y-57036632D01*
X131711292Y-56793411D01*
X131823234Y-56523158D01*
X131880302Y-56236260D01*
X131880302Y-55943740D01*
X131823234Y-55656842D01*
X131711292Y-55386589D01*
X131548777Y-55143368D01*
X131341934Y-54936525D01*
X131167542Y-54820000D01*
X131341934Y-54703475D01*
X131548777Y-54496632D01*
X131711292Y-54253411D01*
X131823234Y-53983158D01*
X131880302Y-53696260D01*
X131880302Y-53403740D01*
X131823234Y-53116842D01*
X131711292Y-52846589D01*
X131548777Y-52603368D01*
X131341934Y-52396525D01*
X131098713Y-52234010D01*
X130828460Y-52122068D01*
X130541562Y-52065000D01*
X130249042Y-52065000D01*
X129962144Y-52122068D01*
X129691891Y-52234010D01*
X129448670Y-52396525D01*
X129316815Y-52528380D01*
X129294804Y-52455820D01*
X129235839Y-52345506D01*
X129156487Y-52248815D01*
X129059796Y-52169463D01*
X128949482Y-52110498D01*
X128829784Y-52074188D01*
X128705302Y-52061928D01*
X127005302Y-52061928D01*
X126880820Y-52074188D01*
X126761122Y-52110498D01*
X126650808Y-52169463D01*
X126554117Y-52248815D01*
X126474765Y-52345506D01*
X126415800Y-52455820D01*
X126379490Y-52575518D01*
X126370677Y-52665000D01*
X125918716Y-52665000D01*
X125806200Y-52653919D01*
X125632710Y-52671005D01*
X125465886Y-52721611D01*
X125312141Y-52803789D01*
X125211153Y-52886668D01*
X125211149Y-52886672D01*
X125177383Y-52914383D01*
X125149671Y-52948150D01*
X124525351Y-53572471D01*
X124491584Y-53600183D01*
X124463871Y-53633951D01*
X124463868Y-53633954D01*
X124380990Y-53734941D01*
X124298812Y-53888687D01*
X124248205Y-54055510D01*
X124231119Y-54229000D01*
X124235401Y-54272479D01*
X124235400Y-72985000D01*
X117587865Y-72985000D01*
X117544399Y-72980719D01*
X117500933Y-72985000D01*
X117500923Y-72985000D01*
X117370910Y-72997805D01*
X117204087Y-73048411D01*
X117050341Y-73130589D01*
X116915583Y-73241183D01*
X116887868Y-73274954D01*
X116879959Y-73282863D01*
X116879953Y-73282868D01*
X115076551Y-75086271D01*
X115042784Y-75113983D01*
X115015071Y-75147751D01*
X115015068Y-75147754D01*
X114932190Y-75248741D01*
X114850012Y-75402487D01*
X114799405Y-75569310D01*
X114782319Y-75742800D01*
X114786601Y-75786279D01*
X114786600Y-80301653D01*
X114746770Y-80261823D01*
X114630497Y-80378096D01*
X114558914Y-80134129D01*
X114303404Y-80013229D01*
X114029216Y-79944500D01*
X113746888Y-79930583D01*
X113467270Y-79972013D01*
X113201108Y-80067197D01*
X113075886Y-80134129D01*
X113004303Y-80378098D01*
X113817400Y-81191195D01*
X113831543Y-81177053D01*
X114011148Y-81356658D01*
X113997005Y-81370800D01*
X114011148Y-81384943D01*
X113831543Y-81564548D01*
X113817400Y-81550405D01*
X113004303Y-82363502D01*
X113024615Y-82432728D01*
X113017400Y-82432728D01*
X112892918Y-82444988D01*
X112773220Y-82481298D01*
X112662906Y-82540263D01*
X112566215Y-82619615D01*
X112486863Y-82716306D01*
X112427898Y-82826620D01*
X112391588Y-82946318D01*
X112379328Y-83070800D01*
X109998521Y-83070800D01*
X110001000Y-83058339D01*
X110001000Y-82854461D01*
X109961226Y-82654502D01*
X109883205Y-82466144D01*
X109769937Y-82296626D01*
X109625774Y-82152463D01*
X109456256Y-82039195D01*
X109267898Y-81961174D01*
X109067939Y-81921400D01*
X108864061Y-81921400D01*
X108664102Y-81961174D01*
X108475744Y-82039195D01*
X108306226Y-82152463D01*
X108162063Y-82296626D01*
X108048795Y-82466144D01*
X107970774Y-82654502D01*
X107931000Y-82854461D01*
X92660000Y-82854461D01*
X92660000Y-81441312D01*
X112377183Y-81441312D01*
X112418613Y-81720930D01*
X112513797Y-81987092D01*
X112580729Y-82112314D01*
X112824698Y-82183897D01*
X113637795Y-81370800D01*
X112824698Y-80557703D01*
X112580729Y-80629286D01*
X112459829Y-80884796D01*
X112391100Y-81158984D01*
X112377183Y-81441312D01*
X92660000Y-81441312D01*
X92660000Y-62331261D01*
X109226400Y-62331261D01*
X109226400Y-62535139D01*
X109266174Y-62735098D01*
X109344195Y-62923456D01*
X109457463Y-63092974D01*
X109501401Y-63136912D01*
X109501400Y-64548889D01*
X109457463Y-64592826D01*
X109344195Y-64762344D01*
X109266174Y-64950702D01*
X109226400Y-65150661D01*
X109226400Y-65354539D01*
X109266174Y-65554498D01*
X109344195Y-65742856D01*
X109457463Y-65912374D01*
X109601626Y-66056537D01*
X109771144Y-66169805D01*
X109959502Y-66247826D01*
X110159461Y-66287600D01*
X110363339Y-66287600D01*
X110563298Y-66247826D01*
X110751656Y-66169805D01*
X110921174Y-66056537D01*
X111065337Y-65912374D01*
X111178605Y-65742856D01*
X111256626Y-65554498D01*
X111296400Y-65354539D01*
X111296400Y-65150661D01*
X111256626Y-64950702D01*
X111178605Y-64762344D01*
X111065337Y-64592826D01*
X111021400Y-64548889D01*
X111021400Y-63136911D01*
X111065337Y-63092974D01*
X111178605Y-62923456D01*
X111256626Y-62735098D01*
X111296400Y-62535139D01*
X111296400Y-62331261D01*
X111256626Y-62131302D01*
X111178605Y-61942944D01*
X111065337Y-61773426D01*
X110921174Y-61629263D01*
X110751656Y-61515995D01*
X110563298Y-61437974D01*
X110363339Y-61398200D01*
X110159461Y-61398200D01*
X109959502Y-61437974D01*
X109771144Y-61515995D01*
X109601626Y-61629263D01*
X109457463Y-61773426D01*
X109344195Y-61942944D01*
X109266174Y-62131302D01*
X109226400Y-62331261D01*
X92660000Y-62331261D01*
X92660000Y-50660000D01*
X133340000Y-50660000D01*
X133340001Y-87340000D01*
G37*
X133340001Y-87340000D02*
X92660000Y-87340000D01*
X92660000Y-82854461D01*
X107931000Y-82854461D01*
X107931000Y-83058339D01*
X107970774Y-83258298D01*
X108048795Y-83446656D01*
X108162063Y-83616174D01*
X108206001Y-83660112D01*
X108206000Y-83954489D01*
X108162063Y-83998426D01*
X108048795Y-84167944D01*
X107970774Y-84356302D01*
X107931000Y-84556261D01*
X107931000Y-84760139D01*
X107970774Y-84960098D01*
X108048795Y-85148456D01*
X108162063Y-85317974D01*
X108306226Y-85462137D01*
X108475744Y-85575405D01*
X108664102Y-85653426D01*
X108864061Y-85693200D01*
X109067939Y-85693200D01*
X109267898Y-85653426D01*
X109456256Y-85575405D01*
X109625774Y-85462137D01*
X109769937Y-85317974D01*
X109883205Y-85148456D01*
X109961226Y-84960098D01*
X110001000Y-84760139D01*
X110001000Y-84556261D01*
X109961226Y-84356302D01*
X109883205Y-84167944D01*
X109769937Y-83998426D01*
X109726000Y-83954489D01*
X109726000Y-83660111D01*
X109769937Y-83616174D01*
X109883205Y-83446656D01*
X109961226Y-83258298D01*
X109998521Y-83070800D01*
X112379328Y-83070800D01*
X112379328Y-84670800D01*
X112391588Y-84795282D01*
X112427898Y-84914980D01*
X112486863Y-85025294D01*
X112566215Y-85121985D01*
X112662906Y-85201337D01*
X112773220Y-85260302D01*
X112892918Y-85296612D01*
X113017400Y-85308872D01*
X114617400Y-85308872D01*
X114741882Y-85296612D01*
X114861580Y-85260302D01*
X114971894Y-85201337D01*
X115068585Y-85121985D01*
X115147937Y-85025294D01*
X115206902Y-84914980D01*
X115243212Y-84795282D01*
X115247945Y-84747225D01*
X115290890Y-84742995D01*
X115457713Y-84692389D01*
X115611459Y-84610211D01*
X115746217Y-84499617D01*
X115773934Y-84465844D01*
X116266645Y-83973133D01*
X116300417Y-83945417D01*
X116411011Y-83810659D01*
X116493189Y-83656913D01*
X116543795Y-83490090D01*
X116556600Y-83360077D01*
X116556600Y-83360067D01*
X116560881Y-83316601D01*
X116556600Y-83273135D01*
X116556600Y-76109378D01*
X117910979Y-74755000D01*
X122062880Y-74755000D01*
X122053400Y-74802661D01*
X122053400Y-75006539D01*
X122093174Y-75206498D01*
X122171195Y-75394856D01*
X122284463Y-75564374D01*
X122303001Y-75582912D01*
X122303000Y-76893289D01*
X122259063Y-76937226D01*
X122145795Y-77106744D01*
X122136231Y-77129832D01*
X121989120Y-76909665D01*
X121794535Y-76715080D01*
X121565727Y-76562195D01*
X121311490Y-76456886D01*
X121041592Y-76403200D01*
X120766408Y-76403200D01*
X120496510Y-76456886D01*
X120242273Y-76562195D01*
X120013465Y-76715080D01*
X119818880Y-76909665D01*
X119665995Y-77138473D01*
X119634000Y-77215715D01*
X119602005Y-77138473D01*
X119449120Y-76909665D01*
X119254535Y-76715080D01*
X119025727Y-76562195D01*
X118771490Y-76456886D01*
X118501592Y-76403200D01*
X118226408Y-76403200D01*
X117956510Y-76456886D01*
X117702273Y-76562195D01*
X117473465Y-76715080D01*
X117278880Y-76909665D01*
X117125995Y-77138473D01*
X117020686Y-77392710D01*
X116967000Y-77662608D01*
X116967000Y-77937792D01*
X117020686Y-78207690D01*
X117125995Y-78461927D01*
X117278880Y-78690735D01*
X117473465Y-78885320D01*
X117702273Y-79038205D01*
X117779515Y-79070200D01*
X117702273Y-79102195D01*
X117473465Y-79255080D01*
X117278880Y-79449665D01*
X117125995Y-79678473D01*
X117020686Y-79932710D01*
X116967000Y-80202608D01*
X116967000Y-80477792D01*
X117020686Y-80747690D01*
X117125995Y-81001927D01*
X117278880Y-81230735D01*
X117473465Y-81425320D01*
X117702273Y-81578205D01*
X117779515Y-81610200D01*
X117702273Y-81642195D01*
X117473465Y-81795080D01*
X117278880Y-81989665D01*
X117125995Y-82218473D01*
X117020686Y-82472710D01*
X116967000Y-82742608D01*
X116967000Y-83017792D01*
X117020686Y-83287690D01*
X117125995Y-83541927D01*
X117278880Y-83770735D01*
X117473465Y-83965320D01*
X117702273Y-84118205D01*
X117779515Y-84150200D01*
X117702273Y-84182195D01*
X117473465Y-84335080D01*
X117278880Y-84529665D01*
X117125995Y-84758473D01*
X117020686Y-85012710D01*
X116967000Y-85282608D01*
X116967000Y-85557792D01*
X117020686Y-85827690D01*
X117125995Y-86081927D01*
X117278880Y-86310735D01*
X117473465Y-86505320D01*
X117702273Y-86658205D01*
X117956510Y-86763514D01*
X118226408Y-86817200D01*
X118501592Y-86817200D01*
X118771490Y-86763514D01*
X119025727Y-86658205D01*
X119254535Y-86505320D01*
X119449120Y-86310735D01*
X119507920Y-86222735D01*
X119516188Y-86306682D01*
X119552498Y-86426380D01*
X119611463Y-86536694D01*
X119690815Y-86633385D01*
X119787506Y-86712737D01*
X119897820Y-86771702D01*
X120017518Y-86808012D01*
X120142000Y-86820272D01*
X120618250Y-86817200D01*
X120777000Y-86658450D01*
X120777000Y-85547200D01*
X121031000Y-85547200D01*
X121031000Y-86658450D01*
X121189750Y-86817200D01*
X121666000Y-86820272D01*
X121790482Y-86808012D01*
X121910180Y-86771702D01*
X122020494Y-86712737D01*
X122117185Y-86633385D01*
X122196537Y-86536694D01*
X122255502Y-86426380D01*
X122291812Y-86306682D01*
X122304072Y-86182200D01*
X122301000Y-85705950D01*
X122142250Y-85547200D01*
X121031000Y-85547200D01*
X120777000Y-85547200D01*
X120757000Y-85547200D01*
X120757000Y-85293200D01*
X120777000Y-85293200D01*
X120777000Y-85273200D01*
X121031000Y-85273200D01*
X121031000Y-85293200D01*
X122142250Y-85293200D01*
X122301000Y-85134450D01*
X122304072Y-84658200D01*
X122291812Y-84533718D01*
X122255502Y-84414020D01*
X122241001Y-84386890D01*
X126413826Y-84386890D01*
X126458477Y-84534099D01*
X126583661Y-84796920D01*
X126757714Y-85030269D01*
X126973947Y-85225178D01*
X127224050Y-85374157D01*
X127498411Y-85471481D01*
X127728302Y-85350814D01*
X127728302Y-84157000D01*
X126535147Y-84157000D01*
X126413826Y-84386890D01*
X122241001Y-84386890D01*
X122196537Y-84303706D01*
X122117185Y-84207015D01*
X122020494Y-84127663D01*
X121910180Y-84068698D01*
X121790482Y-84032388D01*
X121706535Y-84024120D01*
X121794535Y-83965320D01*
X121989120Y-83770735D01*
X122142005Y-83541927D01*
X122247314Y-83287690D01*
X122301000Y-83017792D01*
X122301000Y-82742608D01*
X122247314Y-82472710D01*
X122142005Y-82218473D01*
X121989120Y-81989665D01*
X121794535Y-81795080D01*
X121565727Y-81642195D01*
X121488485Y-81610200D01*
X121565727Y-81578205D01*
X121794535Y-81425320D01*
X121989120Y-81230735D01*
X122142005Y-81001927D01*
X122247314Y-80747690D01*
X122301000Y-80477792D01*
X122301000Y-80202608D01*
X122247314Y-79932710D01*
X122142005Y-79678473D01*
X121989120Y-79449665D01*
X121794535Y-79255080D01*
X121565727Y-79102195D01*
X121488485Y-79070200D01*
X121565727Y-79038205D01*
X121794535Y-78885320D01*
X121989120Y-78690735D01*
X122142005Y-78461927D01*
X122239259Y-78227136D01*
X122259063Y-78256774D01*
X122403226Y-78400937D01*
X122572744Y-78514205D01*
X122761102Y-78592226D01*
X122961061Y-78632000D01*
X123164939Y-78632000D01*
X123364898Y-78592226D01*
X123553256Y-78514205D01*
X123722774Y-78400937D01*
X123866937Y-78256774D01*
X123980205Y-78087256D01*
X124058226Y-77898898D01*
X124098000Y-77698939D01*
X124098000Y-77495061D01*
X124058226Y-77295102D01*
X123980205Y-77106744D01*
X123866937Y-76937226D01*
X123823000Y-76893289D01*
X123823000Y-75633711D01*
X123892337Y-75564374D01*
X124005605Y-75394856D01*
X124083626Y-75206498D01*
X124123400Y-75006539D01*
X124123400Y-74802661D01*
X124113920Y-74755000D01*
X125210731Y-74755000D01*
X125254200Y-74759281D01*
X125297669Y-74755000D01*
X126660646Y-74755000D01*
X126701827Y-74816632D01*
X126908670Y-75023475D01*
X127083062Y-75140000D01*
X126908670Y-75256525D01*
X126701827Y-75463368D01*
X126539312Y-75706589D01*
X126427370Y-75976842D01*
X126370302Y-76263740D01*
X126370302Y-76556260D01*
X126427370Y-76843158D01*
X126539312Y-77113411D01*
X126701827Y-77356632D01*
X126908670Y-77563475D01*
X127083062Y-77680000D01*
X126908670Y-77796525D01*
X126701827Y-78003368D01*
X126539312Y-78246589D01*
X126427370Y-78516842D01*
X126370302Y-78803740D01*
X126370302Y-79096260D01*
X126427370Y-79383158D01*
X126539312Y-79653411D01*
X126701827Y-79896632D01*
X126908670Y-80103475D01*
X127083062Y-80220000D01*
X126908670Y-80336525D01*
X126701827Y-80543368D01*
X126539312Y-80786589D01*
X126427370Y-81056842D01*
X126370302Y-81343740D01*
X126370302Y-81636260D01*
X126427370Y-81923158D01*
X126539312Y-82193411D01*
X126701827Y-82436632D01*
X126908670Y-82643475D01*
X127090836Y-82765195D01*
X126973947Y-82834822D01*
X126757714Y-83029731D01*
X126583661Y-83263080D01*
X126458477Y-83525901D01*
X126413826Y-83673110D01*
X126535147Y-83903000D01*
X127728302Y-83903000D01*
X127728302Y-83883000D01*
X127982302Y-83883000D01*
X127982302Y-83903000D01*
X128002302Y-83903000D01*
X128002302Y-84157000D01*
X127982302Y-84157000D01*
X127982302Y-85350814D01*
X128212193Y-85471481D01*
X128486554Y-85374157D01*
X128736657Y-85225178D01*
X128952890Y-85030269D01*
X129124202Y-84800594D01*
X129241827Y-84976632D01*
X129448670Y-85183475D01*
X129691891Y-85345990D01*
X129962144Y-85457932D01*
X130249042Y-85515000D01*
X130541562Y-85515000D01*
X130828460Y-85457932D01*
X131098713Y-85345990D01*
X131341934Y-85183475D01*
X131548777Y-84976632D01*
X131711292Y-84733411D01*
X131823234Y-84463158D01*
X131880302Y-84176260D01*
X131880302Y-83883740D01*
X131823234Y-83596842D01*
X131711292Y-83326589D01*
X131548777Y-83083368D01*
X131341934Y-82876525D01*
X131167542Y-82760000D01*
X131341934Y-82643475D01*
X131548777Y-82436632D01*
X131711292Y-82193411D01*
X131823234Y-81923158D01*
X131880302Y-81636260D01*
X131880302Y-81343740D01*
X131823234Y-81056842D01*
X131711292Y-80786589D01*
X131548777Y-80543368D01*
X131341934Y-80336525D01*
X131167542Y-80220000D01*
X131341934Y-80103475D01*
X131548777Y-79896632D01*
X131711292Y-79653411D01*
X131823234Y-79383158D01*
X131880302Y-79096260D01*
X131880302Y-78803740D01*
X131823234Y-78516842D01*
X131711292Y-78246589D01*
X131548777Y-78003368D01*
X131341934Y-77796525D01*
X131159768Y-77674805D01*
X131276657Y-77605178D01*
X131492890Y-77410269D01*
X131666943Y-77176920D01*
X131792127Y-76914099D01*
X131836778Y-76766890D01*
X131715457Y-76537000D01*
X130522302Y-76537000D01*
X130522302Y-76557000D01*
X130268302Y-76557000D01*
X130268302Y-76537000D01*
X130248302Y-76537000D01*
X130248302Y-76283000D01*
X130268302Y-76283000D01*
X130268302Y-76263000D01*
X130522302Y-76263000D01*
X130522302Y-76283000D01*
X131715457Y-76283000D01*
X131836778Y-76053110D01*
X131792127Y-75905901D01*
X131666943Y-75643080D01*
X131492890Y-75409731D01*
X131276657Y-75214822D01*
X131159768Y-75145195D01*
X131341934Y-75023475D01*
X131548777Y-74816632D01*
X131711292Y-74573411D01*
X131823234Y-74303158D01*
X131880302Y-74016260D01*
X131880302Y-73723740D01*
X131823234Y-73436842D01*
X131711292Y-73166589D01*
X131548777Y-72923368D01*
X131341934Y-72716525D01*
X131167542Y-72600000D01*
X131341934Y-72483475D01*
X131548777Y-72276632D01*
X131711292Y-72033411D01*
X131823234Y-71763158D01*
X131880302Y-71476260D01*
X131880302Y-71183740D01*
X131823234Y-70896842D01*
X131711292Y-70626589D01*
X131548777Y-70383368D01*
X131341934Y-70176525D01*
X131167542Y-70060000D01*
X131341934Y-69943475D01*
X131548777Y-69736632D01*
X131711292Y-69493411D01*
X131823234Y-69223158D01*
X131880302Y-68936260D01*
X131880302Y-68643740D01*
X131823234Y-68356842D01*
X131711292Y-68086589D01*
X131548777Y-67843368D01*
X131341934Y-67636525D01*
X131167542Y-67520000D01*
X131341934Y-67403475D01*
X131548777Y-67196632D01*
X131711292Y-66953411D01*
X131823234Y-66683158D01*
X131880302Y-66396260D01*
X131880302Y-66103740D01*
X131823234Y-65816842D01*
X131711292Y-65546589D01*
X131548777Y-65303368D01*
X131341934Y-65096525D01*
X131167542Y-64980000D01*
X131341934Y-64863475D01*
X131548777Y-64656632D01*
X131711292Y-64413411D01*
X131823234Y-64143158D01*
X131880302Y-63856260D01*
X131880302Y-63563740D01*
X131823234Y-63276842D01*
X131711292Y-63006589D01*
X131548777Y-62763368D01*
X131341934Y-62556525D01*
X131167542Y-62440000D01*
X131341934Y-62323475D01*
X131548777Y-62116632D01*
X131711292Y-61873411D01*
X131823234Y-61603158D01*
X131880302Y-61316260D01*
X131880302Y-61023740D01*
X131823234Y-60736842D01*
X131711292Y-60466589D01*
X131548777Y-60223368D01*
X131341934Y-60016525D01*
X131159768Y-59894805D01*
X131276657Y-59825178D01*
X131492890Y-59630269D01*
X131666943Y-59396920D01*
X131792127Y-59134099D01*
X131836778Y-58986890D01*
X131715457Y-58757000D01*
X130522302Y-58757000D01*
X130522302Y-58777000D01*
X130268302Y-58777000D01*
X130268302Y-58757000D01*
X130248302Y-58757000D01*
X130248302Y-58503000D01*
X130268302Y-58503000D01*
X130268302Y-58483000D01*
X130522302Y-58483000D01*
X130522302Y-58503000D01*
X131715457Y-58503000D01*
X131836778Y-58273110D01*
X131792127Y-58125901D01*
X131666943Y-57863080D01*
X131492890Y-57629731D01*
X131276657Y-57434822D01*
X131159768Y-57365195D01*
X131341934Y-57243475D01*
X131548777Y-57036632D01*
X131711292Y-56793411D01*
X131823234Y-56523158D01*
X131880302Y-56236260D01*
X131880302Y-55943740D01*
X131823234Y-55656842D01*
X131711292Y-55386589D01*
X131548777Y-55143368D01*
X131341934Y-54936525D01*
X131167542Y-54820000D01*
X131341934Y-54703475D01*
X131548777Y-54496632D01*
X131711292Y-54253411D01*
X131823234Y-53983158D01*
X131880302Y-53696260D01*
X131880302Y-53403740D01*
X131823234Y-53116842D01*
X131711292Y-52846589D01*
X131548777Y-52603368D01*
X131341934Y-52396525D01*
X131098713Y-52234010D01*
X130828460Y-52122068D01*
X130541562Y-52065000D01*
X130249042Y-52065000D01*
X129962144Y-52122068D01*
X129691891Y-52234010D01*
X129448670Y-52396525D01*
X129316815Y-52528380D01*
X129294804Y-52455820D01*
X129235839Y-52345506D01*
X129156487Y-52248815D01*
X129059796Y-52169463D01*
X128949482Y-52110498D01*
X128829784Y-52074188D01*
X128705302Y-52061928D01*
X127005302Y-52061928D01*
X126880820Y-52074188D01*
X126761122Y-52110498D01*
X126650808Y-52169463D01*
X126554117Y-52248815D01*
X126474765Y-52345506D01*
X126415800Y-52455820D01*
X126379490Y-52575518D01*
X126370677Y-52665000D01*
X125918716Y-52665000D01*
X125806200Y-52653919D01*
X125632710Y-52671005D01*
X125465886Y-52721611D01*
X125312141Y-52803789D01*
X125211153Y-52886668D01*
X125211149Y-52886672D01*
X125177383Y-52914383D01*
X125149671Y-52948150D01*
X124525351Y-53572471D01*
X124491584Y-53600183D01*
X124463871Y-53633951D01*
X124463868Y-53633954D01*
X124380990Y-53734941D01*
X124298812Y-53888687D01*
X124248205Y-54055510D01*
X124231119Y-54229000D01*
X124235401Y-54272479D01*
X124235400Y-72985000D01*
X117587865Y-72985000D01*
X117544399Y-72980719D01*
X117500933Y-72985000D01*
X117500923Y-72985000D01*
X117370910Y-72997805D01*
X117204087Y-73048411D01*
X117050341Y-73130589D01*
X116915583Y-73241183D01*
X116887868Y-73274954D01*
X116879959Y-73282863D01*
X116879953Y-73282868D01*
X115076551Y-75086271D01*
X115042784Y-75113983D01*
X115015071Y-75147751D01*
X115015068Y-75147754D01*
X114932190Y-75248741D01*
X114850012Y-75402487D01*
X114799405Y-75569310D01*
X114782319Y-75742800D01*
X114786601Y-75786279D01*
X114786600Y-80301653D01*
X114746770Y-80261823D01*
X114630497Y-80378096D01*
X114558914Y-80134129D01*
X114303404Y-80013229D01*
X114029216Y-79944500D01*
X113746888Y-79930583D01*
X113467270Y-79972013D01*
X113201108Y-80067197D01*
X113075886Y-80134129D01*
X113004303Y-80378098D01*
X113817400Y-81191195D01*
X113831543Y-81177053D01*
X114011148Y-81356658D01*
X113997005Y-81370800D01*
X114011148Y-81384943D01*
X113831543Y-81564548D01*
X113817400Y-81550405D01*
X113004303Y-82363502D01*
X113024615Y-82432728D01*
X113017400Y-82432728D01*
X112892918Y-82444988D01*
X112773220Y-82481298D01*
X112662906Y-82540263D01*
X112566215Y-82619615D01*
X112486863Y-82716306D01*
X112427898Y-82826620D01*
X112391588Y-82946318D01*
X112379328Y-83070800D01*
X109998521Y-83070800D01*
X110001000Y-83058339D01*
X110001000Y-82854461D01*
X109961226Y-82654502D01*
X109883205Y-82466144D01*
X109769937Y-82296626D01*
X109625774Y-82152463D01*
X109456256Y-82039195D01*
X109267898Y-81961174D01*
X109067939Y-81921400D01*
X108864061Y-81921400D01*
X108664102Y-81961174D01*
X108475744Y-82039195D01*
X108306226Y-82152463D01*
X108162063Y-82296626D01*
X108048795Y-82466144D01*
X107970774Y-82654502D01*
X107931000Y-82854461D01*
X92660000Y-82854461D01*
X92660000Y-81441312D01*
X112377183Y-81441312D01*
X112418613Y-81720930D01*
X112513797Y-81987092D01*
X112580729Y-82112314D01*
X112824698Y-82183897D01*
X113637795Y-81370800D01*
X112824698Y-80557703D01*
X112580729Y-80629286D01*
X112459829Y-80884796D01*
X112391100Y-81158984D01*
X112377183Y-81441312D01*
X92660000Y-81441312D01*
X92660000Y-62331261D01*
X109226400Y-62331261D01*
X109226400Y-62535139D01*
X109266174Y-62735098D01*
X109344195Y-62923456D01*
X109457463Y-63092974D01*
X109501401Y-63136912D01*
X109501400Y-64548889D01*
X109457463Y-64592826D01*
X109344195Y-64762344D01*
X109266174Y-64950702D01*
X109226400Y-65150661D01*
X109226400Y-65354539D01*
X109266174Y-65554498D01*
X109344195Y-65742856D01*
X109457463Y-65912374D01*
X109601626Y-66056537D01*
X109771144Y-66169805D01*
X109959502Y-66247826D01*
X110159461Y-66287600D01*
X110363339Y-66287600D01*
X110563298Y-66247826D01*
X110751656Y-66169805D01*
X110921174Y-66056537D01*
X111065337Y-65912374D01*
X111178605Y-65742856D01*
X111256626Y-65554498D01*
X111296400Y-65354539D01*
X111296400Y-65150661D01*
X111256626Y-64950702D01*
X111178605Y-64762344D01*
X111065337Y-64592826D01*
X111021400Y-64548889D01*
X111021400Y-63136911D01*
X111065337Y-63092974D01*
X111178605Y-62923456D01*
X111256626Y-62735098D01*
X111296400Y-62535139D01*
X111296400Y-62331261D01*
X111256626Y-62131302D01*
X111178605Y-61942944D01*
X111065337Y-61773426D01*
X110921174Y-61629263D01*
X110751656Y-61515995D01*
X110563298Y-61437974D01*
X110363339Y-61398200D01*
X110159461Y-61398200D01*
X109959502Y-61437974D01*
X109771144Y-61515995D01*
X109601626Y-61629263D01*
X109457463Y-61773426D01*
X109344195Y-61942944D01*
X109266174Y-62131302D01*
X109226400Y-62331261D01*
X92660000Y-62331261D01*
X92660000Y-50660000D01*
X133340000Y-50660000D01*
X133340001Y-87340000D01*
G36*
X126379490Y-54524482D02*
G01*
X126415800Y-54644180D01*
X126474765Y-54754494D01*
X126554117Y-54851185D01*
X126650808Y-54930537D01*
X126761122Y-54989502D01*
X126833682Y-55011513D01*
X126701827Y-55143368D01*
X126539312Y-55386589D01*
X126427370Y-55656842D01*
X126370302Y-55943740D01*
X126370302Y-56236260D01*
X126427370Y-56523158D01*
X126539312Y-56793411D01*
X126701827Y-57036632D01*
X126908670Y-57243475D01*
X127083062Y-57360000D01*
X126908670Y-57476525D01*
X126701827Y-57683368D01*
X126539312Y-57926589D01*
X126427370Y-58196842D01*
X126370302Y-58483740D01*
X126370302Y-58776260D01*
X126427370Y-59063158D01*
X126539312Y-59333411D01*
X126701827Y-59576632D01*
X126908670Y-59783475D01*
X127083062Y-59900000D01*
X126908670Y-60016525D01*
X126701827Y-60223368D01*
X126539312Y-60466589D01*
X126427370Y-60736842D01*
X126370302Y-61023740D01*
X126370302Y-61316260D01*
X126427370Y-61603158D01*
X126539312Y-61873411D01*
X126701827Y-62116632D01*
X126908670Y-62323475D01*
X127090836Y-62445195D01*
X126973947Y-62514822D01*
X126757714Y-62709731D01*
X126583661Y-62943080D01*
X126458477Y-63205901D01*
X126413826Y-63353110D01*
X126535147Y-63583000D01*
X127728302Y-63583000D01*
X127728302Y-63563000D01*
X127982302Y-63563000D01*
X127982302Y-63583000D01*
X128002302Y-63583000D01*
X128002302Y-63837000D01*
X127982302Y-63837000D01*
X127982302Y-63857000D01*
X127728302Y-63857000D01*
X127728302Y-63837000D01*
X126535147Y-63837000D01*
X126413826Y-64066890D01*
X126458477Y-64214099D01*
X126583661Y-64476920D01*
X126757714Y-64710269D01*
X126973947Y-64905178D01*
X127090836Y-64974805D01*
X126908670Y-65096525D01*
X126701827Y-65303368D01*
X126539312Y-65546589D01*
X126427370Y-65816842D01*
X126370302Y-66103740D01*
X126370302Y-66396260D01*
X126427370Y-66683158D01*
X126539312Y-66953411D01*
X126701827Y-67196632D01*
X126908670Y-67403475D01*
X127083062Y-67520000D01*
X126908670Y-67636525D01*
X126701827Y-67843368D01*
X126539312Y-68086589D01*
X126427370Y-68356842D01*
X126370302Y-68643740D01*
X126370302Y-68936260D01*
X126427370Y-69223158D01*
X126539312Y-69493411D01*
X126701827Y-69736632D01*
X126908670Y-69943475D01*
X127083062Y-70060000D01*
X126908670Y-70176525D01*
X126701827Y-70383368D01*
X126539312Y-70626589D01*
X126427370Y-70896842D01*
X126370302Y-71183740D01*
X126370302Y-71476260D01*
X126427370Y-71763158D01*
X126539312Y-72033411D01*
X126701827Y-72276632D01*
X126908670Y-72483475D01*
X127083062Y-72600000D01*
X126908670Y-72716525D01*
X126701827Y-72923368D01*
X126660646Y-72985000D01*
X126005400Y-72985000D01*
X126005400Y-54595578D01*
X126165979Y-54435000D01*
X126370677Y-54435000D01*
X126379490Y-54524482D01*
G37*
X126379490Y-54524482D02*
X126415800Y-54644180D01*
X126474765Y-54754494D01*
X126554117Y-54851185D01*
X126650808Y-54930537D01*
X126761122Y-54989502D01*
X126833682Y-55011513D01*
X126701827Y-55143368D01*
X126539312Y-55386589D01*
X126427370Y-55656842D01*
X126370302Y-55943740D01*
X126370302Y-56236260D01*
X126427370Y-56523158D01*
X126539312Y-56793411D01*
X126701827Y-57036632D01*
X126908670Y-57243475D01*
X127083062Y-57360000D01*
X126908670Y-57476525D01*
X126701827Y-57683368D01*
X126539312Y-57926589D01*
X126427370Y-58196842D01*
X126370302Y-58483740D01*
X126370302Y-58776260D01*
X126427370Y-59063158D01*
X126539312Y-59333411D01*
X126701827Y-59576632D01*
X126908670Y-59783475D01*
X127083062Y-59900000D01*
X126908670Y-60016525D01*
X126701827Y-60223368D01*
X126539312Y-60466589D01*
X126427370Y-60736842D01*
X126370302Y-61023740D01*
X126370302Y-61316260D01*
X126427370Y-61603158D01*
X126539312Y-61873411D01*
X126701827Y-62116632D01*
X126908670Y-62323475D01*
X127090836Y-62445195D01*
X126973947Y-62514822D01*
X126757714Y-62709731D01*
X126583661Y-62943080D01*
X126458477Y-63205901D01*
X126413826Y-63353110D01*
X126535147Y-63583000D01*
X127728302Y-63583000D01*
X127728302Y-63563000D01*
X127982302Y-63563000D01*
X127982302Y-63583000D01*
X128002302Y-63583000D01*
X128002302Y-63837000D01*
X127982302Y-63837000D01*
X127982302Y-63857000D01*
X127728302Y-63857000D01*
X127728302Y-63837000D01*
X126535147Y-63837000D01*
X126413826Y-64066890D01*
X126458477Y-64214099D01*
X126583661Y-64476920D01*
X126757714Y-64710269D01*
X126973947Y-64905178D01*
X127090836Y-64974805D01*
X126908670Y-65096525D01*
X126701827Y-65303368D01*
X126539312Y-65546589D01*
X126427370Y-65816842D01*
X126370302Y-66103740D01*
X126370302Y-66396260D01*
X126427370Y-66683158D01*
X126539312Y-66953411D01*
X126701827Y-67196632D01*
X126908670Y-67403475D01*
X127083062Y-67520000D01*
X126908670Y-67636525D01*
X126701827Y-67843368D01*
X126539312Y-68086589D01*
X126427370Y-68356842D01*
X126370302Y-68643740D01*
X126370302Y-68936260D01*
X126427370Y-69223158D01*
X126539312Y-69493411D01*
X126701827Y-69736632D01*
X126908670Y-69943475D01*
X127083062Y-70060000D01*
X126908670Y-70176525D01*
X126701827Y-70383368D01*
X126539312Y-70626589D01*
X126427370Y-70896842D01*
X126370302Y-71183740D01*
X126370302Y-71476260D01*
X126427370Y-71763158D01*
X126539312Y-72033411D01*
X126701827Y-72276632D01*
X126908670Y-72483475D01*
X127083062Y-72600000D01*
X126908670Y-72716525D01*
X126701827Y-72923368D01*
X126660646Y-72985000D01*
X126005400Y-72985000D01*
X126005400Y-54595578D01*
X126165979Y-54435000D01*
X126370677Y-54435000D01*
X126379490Y-54524482D01*
M02*
