G04 #@! TF.GenerationSoftware,KiCad,Pcbnew,(5.1.5-0-10_14)*
G04 #@! TF.CreationDate,2020-05-04T22:30:03+03:00*
G04 #@! TF.ProjectId,PiGate,50694761-7465-42e6-9b69-6361645f7063,rev?*
G04 #@! TF.SameCoordinates,Original*
G04 #@! TF.FileFunction,Copper,L1,Top*
G04 #@! TF.FilePolarity,Positive*
%FSLAX46Y46*%
G04 Gerber Fmt 4.6, Leading zero omitted, Abs format (unit mm)*
G04 Created by KiCad (PCBNEW (5.1.5-0-10_14)) date 2020-05-04 22:30:03*
%MOMM*%
%LPD*%
G04 APERTURE LIST*
%ADD10O,1.700000X1.700000*%
%ADD11R,1.700000X1.700000*%
%ADD12C,1.524000*%
%ADD13R,1.524000X1.524000*%
%ADD14C,1.600000*%
%ADD15R,1.600000X1.600000*%
%ADD16R,2.500000X1.000000*%
%ADD17R,2.000000X1.500000*%
%ADD18R,1.750000X0.600000*%
%ADD19C,0.800000*%
%ADD20C,0.250000*%
%ADD21C,0.500000*%
%ADD22C,0.254000*%
G04 APERTURE END LIST*
D10*
X130395302Y-84030000D03*
X127855302Y-84030000D03*
X130395302Y-81490000D03*
X127855302Y-81490000D03*
X130395302Y-78950000D03*
X127855302Y-78950000D03*
X130395302Y-76410000D03*
X127855302Y-76410000D03*
X130395302Y-73870000D03*
X127855302Y-73870000D03*
X130395302Y-71330000D03*
X127855302Y-71330000D03*
X130395302Y-68790000D03*
X127855302Y-68790000D03*
X130395302Y-66250000D03*
X127855302Y-66250000D03*
X130395302Y-63710000D03*
X127855302Y-63710000D03*
X130395302Y-61170000D03*
X127855302Y-61170000D03*
X130395302Y-58630000D03*
X127855302Y-58630000D03*
X130395302Y-56090000D03*
X127855302Y-56090000D03*
X130395302Y-53550000D03*
D11*
X127855302Y-53550000D03*
D12*
X118364000Y-77800200D03*
X120904000Y-77800200D03*
X118364000Y-80340200D03*
X120904000Y-80340200D03*
X118364000Y-82880200D03*
X120904000Y-82880200D03*
X118364000Y-85420200D03*
D13*
X120904000Y-85420200D03*
D14*
X113817400Y-81370800D03*
D15*
X113817400Y-83870800D03*
D16*
X102170600Y-55672200D03*
X102170600Y-57672200D03*
X102170600Y-59672200D03*
X102170600Y-61672200D03*
X102170600Y-63672200D03*
X102170600Y-65672200D03*
X102170600Y-67672200D03*
X102170600Y-69672200D03*
X120370600Y-69672200D03*
X120370600Y-67672200D03*
X120370600Y-65672200D03*
X120370600Y-63672200D03*
X120370600Y-61672200D03*
X120370600Y-59672200D03*
X120370600Y-57672200D03*
X120370600Y-55672200D03*
D17*
X97129600Y-55560200D03*
X97129600Y-57560200D03*
X97129600Y-59560200D03*
X97129600Y-61560200D03*
X97129600Y-63560200D03*
X97129600Y-65560200D03*
X97129600Y-67560200D03*
X97129600Y-69560200D03*
X113129600Y-69560200D03*
X113129600Y-67560200D03*
X113129600Y-65560200D03*
X113129600Y-63560200D03*
X113129600Y-61560200D03*
X113129600Y-59560200D03*
X113129600Y-57560200D03*
X113129600Y-55560200D03*
D18*
X105361800Y-51933600D03*
X107111800Y-50933600D03*
X107111800Y-52933600D03*
D19*
X94970600Y-53086000D03*
X116651800Y-55560200D03*
X117563400Y-65672200D03*
X116586000Y-69621400D03*
X108966000Y-84658200D03*
X108966000Y-82956400D03*
X123063000Y-77597000D03*
X123088400Y-74904600D03*
X110261400Y-65252600D03*
X110261400Y-62433200D03*
D20*
X113129600Y-55560200D02*
X116651800Y-55560200D01*
X113241600Y-69672200D02*
X113129600Y-69560200D01*
X120370600Y-65672200D02*
X117563400Y-65672200D01*
X116586000Y-69672200D02*
X113241600Y-69672200D01*
X120370600Y-69672200D02*
X116586000Y-69672200D01*
X94970600Y-53086000D02*
X94970600Y-53086000D01*
X116651800Y-55560200D02*
X120258600Y-55560200D01*
X117563400Y-65672200D02*
X117563400Y-65672200D01*
X116586000Y-69621400D02*
X116586000Y-69672200D01*
D21*
X94970600Y-56901200D02*
X94970600Y-53651685D01*
X94970600Y-53651685D02*
X94970600Y-53086000D01*
X95629600Y-57560200D02*
X94970600Y-56901200D01*
X97129600Y-57560200D02*
X95629600Y-57560200D01*
X94970600Y-53086000D02*
X97104200Y-50952400D01*
X97104200Y-50952400D02*
X97155000Y-50952400D01*
D20*
X97123000Y-50933600D02*
X97155000Y-50952400D01*
D21*
X104895400Y-50933600D02*
X107111800Y-50933600D01*
X97123000Y-50933600D02*
X104895400Y-50933600D01*
X120258600Y-55560200D02*
X120370600Y-55672200D01*
X113129600Y-55560200D02*
X120258600Y-55560200D01*
X120258600Y-69560200D02*
X120370600Y-69672200D01*
X113129600Y-69560200D02*
X120258600Y-69560200D01*
X117487200Y-65672200D02*
X116560600Y-66598800D01*
X120370600Y-65672200D02*
X117487200Y-65672200D01*
D20*
X117563400Y-65672200D02*
X116560600Y-66598800D01*
D21*
X116586000Y-66624200D02*
X116586000Y-69621400D01*
X116560600Y-66598800D02*
X116586000Y-66624200D01*
D20*
X98933000Y-71409800D02*
X98933000Y-74726800D01*
D21*
X113817400Y-85170800D02*
X113817400Y-83870800D01*
X114066800Y-85420200D02*
X113817400Y-85170800D01*
X118364000Y-85420200D02*
X114066800Y-85420200D01*
X108014399Y-83808199D02*
X98907600Y-74701400D01*
X112454799Y-83808199D02*
X108014399Y-83808199D01*
X112517400Y-83870800D02*
X112454799Y-83808199D01*
X113817400Y-83870800D02*
X112517400Y-83870800D01*
D20*
X98933000Y-74726800D02*
X98907600Y-74701400D01*
D21*
X98907600Y-74701400D02*
X98907600Y-71399400D01*
X98907600Y-71399400D02*
X100660200Y-69646800D01*
D20*
X100660200Y-69646800D02*
X98933000Y-71409800D01*
X100670600Y-69672200D02*
X100660200Y-69646800D01*
D21*
X100670600Y-69672200D02*
X102170600Y-69672200D01*
X98907600Y-74701400D02*
X98856800Y-74701400D01*
D20*
X95199200Y-71043800D02*
X98933000Y-74726800D01*
D21*
X98856800Y-74701400D02*
X95199200Y-71043800D01*
D20*
X95173800Y-71069200D02*
X95199200Y-71043800D01*
D21*
X95633800Y-59560200D02*
X97129600Y-59560200D01*
X94538800Y-60655200D02*
X95633800Y-59560200D01*
X94538800Y-70434200D02*
X94538800Y-60655200D01*
X95173800Y-71069200D02*
X94538800Y-70434200D01*
D20*
X113241600Y-57672200D02*
X113129600Y-57560200D01*
X120370600Y-57672200D02*
X113241600Y-57672200D01*
X110613200Y-57560200D02*
X113129600Y-57560200D01*
X107797600Y-60375800D02*
X110613200Y-57560200D01*
X107797600Y-81788000D02*
X107797600Y-60375800D01*
X108966000Y-82956400D02*
X107797600Y-81788000D01*
X110815001Y-86507201D02*
X108966000Y-84658200D01*
X130395302Y-85047498D02*
X128935599Y-86507201D01*
X128935599Y-86507201D02*
X110815001Y-86507201D01*
X130395302Y-84030000D02*
X130395302Y-85047498D01*
X119125999Y-83642199D02*
X118364000Y-82880200D01*
X121717602Y-84124800D02*
X119608600Y-84124800D01*
X123190802Y-85598000D02*
X121717602Y-84124800D01*
X128549400Y-85598000D02*
X123190802Y-85598000D01*
X129108200Y-85039200D02*
X128549400Y-85598000D01*
X119608600Y-84124800D02*
X119125999Y-83642199D01*
X129108200Y-83108800D02*
X129108200Y-85039200D01*
X130395302Y-81821698D02*
X129108200Y-83108800D01*
X130395302Y-81490000D02*
X130395302Y-81821698D01*
X120258600Y-63560200D02*
X120370600Y-63672200D01*
X113129600Y-63560200D02*
X120258600Y-63560200D01*
X127848502Y-81483200D02*
X127855302Y-81490000D01*
X122047000Y-81483200D02*
X127848502Y-81483200D01*
X120904000Y-80340200D02*
X122047000Y-81483200D01*
X109474000Y-64287400D02*
X110201200Y-63560200D01*
X109474000Y-73456800D02*
X109474000Y-64287400D01*
X117627400Y-81610200D02*
X109474000Y-73456800D01*
X110201200Y-63560200D02*
X113129600Y-63560200D01*
X119634000Y-81610200D02*
X117627400Y-81610200D01*
X120904000Y-80340200D02*
X119634000Y-81610200D01*
X129133600Y-82219800D02*
X129133600Y-80211702D01*
X128600200Y-82753200D02*
X129133600Y-82219800D01*
X129133600Y-80211702D02*
X129545303Y-79799999D01*
X129545303Y-79799999D02*
X130395302Y-78950000D01*
X121031000Y-82753200D02*
X128600200Y-82753200D01*
X120904000Y-82880200D02*
X121031000Y-82753200D01*
X113241600Y-61672200D02*
X113129600Y-61560200D01*
X120370600Y-61672200D02*
X113241600Y-61672200D01*
X121107200Y-77597000D02*
X120904000Y-77800200D01*
X123063000Y-77597000D02*
X121107200Y-77597000D01*
X126653221Y-78950000D02*
X127855302Y-78950000D01*
X125300221Y-77597000D02*
X126653221Y-78950000D01*
X121107200Y-77597000D02*
X125300221Y-77597000D01*
X123088400Y-74338915D02*
X123088400Y-74904600D01*
X123088400Y-62153800D02*
X123088400Y-74338915D01*
X122606800Y-61672200D02*
X123088400Y-62153800D01*
X120370600Y-61672200D02*
X122606800Y-61672200D01*
X120258600Y-59560200D02*
X120370600Y-59672200D01*
X113129600Y-59560200D02*
X120258600Y-59560200D01*
X111356400Y-59560200D02*
X113129600Y-59560200D01*
X110261400Y-60655200D02*
X111356400Y-59560200D01*
X110261400Y-62433200D02*
X110261400Y-60655200D01*
X126653221Y-76410000D02*
X127855302Y-76410000D01*
X120109800Y-76410000D02*
X126653221Y-76410000D01*
X119634000Y-76885800D02*
X120109800Y-76410000D01*
X119634000Y-79070200D02*
X119634000Y-76885800D01*
X118364000Y-80340200D02*
X119634000Y-79070200D01*
X110261400Y-73050400D02*
X110261400Y-65252600D01*
X117551200Y-80340200D02*
X110261400Y-73050400D01*
X118364000Y-80340200D02*
X117551200Y-80340200D01*
X118364000Y-76327000D02*
X118364000Y-77800200D01*
X123672600Y-75793600D02*
X118897400Y-75793600D01*
X127855302Y-71610898D02*
X123672600Y-75793600D01*
X118897400Y-75793600D02*
X118364000Y-76327000D01*
X127855302Y-71330000D02*
X127855302Y-71610898D01*
X99695000Y-58039000D02*
X100061800Y-57672200D01*
X98628200Y-63550800D02*
X99695000Y-62484000D01*
X98389000Y-63550800D02*
X98628200Y-63550800D01*
X98379600Y-63560200D02*
X98389000Y-63550800D01*
X99695000Y-62484000D02*
X99695000Y-58039000D01*
X100061800Y-57672200D02*
X102170600Y-57672200D01*
X97129600Y-63560200D02*
X98379600Y-63560200D01*
X106208600Y-57672200D02*
X102170600Y-57672200D01*
X110210600Y-53670200D02*
X106208600Y-57672200D01*
X124409200Y-67919600D02*
X124409200Y-54279800D01*
X124409200Y-54279800D02*
X123799600Y-53670200D01*
X123799600Y-53670200D02*
X110210600Y-53670200D01*
X125279600Y-68790000D02*
X124409200Y-67919600D01*
X127855302Y-68790000D02*
X125279600Y-68790000D01*
X125399800Y-60401200D02*
X126168600Y-61170000D01*
X125399800Y-53822600D02*
X125399800Y-60401200D01*
X124510800Y-52933600D02*
X125399800Y-53822600D01*
X126168600Y-61170000D02*
X127855302Y-61170000D01*
X107111800Y-52933600D02*
X124510800Y-52933600D01*
X98379600Y-61560200D02*
X99136200Y-60803600D01*
X97129600Y-61560200D02*
X98379600Y-61560200D01*
X99136200Y-60803600D02*
X99136200Y-56692800D01*
X100156800Y-55672200D02*
X102170600Y-55672200D01*
X99136200Y-56692800D02*
X100156800Y-55672200D01*
X105361800Y-53981000D02*
X105361800Y-52483600D01*
X103670600Y-55672200D02*
X105361800Y-53981000D01*
X105361800Y-52483600D02*
X105361800Y-51933600D01*
X102170600Y-55672200D02*
X103670600Y-55672200D01*
D22*
G36*
X105760550Y-50806600D02*
G01*
X106984800Y-50806600D01*
X106984800Y-50786600D01*
X107238800Y-50786600D01*
X107238800Y-50806600D01*
X108463050Y-50806600D01*
X108609650Y-50660000D01*
X133340000Y-50660000D01*
X133340001Y-87340000D01*
X92660000Y-87340000D01*
X92660000Y-60655200D01*
X93649519Y-60655200D01*
X93653801Y-60698679D01*
X93653800Y-70390731D01*
X93649519Y-70434200D01*
X93653800Y-70477669D01*
X93653800Y-70477676D01*
X93661731Y-70558198D01*
X93666605Y-70607690D01*
X93672338Y-70626589D01*
X93717211Y-70774512D01*
X93799389Y-70928258D01*
X93909983Y-71063017D01*
X93943756Y-71090734D01*
X94578753Y-71725732D01*
X94679741Y-71808611D01*
X94749972Y-71846150D01*
X98200270Y-75296449D01*
X98227983Y-75330217D01*
X98261751Y-75357930D01*
X98261753Y-75357932D01*
X98362741Y-75440811D01*
X98432972Y-75478350D01*
X107357869Y-84403248D01*
X107385582Y-84437016D01*
X107419350Y-84464729D01*
X107419352Y-84464731D01*
X107520340Y-84547610D01*
X107674085Y-84629788D01*
X107809282Y-84670800D01*
X107840909Y-84680394D01*
X107931000Y-84689267D01*
X107931000Y-84760139D01*
X107970774Y-84960098D01*
X108048795Y-85148456D01*
X108162063Y-85317974D01*
X108306226Y-85462137D01*
X108475744Y-85575405D01*
X108664102Y-85653426D01*
X108864061Y-85693200D01*
X108926199Y-85693200D01*
X110251202Y-87018204D01*
X110275000Y-87047202D01*
X110390725Y-87142175D01*
X110522754Y-87212747D01*
X110666015Y-87256204D01*
X110777668Y-87267201D01*
X110777677Y-87267201D01*
X110815000Y-87270877D01*
X110852323Y-87267201D01*
X128898277Y-87267201D01*
X128935599Y-87270877D01*
X128972921Y-87267201D01*
X128972932Y-87267201D01*
X129084585Y-87256204D01*
X129227846Y-87212747D01*
X129359875Y-87142175D01*
X129475600Y-87047202D01*
X129499403Y-87018198D01*
X130906305Y-85611297D01*
X130935303Y-85587499D01*
X131030276Y-85471774D01*
X131097168Y-85346630D01*
X131098713Y-85345990D01*
X131341934Y-85183475D01*
X131548777Y-84976632D01*
X131711292Y-84733411D01*
X131823234Y-84463158D01*
X131880302Y-84176260D01*
X131880302Y-83883740D01*
X131823234Y-83596842D01*
X131711292Y-83326589D01*
X131548777Y-83083368D01*
X131341934Y-82876525D01*
X131167542Y-82760000D01*
X131341934Y-82643475D01*
X131548777Y-82436632D01*
X131711292Y-82193411D01*
X131823234Y-81923158D01*
X131880302Y-81636260D01*
X131880302Y-81343740D01*
X131823234Y-81056842D01*
X131711292Y-80786589D01*
X131548777Y-80543368D01*
X131341934Y-80336525D01*
X131167542Y-80220000D01*
X131341934Y-80103475D01*
X131548777Y-79896632D01*
X131711292Y-79653411D01*
X131823234Y-79383158D01*
X131880302Y-79096260D01*
X131880302Y-78803740D01*
X131823234Y-78516842D01*
X131711292Y-78246589D01*
X131548777Y-78003368D01*
X131341934Y-77796525D01*
X131159768Y-77674805D01*
X131276657Y-77605178D01*
X131492890Y-77410269D01*
X131666943Y-77176920D01*
X131792127Y-76914099D01*
X131836778Y-76766890D01*
X131715457Y-76537000D01*
X130522302Y-76537000D01*
X130522302Y-76557000D01*
X130268302Y-76557000D01*
X130268302Y-76537000D01*
X130248302Y-76537000D01*
X130248302Y-76283000D01*
X130268302Y-76283000D01*
X130268302Y-76263000D01*
X130522302Y-76263000D01*
X130522302Y-76283000D01*
X131715457Y-76283000D01*
X131836778Y-76053110D01*
X131792127Y-75905901D01*
X131666943Y-75643080D01*
X131492890Y-75409731D01*
X131276657Y-75214822D01*
X131159768Y-75145195D01*
X131341934Y-75023475D01*
X131548777Y-74816632D01*
X131711292Y-74573411D01*
X131823234Y-74303158D01*
X131880302Y-74016260D01*
X131880302Y-73723740D01*
X131823234Y-73436842D01*
X131711292Y-73166589D01*
X131548777Y-72923368D01*
X131341934Y-72716525D01*
X131167542Y-72600000D01*
X131341934Y-72483475D01*
X131548777Y-72276632D01*
X131711292Y-72033411D01*
X131823234Y-71763158D01*
X131880302Y-71476260D01*
X131880302Y-71183740D01*
X131823234Y-70896842D01*
X131711292Y-70626589D01*
X131548777Y-70383368D01*
X131341934Y-70176525D01*
X131167542Y-70060000D01*
X131341934Y-69943475D01*
X131548777Y-69736632D01*
X131711292Y-69493411D01*
X131823234Y-69223158D01*
X131880302Y-68936260D01*
X131880302Y-68643740D01*
X131823234Y-68356842D01*
X131711292Y-68086589D01*
X131548777Y-67843368D01*
X131341934Y-67636525D01*
X131167542Y-67520000D01*
X131341934Y-67403475D01*
X131548777Y-67196632D01*
X131711292Y-66953411D01*
X131823234Y-66683158D01*
X131880302Y-66396260D01*
X131880302Y-66103740D01*
X131823234Y-65816842D01*
X131711292Y-65546589D01*
X131548777Y-65303368D01*
X131341934Y-65096525D01*
X131167542Y-64980000D01*
X131341934Y-64863475D01*
X131548777Y-64656632D01*
X131711292Y-64413411D01*
X131823234Y-64143158D01*
X131880302Y-63856260D01*
X131880302Y-63563740D01*
X131823234Y-63276842D01*
X131711292Y-63006589D01*
X131548777Y-62763368D01*
X131341934Y-62556525D01*
X131167542Y-62440000D01*
X131341934Y-62323475D01*
X131548777Y-62116632D01*
X131711292Y-61873411D01*
X131823234Y-61603158D01*
X131880302Y-61316260D01*
X131880302Y-61023740D01*
X131823234Y-60736842D01*
X131711292Y-60466589D01*
X131548777Y-60223368D01*
X131341934Y-60016525D01*
X131159768Y-59894805D01*
X131276657Y-59825178D01*
X131492890Y-59630269D01*
X131666943Y-59396920D01*
X131792127Y-59134099D01*
X131836778Y-58986890D01*
X131715457Y-58757000D01*
X130522302Y-58757000D01*
X130522302Y-58777000D01*
X130268302Y-58777000D01*
X130268302Y-58757000D01*
X130248302Y-58757000D01*
X130248302Y-58503000D01*
X130268302Y-58503000D01*
X130268302Y-58483000D01*
X130522302Y-58483000D01*
X130522302Y-58503000D01*
X131715457Y-58503000D01*
X131836778Y-58273110D01*
X131792127Y-58125901D01*
X131666943Y-57863080D01*
X131492890Y-57629731D01*
X131276657Y-57434822D01*
X131159768Y-57365195D01*
X131341934Y-57243475D01*
X131548777Y-57036632D01*
X131711292Y-56793411D01*
X131823234Y-56523158D01*
X131880302Y-56236260D01*
X131880302Y-55943740D01*
X131823234Y-55656842D01*
X131711292Y-55386589D01*
X131548777Y-55143368D01*
X131341934Y-54936525D01*
X131167542Y-54820000D01*
X131341934Y-54703475D01*
X131548777Y-54496632D01*
X131711292Y-54253411D01*
X131823234Y-53983158D01*
X131880302Y-53696260D01*
X131880302Y-53403740D01*
X131823234Y-53116842D01*
X131711292Y-52846589D01*
X131548777Y-52603368D01*
X131341934Y-52396525D01*
X131098713Y-52234010D01*
X130828460Y-52122068D01*
X130541562Y-52065000D01*
X130249042Y-52065000D01*
X129962144Y-52122068D01*
X129691891Y-52234010D01*
X129448670Y-52396525D01*
X129316815Y-52528380D01*
X129294804Y-52455820D01*
X129235839Y-52345506D01*
X129156487Y-52248815D01*
X129059796Y-52169463D01*
X128949482Y-52110498D01*
X128829784Y-52074188D01*
X128705302Y-52061928D01*
X127005302Y-52061928D01*
X126880820Y-52074188D01*
X126761122Y-52110498D01*
X126650808Y-52169463D01*
X126554117Y-52248815D01*
X126474765Y-52345506D01*
X126415800Y-52455820D01*
X126379490Y-52575518D01*
X126367230Y-52700000D01*
X126367230Y-54400000D01*
X126379490Y-54524482D01*
X126415800Y-54644180D01*
X126474765Y-54754494D01*
X126554117Y-54851185D01*
X126650808Y-54930537D01*
X126761122Y-54989502D01*
X126833682Y-55011513D01*
X126701827Y-55143368D01*
X126539312Y-55386589D01*
X126427370Y-55656842D01*
X126370302Y-55943740D01*
X126370302Y-56236260D01*
X126427370Y-56523158D01*
X126539312Y-56793411D01*
X126701827Y-57036632D01*
X126908670Y-57243475D01*
X127083062Y-57360000D01*
X126908670Y-57476525D01*
X126701827Y-57683368D01*
X126539312Y-57926589D01*
X126427370Y-58196842D01*
X126370302Y-58483740D01*
X126370302Y-58776260D01*
X126427370Y-59063158D01*
X126539312Y-59333411D01*
X126701827Y-59576632D01*
X126908670Y-59783475D01*
X127083062Y-59900000D01*
X126908670Y-60016525D01*
X126701827Y-60223368D01*
X126577124Y-60410000D01*
X126483402Y-60410000D01*
X126159800Y-60086398D01*
X126159800Y-53859923D01*
X126163476Y-53822600D01*
X126159800Y-53785277D01*
X126159800Y-53785267D01*
X126148803Y-53673614D01*
X126105346Y-53530353D01*
X126034774Y-53398324D01*
X125939801Y-53282599D01*
X125910804Y-53258802D01*
X125074603Y-52422602D01*
X125050801Y-52393599D01*
X124935076Y-52298626D01*
X124803047Y-52228054D01*
X124659786Y-52184597D01*
X124548133Y-52173600D01*
X124548122Y-52173600D01*
X124510800Y-52169924D01*
X124473478Y-52173600D01*
X108427244Y-52173600D01*
X108341294Y-52103063D01*
X108230980Y-52044098D01*
X108111282Y-52007788D01*
X107986800Y-51995528D01*
X106874872Y-51995528D01*
X106874872Y-51819778D01*
X106984800Y-51709850D01*
X106984800Y-51060600D01*
X107238800Y-51060600D01*
X107238800Y-51709850D01*
X107397550Y-51868600D01*
X107986800Y-51871672D01*
X108111282Y-51859412D01*
X108230980Y-51823102D01*
X108341294Y-51764137D01*
X108437985Y-51684785D01*
X108517337Y-51588094D01*
X108576302Y-51477780D01*
X108612612Y-51358082D01*
X108624872Y-51233600D01*
X108621800Y-51219350D01*
X108463050Y-51060600D01*
X107238800Y-51060600D01*
X106984800Y-51060600D01*
X106511853Y-51060600D01*
X106480980Y-51044098D01*
X106361282Y-51007788D01*
X106236800Y-50995528D01*
X104486800Y-50995528D01*
X104362318Y-51007788D01*
X104242620Y-51044098D01*
X104132306Y-51103063D01*
X104035615Y-51182415D01*
X103956263Y-51279106D01*
X103897298Y-51389420D01*
X103860988Y-51509118D01*
X103848728Y-51633600D01*
X103848728Y-52233600D01*
X103860988Y-52358082D01*
X103897298Y-52477780D01*
X103956263Y-52588094D01*
X104035615Y-52684785D01*
X104132306Y-52764137D01*
X104242620Y-52823102D01*
X104362318Y-52859412D01*
X104486800Y-52871672D01*
X104601801Y-52871672D01*
X104601800Y-53666198D01*
X103678153Y-54589846D01*
X103664780Y-54582698D01*
X103545082Y-54546388D01*
X103420600Y-54534128D01*
X100920600Y-54534128D01*
X100796118Y-54546388D01*
X100676420Y-54582698D01*
X100566106Y-54641663D01*
X100469415Y-54721015D01*
X100390063Y-54817706D01*
X100339554Y-54912200D01*
X100194122Y-54912200D01*
X100156799Y-54908524D01*
X100119476Y-54912200D01*
X100119467Y-54912200D01*
X100007814Y-54923197D01*
X99864553Y-54966654D01*
X99732524Y-55037226D01*
X99616799Y-55132199D01*
X99593001Y-55161197D01*
X98767672Y-55986527D01*
X98767672Y-54810200D01*
X98755412Y-54685718D01*
X98719102Y-54566020D01*
X98660137Y-54455706D01*
X98580785Y-54359015D01*
X98484094Y-54279663D01*
X98373780Y-54220698D01*
X98254082Y-54184388D01*
X98129600Y-54172128D01*
X96129600Y-54172128D01*
X96005118Y-54184388D01*
X95885420Y-54220698D01*
X95775106Y-54279663D01*
X95678415Y-54359015D01*
X95599063Y-54455706D01*
X95540098Y-54566020D01*
X95503788Y-54685718D01*
X95491528Y-54810200D01*
X95491528Y-56310200D01*
X95503788Y-56434682D01*
X95540098Y-56554380D01*
X95543209Y-56560200D01*
X95540098Y-56566020D01*
X95503788Y-56685718D01*
X95491528Y-56810200D01*
X95494600Y-57274450D01*
X95653350Y-57433200D01*
X97002600Y-57433200D01*
X97002600Y-57413200D01*
X97256600Y-57413200D01*
X97256600Y-57433200D01*
X97276600Y-57433200D01*
X97276600Y-57687200D01*
X97256600Y-57687200D01*
X97256600Y-57707200D01*
X97002600Y-57707200D01*
X97002600Y-57687200D01*
X95653350Y-57687200D01*
X95494600Y-57845950D01*
X95491528Y-58310200D01*
X95503788Y-58434682D01*
X95540098Y-58554380D01*
X95543209Y-58560200D01*
X95540098Y-58566020D01*
X95504412Y-58683661D01*
X95460310Y-58688005D01*
X95293487Y-58738611D01*
X95159552Y-58810200D01*
X95139741Y-58820789D01*
X95038753Y-58903668D01*
X95038751Y-58903670D01*
X95004983Y-58931383D01*
X94977270Y-58965151D01*
X93943751Y-59998671D01*
X93909984Y-60026383D01*
X93882271Y-60060151D01*
X93882268Y-60060154D01*
X93799390Y-60161141D01*
X93717212Y-60314887D01*
X93666605Y-60481710D01*
X93649519Y-60655200D01*
X92660000Y-60655200D01*
X92660000Y-50660000D01*
X105613950Y-50660000D01*
X105760550Y-50806600D01*
G37*
X105760550Y-50806600D02*
X106984800Y-50806600D01*
X106984800Y-50786600D01*
X107238800Y-50786600D01*
X107238800Y-50806600D01*
X108463050Y-50806600D01*
X108609650Y-50660000D01*
X133340000Y-50660000D01*
X133340001Y-87340000D01*
X92660000Y-87340000D01*
X92660000Y-60655200D01*
X93649519Y-60655200D01*
X93653801Y-60698679D01*
X93653800Y-70390731D01*
X93649519Y-70434200D01*
X93653800Y-70477669D01*
X93653800Y-70477676D01*
X93661731Y-70558198D01*
X93666605Y-70607690D01*
X93672338Y-70626589D01*
X93717211Y-70774512D01*
X93799389Y-70928258D01*
X93909983Y-71063017D01*
X93943756Y-71090734D01*
X94578753Y-71725732D01*
X94679741Y-71808611D01*
X94749972Y-71846150D01*
X98200270Y-75296449D01*
X98227983Y-75330217D01*
X98261751Y-75357930D01*
X98261753Y-75357932D01*
X98362741Y-75440811D01*
X98432972Y-75478350D01*
X107357869Y-84403248D01*
X107385582Y-84437016D01*
X107419350Y-84464729D01*
X107419352Y-84464731D01*
X107520340Y-84547610D01*
X107674085Y-84629788D01*
X107809282Y-84670800D01*
X107840909Y-84680394D01*
X107931000Y-84689267D01*
X107931000Y-84760139D01*
X107970774Y-84960098D01*
X108048795Y-85148456D01*
X108162063Y-85317974D01*
X108306226Y-85462137D01*
X108475744Y-85575405D01*
X108664102Y-85653426D01*
X108864061Y-85693200D01*
X108926199Y-85693200D01*
X110251202Y-87018204D01*
X110275000Y-87047202D01*
X110390725Y-87142175D01*
X110522754Y-87212747D01*
X110666015Y-87256204D01*
X110777668Y-87267201D01*
X110777677Y-87267201D01*
X110815000Y-87270877D01*
X110852323Y-87267201D01*
X128898277Y-87267201D01*
X128935599Y-87270877D01*
X128972921Y-87267201D01*
X128972932Y-87267201D01*
X129084585Y-87256204D01*
X129227846Y-87212747D01*
X129359875Y-87142175D01*
X129475600Y-87047202D01*
X129499403Y-87018198D01*
X130906305Y-85611297D01*
X130935303Y-85587499D01*
X131030276Y-85471774D01*
X131097168Y-85346630D01*
X131098713Y-85345990D01*
X131341934Y-85183475D01*
X131548777Y-84976632D01*
X131711292Y-84733411D01*
X131823234Y-84463158D01*
X131880302Y-84176260D01*
X131880302Y-83883740D01*
X131823234Y-83596842D01*
X131711292Y-83326589D01*
X131548777Y-83083368D01*
X131341934Y-82876525D01*
X131167542Y-82760000D01*
X131341934Y-82643475D01*
X131548777Y-82436632D01*
X131711292Y-82193411D01*
X131823234Y-81923158D01*
X131880302Y-81636260D01*
X131880302Y-81343740D01*
X131823234Y-81056842D01*
X131711292Y-80786589D01*
X131548777Y-80543368D01*
X131341934Y-80336525D01*
X131167542Y-80220000D01*
X131341934Y-80103475D01*
X131548777Y-79896632D01*
X131711292Y-79653411D01*
X131823234Y-79383158D01*
X131880302Y-79096260D01*
X131880302Y-78803740D01*
X131823234Y-78516842D01*
X131711292Y-78246589D01*
X131548777Y-78003368D01*
X131341934Y-77796525D01*
X131159768Y-77674805D01*
X131276657Y-77605178D01*
X131492890Y-77410269D01*
X131666943Y-77176920D01*
X131792127Y-76914099D01*
X131836778Y-76766890D01*
X131715457Y-76537000D01*
X130522302Y-76537000D01*
X130522302Y-76557000D01*
X130268302Y-76557000D01*
X130268302Y-76537000D01*
X130248302Y-76537000D01*
X130248302Y-76283000D01*
X130268302Y-76283000D01*
X130268302Y-76263000D01*
X130522302Y-76263000D01*
X130522302Y-76283000D01*
X131715457Y-76283000D01*
X131836778Y-76053110D01*
X131792127Y-75905901D01*
X131666943Y-75643080D01*
X131492890Y-75409731D01*
X131276657Y-75214822D01*
X131159768Y-75145195D01*
X131341934Y-75023475D01*
X131548777Y-74816632D01*
X131711292Y-74573411D01*
X131823234Y-74303158D01*
X131880302Y-74016260D01*
X131880302Y-73723740D01*
X131823234Y-73436842D01*
X131711292Y-73166589D01*
X131548777Y-72923368D01*
X131341934Y-72716525D01*
X131167542Y-72600000D01*
X131341934Y-72483475D01*
X131548777Y-72276632D01*
X131711292Y-72033411D01*
X131823234Y-71763158D01*
X131880302Y-71476260D01*
X131880302Y-71183740D01*
X131823234Y-70896842D01*
X131711292Y-70626589D01*
X131548777Y-70383368D01*
X131341934Y-70176525D01*
X131167542Y-70060000D01*
X131341934Y-69943475D01*
X131548777Y-69736632D01*
X131711292Y-69493411D01*
X131823234Y-69223158D01*
X131880302Y-68936260D01*
X131880302Y-68643740D01*
X131823234Y-68356842D01*
X131711292Y-68086589D01*
X131548777Y-67843368D01*
X131341934Y-67636525D01*
X131167542Y-67520000D01*
X131341934Y-67403475D01*
X131548777Y-67196632D01*
X131711292Y-66953411D01*
X131823234Y-66683158D01*
X131880302Y-66396260D01*
X131880302Y-66103740D01*
X131823234Y-65816842D01*
X131711292Y-65546589D01*
X131548777Y-65303368D01*
X131341934Y-65096525D01*
X131167542Y-64980000D01*
X131341934Y-64863475D01*
X131548777Y-64656632D01*
X131711292Y-64413411D01*
X131823234Y-64143158D01*
X131880302Y-63856260D01*
X131880302Y-63563740D01*
X131823234Y-63276842D01*
X131711292Y-63006589D01*
X131548777Y-62763368D01*
X131341934Y-62556525D01*
X131167542Y-62440000D01*
X131341934Y-62323475D01*
X131548777Y-62116632D01*
X131711292Y-61873411D01*
X131823234Y-61603158D01*
X131880302Y-61316260D01*
X131880302Y-61023740D01*
X131823234Y-60736842D01*
X131711292Y-60466589D01*
X131548777Y-60223368D01*
X131341934Y-60016525D01*
X131159768Y-59894805D01*
X131276657Y-59825178D01*
X131492890Y-59630269D01*
X131666943Y-59396920D01*
X131792127Y-59134099D01*
X131836778Y-58986890D01*
X131715457Y-58757000D01*
X130522302Y-58757000D01*
X130522302Y-58777000D01*
X130268302Y-58777000D01*
X130268302Y-58757000D01*
X130248302Y-58757000D01*
X130248302Y-58503000D01*
X130268302Y-58503000D01*
X130268302Y-58483000D01*
X130522302Y-58483000D01*
X130522302Y-58503000D01*
X131715457Y-58503000D01*
X131836778Y-58273110D01*
X131792127Y-58125901D01*
X131666943Y-57863080D01*
X131492890Y-57629731D01*
X131276657Y-57434822D01*
X131159768Y-57365195D01*
X131341934Y-57243475D01*
X131548777Y-57036632D01*
X131711292Y-56793411D01*
X131823234Y-56523158D01*
X131880302Y-56236260D01*
X131880302Y-55943740D01*
X131823234Y-55656842D01*
X131711292Y-55386589D01*
X131548777Y-55143368D01*
X131341934Y-54936525D01*
X131167542Y-54820000D01*
X131341934Y-54703475D01*
X131548777Y-54496632D01*
X131711292Y-54253411D01*
X131823234Y-53983158D01*
X131880302Y-53696260D01*
X131880302Y-53403740D01*
X131823234Y-53116842D01*
X131711292Y-52846589D01*
X131548777Y-52603368D01*
X131341934Y-52396525D01*
X131098713Y-52234010D01*
X130828460Y-52122068D01*
X130541562Y-52065000D01*
X130249042Y-52065000D01*
X129962144Y-52122068D01*
X129691891Y-52234010D01*
X129448670Y-52396525D01*
X129316815Y-52528380D01*
X129294804Y-52455820D01*
X129235839Y-52345506D01*
X129156487Y-52248815D01*
X129059796Y-52169463D01*
X128949482Y-52110498D01*
X128829784Y-52074188D01*
X128705302Y-52061928D01*
X127005302Y-52061928D01*
X126880820Y-52074188D01*
X126761122Y-52110498D01*
X126650808Y-52169463D01*
X126554117Y-52248815D01*
X126474765Y-52345506D01*
X126415800Y-52455820D01*
X126379490Y-52575518D01*
X126367230Y-52700000D01*
X126367230Y-54400000D01*
X126379490Y-54524482D01*
X126415800Y-54644180D01*
X126474765Y-54754494D01*
X126554117Y-54851185D01*
X126650808Y-54930537D01*
X126761122Y-54989502D01*
X126833682Y-55011513D01*
X126701827Y-55143368D01*
X126539312Y-55386589D01*
X126427370Y-55656842D01*
X126370302Y-55943740D01*
X126370302Y-56236260D01*
X126427370Y-56523158D01*
X126539312Y-56793411D01*
X126701827Y-57036632D01*
X126908670Y-57243475D01*
X127083062Y-57360000D01*
X126908670Y-57476525D01*
X126701827Y-57683368D01*
X126539312Y-57926589D01*
X126427370Y-58196842D01*
X126370302Y-58483740D01*
X126370302Y-58776260D01*
X126427370Y-59063158D01*
X126539312Y-59333411D01*
X126701827Y-59576632D01*
X126908670Y-59783475D01*
X127083062Y-59900000D01*
X126908670Y-60016525D01*
X126701827Y-60223368D01*
X126577124Y-60410000D01*
X126483402Y-60410000D01*
X126159800Y-60086398D01*
X126159800Y-53859923D01*
X126163476Y-53822600D01*
X126159800Y-53785277D01*
X126159800Y-53785267D01*
X126148803Y-53673614D01*
X126105346Y-53530353D01*
X126034774Y-53398324D01*
X125939801Y-53282599D01*
X125910804Y-53258802D01*
X125074603Y-52422602D01*
X125050801Y-52393599D01*
X124935076Y-52298626D01*
X124803047Y-52228054D01*
X124659786Y-52184597D01*
X124548133Y-52173600D01*
X124548122Y-52173600D01*
X124510800Y-52169924D01*
X124473478Y-52173600D01*
X108427244Y-52173600D01*
X108341294Y-52103063D01*
X108230980Y-52044098D01*
X108111282Y-52007788D01*
X107986800Y-51995528D01*
X106874872Y-51995528D01*
X106874872Y-51819778D01*
X106984800Y-51709850D01*
X106984800Y-51060600D01*
X107238800Y-51060600D01*
X107238800Y-51709850D01*
X107397550Y-51868600D01*
X107986800Y-51871672D01*
X108111282Y-51859412D01*
X108230980Y-51823102D01*
X108341294Y-51764137D01*
X108437985Y-51684785D01*
X108517337Y-51588094D01*
X108576302Y-51477780D01*
X108612612Y-51358082D01*
X108624872Y-51233600D01*
X108621800Y-51219350D01*
X108463050Y-51060600D01*
X107238800Y-51060600D01*
X106984800Y-51060600D01*
X106511853Y-51060600D01*
X106480980Y-51044098D01*
X106361282Y-51007788D01*
X106236800Y-50995528D01*
X104486800Y-50995528D01*
X104362318Y-51007788D01*
X104242620Y-51044098D01*
X104132306Y-51103063D01*
X104035615Y-51182415D01*
X103956263Y-51279106D01*
X103897298Y-51389420D01*
X103860988Y-51509118D01*
X103848728Y-51633600D01*
X103848728Y-52233600D01*
X103860988Y-52358082D01*
X103897298Y-52477780D01*
X103956263Y-52588094D01*
X104035615Y-52684785D01*
X104132306Y-52764137D01*
X104242620Y-52823102D01*
X104362318Y-52859412D01*
X104486800Y-52871672D01*
X104601801Y-52871672D01*
X104601800Y-53666198D01*
X103678153Y-54589846D01*
X103664780Y-54582698D01*
X103545082Y-54546388D01*
X103420600Y-54534128D01*
X100920600Y-54534128D01*
X100796118Y-54546388D01*
X100676420Y-54582698D01*
X100566106Y-54641663D01*
X100469415Y-54721015D01*
X100390063Y-54817706D01*
X100339554Y-54912200D01*
X100194122Y-54912200D01*
X100156799Y-54908524D01*
X100119476Y-54912200D01*
X100119467Y-54912200D01*
X100007814Y-54923197D01*
X99864553Y-54966654D01*
X99732524Y-55037226D01*
X99616799Y-55132199D01*
X99593001Y-55161197D01*
X98767672Y-55986527D01*
X98767672Y-54810200D01*
X98755412Y-54685718D01*
X98719102Y-54566020D01*
X98660137Y-54455706D01*
X98580785Y-54359015D01*
X98484094Y-54279663D01*
X98373780Y-54220698D01*
X98254082Y-54184388D01*
X98129600Y-54172128D01*
X96129600Y-54172128D01*
X96005118Y-54184388D01*
X95885420Y-54220698D01*
X95775106Y-54279663D01*
X95678415Y-54359015D01*
X95599063Y-54455706D01*
X95540098Y-54566020D01*
X95503788Y-54685718D01*
X95491528Y-54810200D01*
X95491528Y-56310200D01*
X95503788Y-56434682D01*
X95540098Y-56554380D01*
X95543209Y-56560200D01*
X95540098Y-56566020D01*
X95503788Y-56685718D01*
X95491528Y-56810200D01*
X95494600Y-57274450D01*
X95653350Y-57433200D01*
X97002600Y-57433200D01*
X97002600Y-57413200D01*
X97256600Y-57413200D01*
X97256600Y-57433200D01*
X97276600Y-57433200D01*
X97276600Y-57687200D01*
X97256600Y-57687200D01*
X97256600Y-57707200D01*
X97002600Y-57707200D01*
X97002600Y-57687200D01*
X95653350Y-57687200D01*
X95494600Y-57845950D01*
X95491528Y-58310200D01*
X95503788Y-58434682D01*
X95540098Y-58554380D01*
X95543209Y-58560200D01*
X95540098Y-58566020D01*
X95504412Y-58683661D01*
X95460310Y-58688005D01*
X95293487Y-58738611D01*
X95159552Y-58810200D01*
X95139741Y-58820789D01*
X95038753Y-58903668D01*
X95038751Y-58903670D01*
X95004983Y-58931383D01*
X94977270Y-58965151D01*
X93943751Y-59998671D01*
X93909984Y-60026383D01*
X93882271Y-60060151D01*
X93882268Y-60060154D01*
X93799390Y-60161141D01*
X93717212Y-60314887D01*
X93666605Y-60481710D01*
X93649519Y-60655200D01*
X92660000Y-60655200D01*
X92660000Y-50660000D01*
X105613950Y-50660000D01*
X105760550Y-50806600D01*
G36*
X121031000Y-85293200D02*
G01*
X121051000Y-85293200D01*
X121051000Y-85547200D01*
X121031000Y-85547200D01*
X121031000Y-85567200D01*
X120777000Y-85567200D01*
X120777000Y-85547200D01*
X120757000Y-85547200D01*
X120757000Y-85293200D01*
X120777000Y-85293200D01*
X120777000Y-85273200D01*
X121031000Y-85273200D01*
X121031000Y-85293200D01*
G37*
X121031000Y-85293200D02*
X121051000Y-85293200D01*
X121051000Y-85547200D01*
X121031000Y-85547200D01*
X121031000Y-85567200D01*
X120777000Y-85567200D01*
X120777000Y-85547200D01*
X120757000Y-85547200D01*
X120757000Y-85293200D01*
X120777000Y-85293200D01*
X120777000Y-85273200D01*
X121031000Y-85273200D01*
X121031000Y-85293200D01*
G36*
X126458477Y-83525901D02*
G01*
X126413826Y-83673110D01*
X126535147Y-83903000D01*
X127728302Y-83903000D01*
X127728302Y-83883000D01*
X127982302Y-83883000D01*
X127982302Y-83903000D01*
X128002302Y-83903000D01*
X128002302Y-84157000D01*
X127982302Y-84157000D01*
X127982302Y-84177000D01*
X127728302Y-84177000D01*
X127728302Y-84157000D01*
X126535147Y-84157000D01*
X126413826Y-84386890D01*
X126458477Y-84534099D01*
X126583661Y-84796920D01*
X126614302Y-84838000D01*
X123505605Y-84838000D01*
X122281405Y-83613802D01*
X122257603Y-83584799D01*
X122170359Y-83513200D01*
X126464527Y-83513200D01*
X126458477Y-83525901D01*
G37*
X126458477Y-83525901D02*
X126413826Y-83673110D01*
X126535147Y-83903000D01*
X127728302Y-83903000D01*
X127728302Y-83883000D01*
X127982302Y-83883000D01*
X127982302Y-83903000D01*
X128002302Y-83903000D01*
X128002302Y-84157000D01*
X127982302Y-84157000D01*
X127982302Y-84177000D01*
X127728302Y-84177000D01*
X127728302Y-84157000D01*
X126535147Y-84157000D01*
X126413826Y-84386890D01*
X126458477Y-84534099D01*
X126583661Y-84796920D01*
X126614302Y-84838000D01*
X123505605Y-84838000D01*
X122281405Y-83613802D01*
X122257603Y-83584799D01*
X122170359Y-83513200D01*
X126464527Y-83513200D01*
X126458477Y-83525901D01*
G36*
X111503788Y-58434682D02*
G01*
X111540098Y-58554380D01*
X111543209Y-58560200D01*
X111540098Y-58566020D01*
X111503788Y-58685718D01*
X111492513Y-58800200D01*
X111393723Y-58800200D01*
X111356400Y-58796524D01*
X111319077Y-58800200D01*
X111319067Y-58800200D01*
X111207414Y-58811197D01*
X111064153Y-58854654D01*
X110932124Y-58925226D01*
X110816399Y-59020199D01*
X110792601Y-59049197D01*
X109750398Y-60091401D01*
X109721400Y-60115199D01*
X109697602Y-60144197D01*
X109697601Y-60144198D01*
X109626426Y-60230924D01*
X109555854Y-60362954D01*
X109512398Y-60506215D01*
X109497724Y-60655200D01*
X109501401Y-60692532D01*
X109501400Y-61729489D01*
X109457463Y-61773426D01*
X109344195Y-61942944D01*
X109266174Y-62131302D01*
X109226400Y-62331261D01*
X109226400Y-62535139D01*
X109266174Y-62735098D01*
X109344195Y-62923456D01*
X109457463Y-63092974D01*
X109525544Y-63161055D01*
X108962998Y-63723601D01*
X108934000Y-63747399D01*
X108910202Y-63776397D01*
X108910201Y-63776398D01*
X108839026Y-63863124D01*
X108768454Y-63995154D01*
X108746694Y-64066890D01*
X108724998Y-64138414D01*
X108721670Y-64172200D01*
X108710324Y-64287400D01*
X108714001Y-64324732D01*
X108714000Y-73419478D01*
X108710324Y-73456800D01*
X108714000Y-73494122D01*
X108714000Y-73494132D01*
X108724997Y-73605785D01*
X108749140Y-73685374D01*
X108768454Y-73749046D01*
X108839026Y-73881076D01*
X108862250Y-73909374D01*
X108933999Y-73996801D01*
X108963003Y-74020604D01*
X117063601Y-82121203D01*
X117087399Y-82150201D01*
X117141788Y-82194837D01*
X117125995Y-82218473D01*
X117020686Y-82472710D01*
X116967000Y-82742608D01*
X116967000Y-83017792D01*
X117020686Y-83287690D01*
X117125995Y-83541927D01*
X117278880Y-83770735D01*
X117473465Y-83965320D01*
X117702273Y-84118205D01*
X117779515Y-84150200D01*
X117702273Y-84182195D01*
X117473465Y-84335080D01*
X117278880Y-84529665D01*
X117275182Y-84535200D01*
X115255472Y-84535200D01*
X115255472Y-83070800D01*
X115243212Y-82946318D01*
X115206902Y-82826620D01*
X115147937Y-82716306D01*
X115068585Y-82619615D01*
X114971894Y-82540263D01*
X114861580Y-82481298D01*
X114741882Y-82444988D01*
X114617400Y-82432728D01*
X114610185Y-82432728D01*
X114630497Y-82363502D01*
X113817400Y-81550405D01*
X113004303Y-82363502D01*
X113024615Y-82432728D01*
X113017400Y-82432728D01*
X112892918Y-82444988D01*
X112773220Y-82481298D01*
X112662906Y-82540263D01*
X112566215Y-82619615D01*
X112486863Y-82716306D01*
X112427898Y-82826620D01*
X112398601Y-82923199D01*
X110001000Y-82923199D01*
X110001000Y-82854461D01*
X109961226Y-82654502D01*
X109883205Y-82466144D01*
X109769937Y-82296626D01*
X109625774Y-82152463D01*
X109456256Y-82039195D01*
X109267898Y-81961174D01*
X109067939Y-81921400D01*
X109005802Y-81921400D01*
X108557600Y-81473199D01*
X108557600Y-81441312D01*
X112377183Y-81441312D01*
X112418613Y-81720930D01*
X112513797Y-81987092D01*
X112580729Y-82112314D01*
X112824698Y-82183897D01*
X113637795Y-81370800D01*
X113997005Y-81370800D01*
X114810102Y-82183897D01*
X115054071Y-82112314D01*
X115174971Y-81856804D01*
X115243700Y-81582616D01*
X115257617Y-81300288D01*
X115216187Y-81020670D01*
X115121003Y-80754508D01*
X115054071Y-80629286D01*
X114810102Y-80557703D01*
X113997005Y-81370800D01*
X113637795Y-81370800D01*
X112824698Y-80557703D01*
X112580729Y-80629286D01*
X112459829Y-80884796D01*
X112391100Y-81158984D01*
X112377183Y-81441312D01*
X108557600Y-81441312D01*
X108557600Y-80378098D01*
X113004303Y-80378098D01*
X113817400Y-81191195D01*
X114630497Y-80378098D01*
X114558914Y-80134129D01*
X114303404Y-80013229D01*
X114029216Y-79944500D01*
X113746888Y-79930583D01*
X113467270Y-79972013D01*
X113201108Y-80067197D01*
X113075886Y-80134129D01*
X113004303Y-80378098D01*
X108557600Y-80378098D01*
X108557600Y-60690601D01*
X110928002Y-58320200D01*
X111492513Y-58320200D01*
X111503788Y-58434682D01*
G37*
X111503788Y-58434682D02*
X111540098Y-58554380D01*
X111543209Y-58560200D01*
X111540098Y-58566020D01*
X111503788Y-58685718D01*
X111492513Y-58800200D01*
X111393723Y-58800200D01*
X111356400Y-58796524D01*
X111319077Y-58800200D01*
X111319067Y-58800200D01*
X111207414Y-58811197D01*
X111064153Y-58854654D01*
X110932124Y-58925226D01*
X110816399Y-59020199D01*
X110792601Y-59049197D01*
X109750398Y-60091401D01*
X109721400Y-60115199D01*
X109697602Y-60144197D01*
X109697601Y-60144198D01*
X109626426Y-60230924D01*
X109555854Y-60362954D01*
X109512398Y-60506215D01*
X109497724Y-60655200D01*
X109501401Y-60692532D01*
X109501400Y-61729489D01*
X109457463Y-61773426D01*
X109344195Y-61942944D01*
X109266174Y-62131302D01*
X109226400Y-62331261D01*
X109226400Y-62535139D01*
X109266174Y-62735098D01*
X109344195Y-62923456D01*
X109457463Y-63092974D01*
X109525544Y-63161055D01*
X108962998Y-63723601D01*
X108934000Y-63747399D01*
X108910202Y-63776397D01*
X108910201Y-63776398D01*
X108839026Y-63863124D01*
X108768454Y-63995154D01*
X108746694Y-64066890D01*
X108724998Y-64138414D01*
X108721670Y-64172200D01*
X108710324Y-64287400D01*
X108714001Y-64324732D01*
X108714000Y-73419478D01*
X108710324Y-73456800D01*
X108714000Y-73494122D01*
X108714000Y-73494132D01*
X108724997Y-73605785D01*
X108749140Y-73685374D01*
X108768454Y-73749046D01*
X108839026Y-73881076D01*
X108862250Y-73909374D01*
X108933999Y-73996801D01*
X108963003Y-74020604D01*
X117063601Y-82121203D01*
X117087399Y-82150201D01*
X117141788Y-82194837D01*
X117125995Y-82218473D01*
X117020686Y-82472710D01*
X116967000Y-82742608D01*
X116967000Y-83017792D01*
X117020686Y-83287690D01*
X117125995Y-83541927D01*
X117278880Y-83770735D01*
X117473465Y-83965320D01*
X117702273Y-84118205D01*
X117779515Y-84150200D01*
X117702273Y-84182195D01*
X117473465Y-84335080D01*
X117278880Y-84529665D01*
X117275182Y-84535200D01*
X115255472Y-84535200D01*
X115255472Y-83070800D01*
X115243212Y-82946318D01*
X115206902Y-82826620D01*
X115147937Y-82716306D01*
X115068585Y-82619615D01*
X114971894Y-82540263D01*
X114861580Y-82481298D01*
X114741882Y-82444988D01*
X114617400Y-82432728D01*
X114610185Y-82432728D01*
X114630497Y-82363502D01*
X113817400Y-81550405D01*
X113004303Y-82363502D01*
X113024615Y-82432728D01*
X113017400Y-82432728D01*
X112892918Y-82444988D01*
X112773220Y-82481298D01*
X112662906Y-82540263D01*
X112566215Y-82619615D01*
X112486863Y-82716306D01*
X112427898Y-82826620D01*
X112398601Y-82923199D01*
X110001000Y-82923199D01*
X110001000Y-82854461D01*
X109961226Y-82654502D01*
X109883205Y-82466144D01*
X109769937Y-82296626D01*
X109625774Y-82152463D01*
X109456256Y-82039195D01*
X109267898Y-81961174D01*
X109067939Y-81921400D01*
X109005802Y-81921400D01*
X108557600Y-81473199D01*
X108557600Y-81441312D01*
X112377183Y-81441312D01*
X112418613Y-81720930D01*
X112513797Y-81987092D01*
X112580729Y-82112314D01*
X112824698Y-82183897D01*
X113637795Y-81370800D01*
X113997005Y-81370800D01*
X114810102Y-82183897D01*
X115054071Y-82112314D01*
X115174971Y-81856804D01*
X115243700Y-81582616D01*
X115257617Y-81300288D01*
X115216187Y-81020670D01*
X115121003Y-80754508D01*
X115054071Y-80629286D01*
X114810102Y-80557703D01*
X113997005Y-81370800D01*
X113637795Y-81370800D01*
X112824698Y-80557703D01*
X112580729Y-80629286D01*
X112459829Y-80884796D01*
X112391100Y-81158984D01*
X112377183Y-81441312D01*
X108557600Y-81441312D01*
X108557600Y-80378098D01*
X113004303Y-80378098D01*
X113817400Y-81191195D01*
X114630497Y-80378098D01*
X114558914Y-80134129D01*
X114303404Y-80013229D01*
X114029216Y-79944500D01*
X113746888Y-79930583D01*
X113467270Y-79972013D01*
X113201108Y-80067197D01*
X113075886Y-80134129D01*
X113004303Y-80378098D01*
X108557600Y-80378098D01*
X108557600Y-60690601D01*
X110928002Y-58320200D01*
X111492513Y-58320200D01*
X111503788Y-58434682D01*
G36*
X111599063Y-54455706D02*
G01*
X111540098Y-54566020D01*
X111503788Y-54685718D01*
X111491528Y-54810200D01*
X111494600Y-55274450D01*
X111653350Y-55433200D01*
X113002600Y-55433200D01*
X113002600Y-55413200D01*
X113256600Y-55413200D01*
X113256600Y-55433200D01*
X114605850Y-55433200D01*
X114764600Y-55274450D01*
X114765276Y-55172200D01*
X118482528Y-55172200D01*
X118485600Y-55386450D01*
X118644350Y-55545200D01*
X120243600Y-55545200D01*
X120243600Y-54695950D01*
X120497600Y-54695950D01*
X120497600Y-55545200D01*
X122096850Y-55545200D01*
X122255600Y-55386450D01*
X122258672Y-55172200D01*
X122246412Y-55047718D01*
X122210102Y-54928020D01*
X122151137Y-54817706D01*
X122071785Y-54721015D01*
X121975094Y-54641663D01*
X121864780Y-54582698D01*
X121745082Y-54546388D01*
X121620600Y-54534128D01*
X120656350Y-54537200D01*
X120497600Y-54695950D01*
X120243600Y-54695950D01*
X120084850Y-54537200D01*
X119120600Y-54534128D01*
X118996118Y-54546388D01*
X118876420Y-54582698D01*
X118766106Y-54641663D01*
X118669415Y-54721015D01*
X118590063Y-54817706D01*
X118531098Y-54928020D01*
X118494788Y-55047718D01*
X118482528Y-55172200D01*
X114765276Y-55172200D01*
X114767672Y-54810200D01*
X114755412Y-54685718D01*
X114719102Y-54566020D01*
X114660137Y-54455706D01*
X114639205Y-54430200D01*
X123484799Y-54430200D01*
X123649201Y-54594603D01*
X123649200Y-61639143D01*
X123628401Y-61613799D01*
X123599398Y-61589997D01*
X123170604Y-61161203D01*
X123146801Y-61132199D01*
X123031076Y-61037226D01*
X122899047Y-60966654D01*
X122755786Y-60923197D01*
X122644133Y-60912200D01*
X122644122Y-60912200D01*
X122606800Y-60908524D01*
X122569478Y-60912200D01*
X122201646Y-60912200D01*
X122151137Y-60817706D01*
X122071785Y-60721015D01*
X122012304Y-60672200D01*
X122071785Y-60623385D01*
X122151137Y-60526694D01*
X122210102Y-60416380D01*
X122246412Y-60296682D01*
X122258672Y-60172200D01*
X122258672Y-59172200D01*
X122246412Y-59047718D01*
X122210102Y-58928020D01*
X122151137Y-58817706D01*
X122071785Y-58721015D01*
X122012304Y-58672200D01*
X122071785Y-58623385D01*
X122151137Y-58526694D01*
X122210102Y-58416380D01*
X122246412Y-58296682D01*
X122258672Y-58172200D01*
X122258672Y-57172200D01*
X122246412Y-57047718D01*
X122210102Y-56928020D01*
X122151137Y-56817706D01*
X122071785Y-56721015D01*
X122012304Y-56672200D01*
X122071785Y-56623385D01*
X122151137Y-56526694D01*
X122210102Y-56416380D01*
X122246412Y-56296682D01*
X122258672Y-56172200D01*
X122255600Y-55957950D01*
X122096850Y-55799200D01*
X120497600Y-55799200D01*
X120497600Y-55819200D01*
X120243600Y-55819200D01*
X120243600Y-55799200D01*
X118644350Y-55799200D01*
X118485600Y-55957950D01*
X118482528Y-56172200D01*
X118494788Y-56296682D01*
X118531098Y-56416380D01*
X118590063Y-56526694D01*
X118669415Y-56623385D01*
X118728896Y-56672200D01*
X118669415Y-56721015D01*
X118590063Y-56817706D01*
X118539554Y-56912200D01*
X114767672Y-56912200D01*
X114767672Y-56810200D01*
X114755412Y-56685718D01*
X114719102Y-56566020D01*
X114715991Y-56560200D01*
X114719102Y-56554380D01*
X114755412Y-56434682D01*
X114767672Y-56310200D01*
X114764600Y-55845950D01*
X114605850Y-55687200D01*
X113256600Y-55687200D01*
X113256600Y-55707200D01*
X113002600Y-55707200D01*
X113002600Y-55687200D01*
X111653350Y-55687200D01*
X111494600Y-55845950D01*
X111491528Y-56310200D01*
X111503788Y-56434682D01*
X111540098Y-56554380D01*
X111543209Y-56560200D01*
X111540098Y-56566020D01*
X111503788Y-56685718D01*
X111492513Y-56800200D01*
X110650525Y-56800200D01*
X110613200Y-56796524D01*
X110575875Y-56800200D01*
X110575867Y-56800200D01*
X110464214Y-56811197D01*
X110320953Y-56854654D01*
X110188924Y-56925226D01*
X110073199Y-57020199D01*
X110049401Y-57049197D01*
X107286598Y-59812001D01*
X107257600Y-59835799D01*
X107233802Y-59864797D01*
X107233801Y-59864798D01*
X107162626Y-59951524D01*
X107092054Y-60083554D01*
X107065165Y-60172200D01*
X107048598Y-60226814D01*
X107039400Y-60320200D01*
X107033924Y-60375800D01*
X107037601Y-60413133D01*
X107037600Y-81579821D01*
X99792600Y-74334822D01*
X99792600Y-71765978D01*
X100768841Y-70789738D01*
X100796118Y-70798012D01*
X100920600Y-70810272D01*
X103420600Y-70810272D01*
X103545082Y-70798012D01*
X103664780Y-70761702D01*
X103775094Y-70702737D01*
X103871785Y-70623385D01*
X103951137Y-70526694D01*
X104010102Y-70416380D01*
X104046412Y-70296682D01*
X104058672Y-70172200D01*
X104058672Y-69172200D01*
X104046412Y-69047718D01*
X104010102Y-68928020D01*
X103951137Y-68817706D01*
X103871785Y-68721015D01*
X103812304Y-68672200D01*
X103871785Y-68623385D01*
X103951137Y-68526694D01*
X104010102Y-68416380D01*
X104046412Y-68296682D01*
X104058672Y-68172200D01*
X104058672Y-67172200D01*
X104046412Y-67047718D01*
X104010102Y-66928020D01*
X103951137Y-66817706D01*
X103871785Y-66721015D01*
X103812304Y-66672200D01*
X103871785Y-66623385D01*
X103951137Y-66526694D01*
X104010102Y-66416380D01*
X104046412Y-66296682D01*
X104058672Y-66172200D01*
X104058672Y-65172200D01*
X104046412Y-65047718D01*
X104010102Y-64928020D01*
X103951137Y-64817706D01*
X103871785Y-64721015D01*
X103812304Y-64672200D01*
X103871785Y-64623385D01*
X103951137Y-64526694D01*
X104010102Y-64416380D01*
X104046412Y-64296682D01*
X104058672Y-64172200D01*
X104058672Y-63172200D01*
X104046412Y-63047718D01*
X104010102Y-62928020D01*
X103951137Y-62817706D01*
X103871785Y-62721015D01*
X103812304Y-62672200D01*
X103871785Y-62623385D01*
X103951137Y-62526694D01*
X104010102Y-62416380D01*
X104046412Y-62296682D01*
X104058672Y-62172200D01*
X104058672Y-61172200D01*
X104046412Y-61047718D01*
X104010102Y-60928020D01*
X103951137Y-60817706D01*
X103871785Y-60721015D01*
X103812304Y-60672200D01*
X103871785Y-60623385D01*
X103951137Y-60526694D01*
X104010102Y-60416380D01*
X104046412Y-60296682D01*
X104058672Y-60172200D01*
X104058672Y-59172200D01*
X104046412Y-59047718D01*
X104010102Y-58928020D01*
X103951137Y-58817706D01*
X103871785Y-58721015D01*
X103812304Y-58672200D01*
X103871785Y-58623385D01*
X103951137Y-58526694D01*
X104001646Y-58432200D01*
X106171278Y-58432200D01*
X106208600Y-58435876D01*
X106245922Y-58432200D01*
X106245933Y-58432200D01*
X106357586Y-58421203D01*
X106500847Y-58377746D01*
X106632876Y-58307174D01*
X106748601Y-58212201D01*
X106772404Y-58183197D01*
X110525402Y-54430200D01*
X111619995Y-54430200D01*
X111599063Y-54455706D01*
G37*
X111599063Y-54455706D02*
X111540098Y-54566020D01*
X111503788Y-54685718D01*
X111491528Y-54810200D01*
X111494600Y-55274450D01*
X111653350Y-55433200D01*
X113002600Y-55433200D01*
X113002600Y-55413200D01*
X113256600Y-55413200D01*
X113256600Y-55433200D01*
X114605850Y-55433200D01*
X114764600Y-55274450D01*
X114765276Y-55172200D01*
X118482528Y-55172200D01*
X118485600Y-55386450D01*
X118644350Y-55545200D01*
X120243600Y-55545200D01*
X120243600Y-54695950D01*
X120497600Y-54695950D01*
X120497600Y-55545200D01*
X122096850Y-55545200D01*
X122255600Y-55386450D01*
X122258672Y-55172200D01*
X122246412Y-55047718D01*
X122210102Y-54928020D01*
X122151137Y-54817706D01*
X122071785Y-54721015D01*
X121975094Y-54641663D01*
X121864780Y-54582698D01*
X121745082Y-54546388D01*
X121620600Y-54534128D01*
X120656350Y-54537200D01*
X120497600Y-54695950D01*
X120243600Y-54695950D01*
X120084850Y-54537200D01*
X119120600Y-54534128D01*
X118996118Y-54546388D01*
X118876420Y-54582698D01*
X118766106Y-54641663D01*
X118669415Y-54721015D01*
X118590063Y-54817706D01*
X118531098Y-54928020D01*
X118494788Y-55047718D01*
X118482528Y-55172200D01*
X114765276Y-55172200D01*
X114767672Y-54810200D01*
X114755412Y-54685718D01*
X114719102Y-54566020D01*
X114660137Y-54455706D01*
X114639205Y-54430200D01*
X123484799Y-54430200D01*
X123649201Y-54594603D01*
X123649200Y-61639143D01*
X123628401Y-61613799D01*
X123599398Y-61589997D01*
X123170604Y-61161203D01*
X123146801Y-61132199D01*
X123031076Y-61037226D01*
X122899047Y-60966654D01*
X122755786Y-60923197D01*
X122644133Y-60912200D01*
X122644122Y-60912200D01*
X122606800Y-60908524D01*
X122569478Y-60912200D01*
X122201646Y-60912200D01*
X122151137Y-60817706D01*
X122071785Y-60721015D01*
X122012304Y-60672200D01*
X122071785Y-60623385D01*
X122151137Y-60526694D01*
X122210102Y-60416380D01*
X122246412Y-60296682D01*
X122258672Y-60172200D01*
X122258672Y-59172200D01*
X122246412Y-59047718D01*
X122210102Y-58928020D01*
X122151137Y-58817706D01*
X122071785Y-58721015D01*
X122012304Y-58672200D01*
X122071785Y-58623385D01*
X122151137Y-58526694D01*
X122210102Y-58416380D01*
X122246412Y-58296682D01*
X122258672Y-58172200D01*
X122258672Y-57172200D01*
X122246412Y-57047718D01*
X122210102Y-56928020D01*
X122151137Y-56817706D01*
X122071785Y-56721015D01*
X122012304Y-56672200D01*
X122071785Y-56623385D01*
X122151137Y-56526694D01*
X122210102Y-56416380D01*
X122246412Y-56296682D01*
X122258672Y-56172200D01*
X122255600Y-55957950D01*
X122096850Y-55799200D01*
X120497600Y-55799200D01*
X120497600Y-55819200D01*
X120243600Y-55819200D01*
X120243600Y-55799200D01*
X118644350Y-55799200D01*
X118485600Y-55957950D01*
X118482528Y-56172200D01*
X118494788Y-56296682D01*
X118531098Y-56416380D01*
X118590063Y-56526694D01*
X118669415Y-56623385D01*
X118728896Y-56672200D01*
X118669415Y-56721015D01*
X118590063Y-56817706D01*
X118539554Y-56912200D01*
X114767672Y-56912200D01*
X114767672Y-56810200D01*
X114755412Y-56685718D01*
X114719102Y-56566020D01*
X114715991Y-56560200D01*
X114719102Y-56554380D01*
X114755412Y-56434682D01*
X114767672Y-56310200D01*
X114764600Y-55845950D01*
X114605850Y-55687200D01*
X113256600Y-55687200D01*
X113256600Y-55707200D01*
X113002600Y-55707200D01*
X113002600Y-55687200D01*
X111653350Y-55687200D01*
X111494600Y-55845950D01*
X111491528Y-56310200D01*
X111503788Y-56434682D01*
X111540098Y-56554380D01*
X111543209Y-56560200D01*
X111540098Y-56566020D01*
X111503788Y-56685718D01*
X111492513Y-56800200D01*
X110650525Y-56800200D01*
X110613200Y-56796524D01*
X110575875Y-56800200D01*
X110575867Y-56800200D01*
X110464214Y-56811197D01*
X110320953Y-56854654D01*
X110188924Y-56925226D01*
X110073199Y-57020199D01*
X110049401Y-57049197D01*
X107286598Y-59812001D01*
X107257600Y-59835799D01*
X107233802Y-59864797D01*
X107233801Y-59864798D01*
X107162626Y-59951524D01*
X107092054Y-60083554D01*
X107065165Y-60172200D01*
X107048598Y-60226814D01*
X107039400Y-60320200D01*
X107033924Y-60375800D01*
X107037601Y-60413133D01*
X107037600Y-81579821D01*
X99792600Y-74334822D01*
X99792600Y-71765978D01*
X100768841Y-70789738D01*
X100796118Y-70798012D01*
X100920600Y-70810272D01*
X103420600Y-70810272D01*
X103545082Y-70798012D01*
X103664780Y-70761702D01*
X103775094Y-70702737D01*
X103871785Y-70623385D01*
X103951137Y-70526694D01*
X104010102Y-70416380D01*
X104046412Y-70296682D01*
X104058672Y-70172200D01*
X104058672Y-69172200D01*
X104046412Y-69047718D01*
X104010102Y-68928020D01*
X103951137Y-68817706D01*
X103871785Y-68721015D01*
X103812304Y-68672200D01*
X103871785Y-68623385D01*
X103951137Y-68526694D01*
X104010102Y-68416380D01*
X104046412Y-68296682D01*
X104058672Y-68172200D01*
X104058672Y-67172200D01*
X104046412Y-67047718D01*
X104010102Y-66928020D01*
X103951137Y-66817706D01*
X103871785Y-66721015D01*
X103812304Y-66672200D01*
X103871785Y-66623385D01*
X103951137Y-66526694D01*
X104010102Y-66416380D01*
X104046412Y-66296682D01*
X104058672Y-66172200D01*
X104058672Y-65172200D01*
X104046412Y-65047718D01*
X104010102Y-64928020D01*
X103951137Y-64817706D01*
X103871785Y-64721015D01*
X103812304Y-64672200D01*
X103871785Y-64623385D01*
X103951137Y-64526694D01*
X104010102Y-64416380D01*
X104046412Y-64296682D01*
X104058672Y-64172200D01*
X104058672Y-63172200D01*
X104046412Y-63047718D01*
X104010102Y-62928020D01*
X103951137Y-62817706D01*
X103871785Y-62721015D01*
X103812304Y-62672200D01*
X103871785Y-62623385D01*
X103951137Y-62526694D01*
X104010102Y-62416380D01*
X104046412Y-62296682D01*
X104058672Y-62172200D01*
X104058672Y-61172200D01*
X104046412Y-61047718D01*
X104010102Y-60928020D01*
X103951137Y-60817706D01*
X103871785Y-60721015D01*
X103812304Y-60672200D01*
X103871785Y-60623385D01*
X103951137Y-60526694D01*
X104010102Y-60416380D01*
X104046412Y-60296682D01*
X104058672Y-60172200D01*
X104058672Y-59172200D01*
X104046412Y-59047718D01*
X104010102Y-58928020D01*
X103951137Y-58817706D01*
X103871785Y-58721015D01*
X103812304Y-58672200D01*
X103871785Y-58623385D01*
X103951137Y-58526694D01*
X104001646Y-58432200D01*
X106171278Y-58432200D01*
X106208600Y-58435876D01*
X106245922Y-58432200D01*
X106245933Y-58432200D01*
X106357586Y-58421203D01*
X106500847Y-58377746D01*
X106632876Y-58307174D01*
X106748601Y-58212201D01*
X106772404Y-58183197D01*
X110525402Y-54430200D01*
X111619995Y-54430200D01*
X111599063Y-54455706D01*
G36*
X122328400Y-62468601D02*
G01*
X122328401Y-74200888D01*
X122284463Y-74244826D01*
X122171195Y-74414344D01*
X122093174Y-74602702D01*
X122053400Y-74802661D01*
X122053400Y-75006539D01*
X122058783Y-75033600D01*
X118934733Y-75033600D01*
X118897400Y-75029923D01*
X118860067Y-75033600D01*
X118748414Y-75044597D01*
X118605153Y-75088054D01*
X118473124Y-75158626D01*
X118357399Y-75253599D01*
X118333600Y-75282598D01*
X117853002Y-75763197D01*
X117823999Y-75786999D01*
X117795435Y-75821805D01*
X117729026Y-75902724D01*
X117689409Y-75976842D01*
X117658454Y-76034754D01*
X117614997Y-76178015D01*
X117604000Y-76289668D01*
X117604000Y-76289678D01*
X117600324Y-76327000D01*
X117604000Y-76364323D01*
X117604000Y-76627859D01*
X117473465Y-76715080D01*
X117278880Y-76909665D01*
X117125995Y-77138473D01*
X117020686Y-77392710D01*
X116967000Y-77662608D01*
X116967000Y-77937792D01*
X117020686Y-78207690D01*
X117125995Y-78461927D01*
X117278880Y-78690735D01*
X117473465Y-78885320D01*
X117702273Y-79038205D01*
X117779515Y-79070200D01*
X117702273Y-79102195D01*
X117513878Y-79228077D01*
X111021400Y-72735599D01*
X111021400Y-70310200D01*
X111491528Y-70310200D01*
X111503788Y-70434682D01*
X111540098Y-70554380D01*
X111599063Y-70664694D01*
X111678415Y-70761385D01*
X111775106Y-70840737D01*
X111885420Y-70899702D01*
X112005118Y-70936012D01*
X112129600Y-70948272D01*
X112843850Y-70945200D01*
X113002600Y-70786450D01*
X113002600Y-69687200D01*
X113256600Y-69687200D01*
X113256600Y-70786450D01*
X113415350Y-70945200D01*
X114129600Y-70948272D01*
X114254082Y-70936012D01*
X114373780Y-70899702D01*
X114484094Y-70840737D01*
X114580785Y-70761385D01*
X114660137Y-70664694D01*
X114719102Y-70554380D01*
X114755412Y-70434682D01*
X114767672Y-70310200D01*
X114766759Y-70172200D01*
X118482528Y-70172200D01*
X118494788Y-70296682D01*
X118531098Y-70416380D01*
X118590063Y-70526694D01*
X118669415Y-70623385D01*
X118766106Y-70702737D01*
X118876420Y-70761702D01*
X118996118Y-70798012D01*
X119120600Y-70810272D01*
X120084850Y-70807200D01*
X120243600Y-70648450D01*
X120243600Y-69799200D01*
X120497600Y-69799200D01*
X120497600Y-70648450D01*
X120656350Y-70807200D01*
X121620600Y-70810272D01*
X121745082Y-70798012D01*
X121864780Y-70761702D01*
X121975094Y-70702737D01*
X122071785Y-70623385D01*
X122151137Y-70526694D01*
X122210102Y-70416380D01*
X122246412Y-70296682D01*
X122258672Y-70172200D01*
X122255600Y-69957950D01*
X122096850Y-69799200D01*
X120497600Y-69799200D01*
X120243600Y-69799200D01*
X118644350Y-69799200D01*
X118485600Y-69957950D01*
X118482528Y-70172200D01*
X114766759Y-70172200D01*
X114764600Y-69845950D01*
X114605850Y-69687200D01*
X113256600Y-69687200D01*
X113002600Y-69687200D01*
X111653350Y-69687200D01*
X111494600Y-69845950D01*
X111491528Y-70310200D01*
X111021400Y-70310200D01*
X111021400Y-65956311D01*
X111065337Y-65912374D01*
X111178605Y-65742856D01*
X111256626Y-65554498D01*
X111296400Y-65354539D01*
X111296400Y-65150661D01*
X111256626Y-64950702D01*
X111178605Y-64762344D01*
X111065337Y-64592826D01*
X110921174Y-64448663D01*
X110751656Y-64335395D01*
X110714972Y-64320200D01*
X111492513Y-64320200D01*
X111503788Y-64434682D01*
X111540098Y-64554380D01*
X111543209Y-64560200D01*
X111540098Y-64566020D01*
X111503788Y-64685718D01*
X111491528Y-64810200D01*
X111491528Y-66310200D01*
X111503788Y-66434682D01*
X111540098Y-66554380D01*
X111543209Y-66560200D01*
X111540098Y-66566020D01*
X111503788Y-66685718D01*
X111491528Y-66810200D01*
X111491528Y-68310200D01*
X111503788Y-68434682D01*
X111540098Y-68554380D01*
X111543209Y-68560200D01*
X111540098Y-68566020D01*
X111503788Y-68685718D01*
X111491528Y-68810200D01*
X111494600Y-69274450D01*
X111653350Y-69433200D01*
X113002600Y-69433200D01*
X113002600Y-69413200D01*
X113256600Y-69413200D01*
X113256600Y-69433200D01*
X114605850Y-69433200D01*
X114764600Y-69274450D01*
X114767672Y-68810200D01*
X114755412Y-68685718D01*
X114719102Y-68566020D01*
X114715991Y-68560200D01*
X114719102Y-68554380D01*
X114755412Y-68434682D01*
X114767672Y-68310200D01*
X114767672Y-66810200D01*
X114755412Y-66685718D01*
X114719102Y-66566020D01*
X114715991Y-66560200D01*
X114719102Y-66554380D01*
X114755412Y-66434682D01*
X114767672Y-66310200D01*
X114767672Y-66172200D01*
X118482528Y-66172200D01*
X118494788Y-66296682D01*
X118531098Y-66416380D01*
X118590063Y-66526694D01*
X118669415Y-66623385D01*
X118728896Y-66672200D01*
X118669415Y-66721015D01*
X118590063Y-66817706D01*
X118531098Y-66928020D01*
X118494788Y-67047718D01*
X118482528Y-67172200D01*
X118482528Y-68172200D01*
X118494788Y-68296682D01*
X118531098Y-68416380D01*
X118590063Y-68526694D01*
X118669415Y-68623385D01*
X118728896Y-68672200D01*
X118669415Y-68721015D01*
X118590063Y-68817706D01*
X118531098Y-68928020D01*
X118494788Y-69047718D01*
X118482528Y-69172200D01*
X118485600Y-69386450D01*
X118644350Y-69545200D01*
X120243600Y-69545200D01*
X120243600Y-69525200D01*
X120497600Y-69525200D01*
X120497600Y-69545200D01*
X122096850Y-69545200D01*
X122255600Y-69386450D01*
X122258672Y-69172200D01*
X122246412Y-69047718D01*
X122210102Y-68928020D01*
X122151137Y-68817706D01*
X122071785Y-68721015D01*
X122012304Y-68672200D01*
X122071785Y-68623385D01*
X122151137Y-68526694D01*
X122210102Y-68416380D01*
X122246412Y-68296682D01*
X122258672Y-68172200D01*
X122258672Y-67172200D01*
X122246412Y-67047718D01*
X122210102Y-66928020D01*
X122151137Y-66817706D01*
X122071785Y-66721015D01*
X122012304Y-66672200D01*
X122071785Y-66623385D01*
X122151137Y-66526694D01*
X122210102Y-66416380D01*
X122246412Y-66296682D01*
X122258672Y-66172200D01*
X122255600Y-65957950D01*
X122096850Y-65799200D01*
X120497600Y-65799200D01*
X120497600Y-65819200D01*
X120243600Y-65819200D01*
X120243600Y-65799200D01*
X118644350Y-65799200D01*
X118485600Y-65957950D01*
X118482528Y-66172200D01*
X114767672Y-66172200D01*
X114767672Y-64810200D01*
X114755412Y-64685718D01*
X114719102Y-64566020D01*
X114715991Y-64560200D01*
X114719102Y-64554380D01*
X114755412Y-64434682D01*
X114766687Y-64320200D01*
X118501922Y-64320200D01*
X118531098Y-64416380D01*
X118590063Y-64526694D01*
X118669415Y-64623385D01*
X118728896Y-64672200D01*
X118669415Y-64721015D01*
X118590063Y-64817706D01*
X118531098Y-64928020D01*
X118494788Y-65047718D01*
X118482528Y-65172200D01*
X118485600Y-65386450D01*
X118644350Y-65545200D01*
X120243600Y-65545200D01*
X120243600Y-65525200D01*
X120497600Y-65525200D01*
X120497600Y-65545200D01*
X122096850Y-65545200D01*
X122255600Y-65386450D01*
X122258672Y-65172200D01*
X122246412Y-65047718D01*
X122210102Y-64928020D01*
X122151137Y-64817706D01*
X122071785Y-64721015D01*
X122012304Y-64672200D01*
X122071785Y-64623385D01*
X122151137Y-64526694D01*
X122210102Y-64416380D01*
X122246412Y-64296682D01*
X122258672Y-64172200D01*
X122258672Y-63172200D01*
X122246412Y-63047718D01*
X122210102Y-62928020D01*
X122151137Y-62817706D01*
X122071785Y-62721015D01*
X122012304Y-62672200D01*
X122071785Y-62623385D01*
X122151137Y-62526694D01*
X122201646Y-62432200D01*
X122291999Y-62432200D01*
X122328400Y-62468601D01*
G37*
X122328400Y-62468601D02*
X122328401Y-74200888D01*
X122284463Y-74244826D01*
X122171195Y-74414344D01*
X122093174Y-74602702D01*
X122053400Y-74802661D01*
X122053400Y-75006539D01*
X122058783Y-75033600D01*
X118934733Y-75033600D01*
X118897400Y-75029923D01*
X118860067Y-75033600D01*
X118748414Y-75044597D01*
X118605153Y-75088054D01*
X118473124Y-75158626D01*
X118357399Y-75253599D01*
X118333600Y-75282598D01*
X117853002Y-75763197D01*
X117823999Y-75786999D01*
X117795435Y-75821805D01*
X117729026Y-75902724D01*
X117689409Y-75976842D01*
X117658454Y-76034754D01*
X117614997Y-76178015D01*
X117604000Y-76289668D01*
X117604000Y-76289678D01*
X117600324Y-76327000D01*
X117604000Y-76364323D01*
X117604000Y-76627859D01*
X117473465Y-76715080D01*
X117278880Y-76909665D01*
X117125995Y-77138473D01*
X117020686Y-77392710D01*
X116967000Y-77662608D01*
X116967000Y-77937792D01*
X117020686Y-78207690D01*
X117125995Y-78461927D01*
X117278880Y-78690735D01*
X117473465Y-78885320D01*
X117702273Y-79038205D01*
X117779515Y-79070200D01*
X117702273Y-79102195D01*
X117513878Y-79228077D01*
X111021400Y-72735599D01*
X111021400Y-70310200D01*
X111491528Y-70310200D01*
X111503788Y-70434682D01*
X111540098Y-70554380D01*
X111599063Y-70664694D01*
X111678415Y-70761385D01*
X111775106Y-70840737D01*
X111885420Y-70899702D01*
X112005118Y-70936012D01*
X112129600Y-70948272D01*
X112843850Y-70945200D01*
X113002600Y-70786450D01*
X113002600Y-69687200D01*
X113256600Y-69687200D01*
X113256600Y-70786450D01*
X113415350Y-70945200D01*
X114129600Y-70948272D01*
X114254082Y-70936012D01*
X114373780Y-70899702D01*
X114484094Y-70840737D01*
X114580785Y-70761385D01*
X114660137Y-70664694D01*
X114719102Y-70554380D01*
X114755412Y-70434682D01*
X114767672Y-70310200D01*
X114766759Y-70172200D01*
X118482528Y-70172200D01*
X118494788Y-70296682D01*
X118531098Y-70416380D01*
X118590063Y-70526694D01*
X118669415Y-70623385D01*
X118766106Y-70702737D01*
X118876420Y-70761702D01*
X118996118Y-70798012D01*
X119120600Y-70810272D01*
X120084850Y-70807200D01*
X120243600Y-70648450D01*
X120243600Y-69799200D01*
X120497600Y-69799200D01*
X120497600Y-70648450D01*
X120656350Y-70807200D01*
X121620600Y-70810272D01*
X121745082Y-70798012D01*
X121864780Y-70761702D01*
X121975094Y-70702737D01*
X122071785Y-70623385D01*
X122151137Y-70526694D01*
X122210102Y-70416380D01*
X122246412Y-70296682D01*
X122258672Y-70172200D01*
X122255600Y-69957950D01*
X122096850Y-69799200D01*
X120497600Y-69799200D01*
X120243600Y-69799200D01*
X118644350Y-69799200D01*
X118485600Y-69957950D01*
X118482528Y-70172200D01*
X114766759Y-70172200D01*
X114764600Y-69845950D01*
X114605850Y-69687200D01*
X113256600Y-69687200D01*
X113002600Y-69687200D01*
X111653350Y-69687200D01*
X111494600Y-69845950D01*
X111491528Y-70310200D01*
X111021400Y-70310200D01*
X111021400Y-65956311D01*
X111065337Y-65912374D01*
X111178605Y-65742856D01*
X111256626Y-65554498D01*
X111296400Y-65354539D01*
X111296400Y-65150661D01*
X111256626Y-64950702D01*
X111178605Y-64762344D01*
X111065337Y-64592826D01*
X110921174Y-64448663D01*
X110751656Y-64335395D01*
X110714972Y-64320200D01*
X111492513Y-64320200D01*
X111503788Y-64434682D01*
X111540098Y-64554380D01*
X111543209Y-64560200D01*
X111540098Y-64566020D01*
X111503788Y-64685718D01*
X111491528Y-64810200D01*
X111491528Y-66310200D01*
X111503788Y-66434682D01*
X111540098Y-66554380D01*
X111543209Y-66560200D01*
X111540098Y-66566020D01*
X111503788Y-66685718D01*
X111491528Y-66810200D01*
X111491528Y-68310200D01*
X111503788Y-68434682D01*
X111540098Y-68554380D01*
X111543209Y-68560200D01*
X111540098Y-68566020D01*
X111503788Y-68685718D01*
X111491528Y-68810200D01*
X111494600Y-69274450D01*
X111653350Y-69433200D01*
X113002600Y-69433200D01*
X113002600Y-69413200D01*
X113256600Y-69413200D01*
X113256600Y-69433200D01*
X114605850Y-69433200D01*
X114764600Y-69274450D01*
X114767672Y-68810200D01*
X114755412Y-68685718D01*
X114719102Y-68566020D01*
X114715991Y-68560200D01*
X114719102Y-68554380D01*
X114755412Y-68434682D01*
X114767672Y-68310200D01*
X114767672Y-66810200D01*
X114755412Y-66685718D01*
X114719102Y-66566020D01*
X114715991Y-66560200D01*
X114719102Y-66554380D01*
X114755412Y-66434682D01*
X114767672Y-66310200D01*
X114767672Y-66172200D01*
X118482528Y-66172200D01*
X118494788Y-66296682D01*
X118531098Y-66416380D01*
X118590063Y-66526694D01*
X118669415Y-66623385D01*
X118728896Y-66672200D01*
X118669415Y-66721015D01*
X118590063Y-66817706D01*
X118531098Y-66928020D01*
X118494788Y-67047718D01*
X118482528Y-67172200D01*
X118482528Y-68172200D01*
X118494788Y-68296682D01*
X118531098Y-68416380D01*
X118590063Y-68526694D01*
X118669415Y-68623385D01*
X118728896Y-68672200D01*
X118669415Y-68721015D01*
X118590063Y-68817706D01*
X118531098Y-68928020D01*
X118494788Y-69047718D01*
X118482528Y-69172200D01*
X118485600Y-69386450D01*
X118644350Y-69545200D01*
X120243600Y-69545200D01*
X120243600Y-69525200D01*
X120497600Y-69525200D01*
X120497600Y-69545200D01*
X122096850Y-69545200D01*
X122255600Y-69386450D01*
X122258672Y-69172200D01*
X122246412Y-69047718D01*
X122210102Y-68928020D01*
X122151137Y-68817706D01*
X122071785Y-68721015D01*
X122012304Y-68672200D01*
X122071785Y-68623385D01*
X122151137Y-68526694D01*
X122210102Y-68416380D01*
X122246412Y-68296682D01*
X122258672Y-68172200D01*
X122258672Y-67172200D01*
X122246412Y-67047718D01*
X122210102Y-66928020D01*
X122151137Y-66817706D01*
X122071785Y-66721015D01*
X122012304Y-66672200D01*
X122071785Y-66623385D01*
X122151137Y-66526694D01*
X122210102Y-66416380D01*
X122246412Y-66296682D01*
X122258672Y-66172200D01*
X122255600Y-65957950D01*
X122096850Y-65799200D01*
X120497600Y-65799200D01*
X120497600Y-65819200D01*
X120243600Y-65819200D01*
X120243600Y-65799200D01*
X118644350Y-65799200D01*
X118485600Y-65957950D01*
X118482528Y-66172200D01*
X114767672Y-66172200D01*
X114767672Y-64810200D01*
X114755412Y-64685718D01*
X114719102Y-64566020D01*
X114715991Y-64560200D01*
X114719102Y-64554380D01*
X114755412Y-64434682D01*
X114766687Y-64320200D01*
X118501922Y-64320200D01*
X118531098Y-64416380D01*
X118590063Y-64526694D01*
X118669415Y-64623385D01*
X118728896Y-64672200D01*
X118669415Y-64721015D01*
X118590063Y-64817706D01*
X118531098Y-64928020D01*
X118494788Y-65047718D01*
X118482528Y-65172200D01*
X118485600Y-65386450D01*
X118644350Y-65545200D01*
X120243600Y-65545200D01*
X120243600Y-65525200D01*
X120497600Y-65525200D01*
X120497600Y-65545200D01*
X122096850Y-65545200D01*
X122255600Y-65386450D01*
X122258672Y-65172200D01*
X122246412Y-65047718D01*
X122210102Y-64928020D01*
X122151137Y-64817706D01*
X122071785Y-64721015D01*
X122012304Y-64672200D01*
X122071785Y-64623385D01*
X122151137Y-64526694D01*
X122210102Y-64416380D01*
X122246412Y-64296682D01*
X122258672Y-64172200D01*
X122258672Y-63172200D01*
X122246412Y-63047718D01*
X122210102Y-62928020D01*
X122151137Y-62817706D01*
X122071785Y-62721015D01*
X122012304Y-62672200D01*
X122071785Y-62623385D01*
X122151137Y-62526694D01*
X122201646Y-62432200D01*
X122291999Y-62432200D01*
X122328400Y-62468601D01*
G36*
X125604805Y-61681008D02*
G01*
X125628599Y-61710001D01*
X125657592Y-61733795D01*
X125657596Y-61733799D01*
X125712009Y-61778454D01*
X125744324Y-61804974D01*
X125876353Y-61875546D01*
X126019614Y-61919003D01*
X126131267Y-61930000D01*
X126131276Y-61930000D01*
X126168599Y-61933676D01*
X126205922Y-61930000D01*
X126577124Y-61930000D01*
X126701827Y-62116632D01*
X126908670Y-62323475D01*
X127090836Y-62445195D01*
X126973947Y-62514822D01*
X126757714Y-62709731D01*
X126583661Y-62943080D01*
X126458477Y-63205901D01*
X126413826Y-63353110D01*
X126535147Y-63583000D01*
X127728302Y-63583000D01*
X127728302Y-63563000D01*
X127982302Y-63563000D01*
X127982302Y-63583000D01*
X128002302Y-63583000D01*
X128002302Y-63837000D01*
X127982302Y-63837000D01*
X127982302Y-63857000D01*
X127728302Y-63857000D01*
X127728302Y-63837000D01*
X126535147Y-63837000D01*
X126413826Y-64066890D01*
X126458477Y-64214099D01*
X126583661Y-64476920D01*
X126757714Y-64710269D01*
X126973947Y-64905178D01*
X127090836Y-64974805D01*
X126908670Y-65096525D01*
X126701827Y-65303368D01*
X126539312Y-65546589D01*
X126427370Y-65816842D01*
X126370302Y-66103740D01*
X126370302Y-66396260D01*
X126427370Y-66683158D01*
X126539312Y-66953411D01*
X126701827Y-67196632D01*
X126908670Y-67403475D01*
X127083062Y-67520000D01*
X126908670Y-67636525D01*
X126701827Y-67843368D01*
X126577124Y-68030000D01*
X125594402Y-68030000D01*
X125169200Y-67604798D01*
X125169200Y-61245402D01*
X125604805Y-61681008D01*
G37*
X125604805Y-61681008D02*
X125628599Y-61710001D01*
X125657592Y-61733795D01*
X125657596Y-61733799D01*
X125712009Y-61778454D01*
X125744324Y-61804974D01*
X125876353Y-61875546D01*
X126019614Y-61919003D01*
X126131267Y-61930000D01*
X126131276Y-61930000D01*
X126168599Y-61933676D01*
X126205922Y-61930000D01*
X126577124Y-61930000D01*
X126701827Y-62116632D01*
X126908670Y-62323475D01*
X127090836Y-62445195D01*
X126973947Y-62514822D01*
X126757714Y-62709731D01*
X126583661Y-62943080D01*
X126458477Y-63205901D01*
X126413826Y-63353110D01*
X126535147Y-63583000D01*
X127728302Y-63583000D01*
X127728302Y-63563000D01*
X127982302Y-63563000D01*
X127982302Y-63583000D01*
X128002302Y-63583000D01*
X128002302Y-63837000D01*
X127982302Y-63837000D01*
X127982302Y-63857000D01*
X127728302Y-63857000D01*
X127728302Y-63837000D01*
X126535147Y-63837000D01*
X126413826Y-64066890D01*
X126458477Y-64214099D01*
X126583661Y-64476920D01*
X126757714Y-64710269D01*
X126973947Y-64905178D01*
X127090836Y-64974805D01*
X126908670Y-65096525D01*
X126701827Y-65303368D01*
X126539312Y-65546589D01*
X126427370Y-65816842D01*
X126370302Y-66103740D01*
X126370302Y-66396260D01*
X126427370Y-66683158D01*
X126539312Y-66953411D01*
X126701827Y-67196632D01*
X126908670Y-67403475D01*
X127083062Y-67520000D01*
X126908670Y-67636525D01*
X126701827Y-67843368D01*
X126577124Y-68030000D01*
X125594402Y-68030000D01*
X125169200Y-67604798D01*
X125169200Y-61245402D01*
X125604805Y-61681008D01*
M02*
