G04 #@! TF.GenerationSoftware,KiCad,Pcbnew,(5.1.5-0-10_14)*
G04 #@! TF.CreationDate,2020-05-04T22:30:03+03:00*
G04 #@! TF.ProjectId,PiGate,50694761-7465-42e6-9b69-6361645f7063,rev?*
G04 #@! TF.SameCoordinates,Original*
G04 #@! TF.FileFunction,Soldermask,Top*
G04 #@! TF.FilePolarity,Negative*
%FSLAX46Y46*%
G04 Gerber Fmt 4.6, Leading zero omitted, Abs format (unit mm)*
G04 Created by KiCad (PCBNEW (5.1.5-0-10_14)) date 2020-05-04 22:30:03*
%MOMM*%
%LPD*%
G04 APERTURE LIST*
%ADD10C,0.100000*%
G04 APERTURE END LIST*
D10*
G36*
X121717000Y-86233200D02*
G01*
X120091000Y-86233200D01*
X120091000Y-84607200D01*
X121717000Y-84607200D01*
X121717000Y-86233200D01*
G37*
G36*
X118601142Y-84638442D02*
G01*
X118749101Y-84699729D01*
X118882255Y-84788699D01*
X118995501Y-84901945D01*
X119084471Y-85035099D01*
X119145758Y-85183058D01*
X119177000Y-85340125D01*
X119177000Y-85500275D01*
X119145758Y-85657342D01*
X119084471Y-85805301D01*
X118995501Y-85938455D01*
X118882255Y-86051701D01*
X118749101Y-86140671D01*
X118601142Y-86201958D01*
X118444075Y-86233200D01*
X118283925Y-86233200D01*
X118126858Y-86201958D01*
X117978899Y-86140671D01*
X117845745Y-86051701D01*
X117732499Y-85938455D01*
X117643529Y-85805301D01*
X117582242Y-85657342D01*
X117551000Y-85500275D01*
X117551000Y-85340125D01*
X117582242Y-85183058D01*
X117643529Y-85035099D01*
X117732499Y-84901945D01*
X117845745Y-84788699D01*
X117978899Y-84699729D01*
X118126858Y-84638442D01*
X118283925Y-84607200D01*
X118444075Y-84607200D01*
X118601142Y-84638442D01*
G37*
G36*
X130508814Y-83133927D02*
G01*
X130658114Y-83163624D01*
X130822086Y-83231544D01*
X130969656Y-83330147D01*
X131095155Y-83455646D01*
X131193758Y-83603216D01*
X131261678Y-83767188D01*
X131296302Y-83941259D01*
X131296302Y-84118741D01*
X131261678Y-84292812D01*
X131193758Y-84456784D01*
X131095155Y-84604354D01*
X130969656Y-84729853D01*
X130822086Y-84828456D01*
X130658114Y-84896376D01*
X130508814Y-84926073D01*
X130484044Y-84931000D01*
X130306560Y-84931000D01*
X130281790Y-84926073D01*
X130132490Y-84896376D01*
X129968518Y-84828456D01*
X129820948Y-84729853D01*
X129695449Y-84604354D01*
X129596846Y-84456784D01*
X129528926Y-84292812D01*
X129494302Y-84118741D01*
X129494302Y-83941259D01*
X129528926Y-83767188D01*
X129596846Y-83603216D01*
X129695449Y-83455646D01*
X129820948Y-83330147D01*
X129968518Y-83231544D01*
X130132490Y-83163624D01*
X130281790Y-83133927D01*
X130306560Y-83129000D01*
X130484044Y-83129000D01*
X130508814Y-83133927D01*
G37*
G36*
X127968814Y-83133927D02*
G01*
X128118114Y-83163624D01*
X128282086Y-83231544D01*
X128429656Y-83330147D01*
X128555155Y-83455646D01*
X128653758Y-83603216D01*
X128721678Y-83767188D01*
X128756302Y-83941259D01*
X128756302Y-84118741D01*
X128721678Y-84292812D01*
X128653758Y-84456784D01*
X128555155Y-84604354D01*
X128429656Y-84729853D01*
X128282086Y-84828456D01*
X128118114Y-84896376D01*
X127968814Y-84926073D01*
X127944044Y-84931000D01*
X127766560Y-84931000D01*
X127741790Y-84926073D01*
X127592490Y-84896376D01*
X127428518Y-84828456D01*
X127280948Y-84729853D01*
X127155449Y-84604354D01*
X127056846Y-84456784D01*
X126988926Y-84292812D01*
X126954302Y-84118741D01*
X126954302Y-83941259D01*
X126988926Y-83767188D01*
X127056846Y-83603216D01*
X127155449Y-83455646D01*
X127280948Y-83330147D01*
X127428518Y-83231544D01*
X127592490Y-83163624D01*
X127741790Y-83133927D01*
X127766560Y-83129000D01*
X127944044Y-83129000D01*
X127968814Y-83133927D01*
G37*
G36*
X114668400Y-84721800D02*
G01*
X112966400Y-84721800D01*
X112966400Y-83019800D01*
X114668400Y-83019800D01*
X114668400Y-84721800D01*
G37*
G36*
X121141142Y-82098442D02*
G01*
X121289101Y-82159729D01*
X121422255Y-82248699D01*
X121535501Y-82361945D01*
X121624471Y-82495099D01*
X121685758Y-82643058D01*
X121717000Y-82800125D01*
X121717000Y-82960275D01*
X121685758Y-83117342D01*
X121624471Y-83265301D01*
X121535501Y-83398455D01*
X121422255Y-83511701D01*
X121289101Y-83600671D01*
X121141142Y-83661958D01*
X120984075Y-83693200D01*
X120823925Y-83693200D01*
X120666858Y-83661958D01*
X120518899Y-83600671D01*
X120385745Y-83511701D01*
X120272499Y-83398455D01*
X120183529Y-83265301D01*
X120122242Y-83117342D01*
X120091000Y-82960275D01*
X120091000Y-82800125D01*
X120122242Y-82643058D01*
X120183529Y-82495099D01*
X120272499Y-82361945D01*
X120385745Y-82248699D01*
X120518899Y-82159729D01*
X120666858Y-82098442D01*
X120823925Y-82067200D01*
X120984075Y-82067200D01*
X121141142Y-82098442D01*
G37*
G36*
X118601142Y-82098442D02*
G01*
X118749101Y-82159729D01*
X118882255Y-82248699D01*
X118995501Y-82361945D01*
X119084471Y-82495099D01*
X119145758Y-82643058D01*
X119177000Y-82800125D01*
X119177000Y-82960275D01*
X119145758Y-83117342D01*
X119084471Y-83265301D01*
X118995501Y-83398455D01*
X118882255Y-83511701D01*
X118749101Y-83600671D01*
X118601142Y-83661958D01*
X118444075Y-83693200D01*
X118283925Y-83693200D01*
X118126858Y-83661958D01*
X117978899Y-83600671D01*
X117845745Y-83511701D01*
X117732499Y-83398455D01*
X117643529Y-83265301D01*
X117582242Y-83117342D01*
X117551000Y-82960275D01*
X117551000Y-82800125D01*
X117582242Y-82643058D01*
X117643529Y-82495099D01*
X117732499Y-82361945D01*
X117845745Y-82248699D01*
X117978899Y-82159729D01*
X118126858Y-82098442D01*
X118283925Y-82067200D01*
X118444075Y-82067200D01*
X118601142Y-82098442D01*
G37*
G36*
X130508814Y-80593927D02*
G01*
X130658114Y-80623624D01*
X130822086Y-80691544D01*
X130969656Y-80790147D01*
X131095155Y-80915646D01*
X131193758Y-81063216D01*
X131261678Y-81227188D01*
X131296302Y-81401259D01*
X131296302Y-81578741D01*
X131261678Y-81752812D01*
X131193758Y-81916784D01*
X131095155Y-82064354D01*
X130969656Y-82189853D01*
X130822086Y-82288456D01*
X130658114Y-82356376D01*
X130508814Y-82386073D01*
X130484044Y-82391000D01*
X130306560Y-82391000D01*
X130281790Y-82386073D01*
X130132490Y-82356376D01*
X129968518Y-82288456D01*
X129820948Y-82189853D01*
X129695449Y-82064354D01*
X129596846Y-81916784D01*
X129528926Y-81752812D01*
X129494302Y-81578741D01*
X129494302Y-81401259D01*
X129528926Y-81227188D01*
X129596846Y-81063216D01*
X129695449Y-80915646D01*
X129820948Y-80790147D01*
X129968518Y-80691544D01*
X130132490Y-80623624D01*
X130281790Y-80593927D01*
X130306560Y-80589000D01*
X130484044Y-80589000D01*
X130508814Y-80593927D01*
G37*
G36*
X127968814Y-80593927D02*
G01*
X128118114Y-80623624D01*
X128282086Y-80691544D01*
X128429656Y-80790147D01*
X128555155Y-80915646D01*
X128653758Y-81063216D01*
X128721678Y-81227188D01*
X128756302Y-81401259D01*
X128756302Y-81578741D01*
X128721678Y-81752812D01*
X128653758Y-81916784D01*
X128555155Y-82064354D01*
X128429656Y-82189853D01*
X128282086Y-82288456D01*
X128118114Y-82356376D01*
X127968814Y-82386073D01*
X127944044Y-82391000D01*
X127766560Y-82391000D01*
X127741790Y-82386073D01*
X127592490Y-82356376D01*
X127428518Y-82288456D01*
X127280948Y-82189853D01*
X127155449Y-82064354D01*
X127056846Y-81916784D01*
X126988926Y-81752812D01*
X126954302Y-81578741D01*
X126954302Y-81401259D01*
X126988926Y-81227188D01*
X127056846Y-81063216D01*
X127155449Y-80915646D01*
X127280948Y-80790147D01*
X127428518Y-80691544D01*
X127592490Y-80623624D01*
X127741790Y-80593927D01*
X127766560Y-80589000D01*
X127944044Y-80589000D01*
X127968814Y-80593927D01*
G37*
G36*
X114065628Y-80552503D02*
G01*
X114220500Y-80616653D01*
X114359881Y-80709785D01*
X114478415Y-80828319D01*
X114571547Y-80967700D01*
X114635697Y-81122572D01*
X114668400Y-81286984D01*
X114668400Y-81454616D01*
X114635697Y-81619028D01*
X114571547Y-81773900D01*
X114478415Y-81913281D01*
X114359881Y-82031815D01*
X114220500Y-82124947D01*
X114065628Y-82189097D01*
X113901216Y-82221800D01*
X113733584Y-82221800D01*
X113569172Y-82189097D01*
X113414300Y-82124947D01*
X113274919Y-82031815D01*
X113156385Y-81913281D01*
X113063253Y-81773900D01*
X112999103Y-81619028D01*
X112966400Y-81454616D01*
X112966400Y-81286984D01*
X112999103Y-81122572D01*
X113063253Y-80967700D01*
X113156385Y-80828319D01*
X113274919Y-80709785D01*
X113414300Y-80616653D01*
X113569172Y-80552503D01*
X113733584Y-80519800D01*
X113901216Y-80519800D01*
X114065628Y-80552503D01*
G37*
G36*
X121141142Y-79558442D02*
G01*
X121289101Y-79619729D01*
X121422255Y-79708699D01*
X121535501Y-79821945D01*
X121624471Y-79955099D01*
X121685758Y-80103058D01*
X121717000Y-80260125D01*
X121717000Y-80420275D01*
X121685758Y-80577342D01*
X121624471Y-80725301D01*
X121535501Y-80858455D01*
X121422255Y-80971701D01*
X121289101Y-81060671D01*
X121141142Y-81121958D01*
X120984075Y-81153200D01*
X120823925Y-81153200D01*
X120666858Y-81121958D01*
X120518899Y-81060671D01*
X120385745Y-80971701D01*
X120272499Y-80858455D01*
X120183529Y-80725301D01*
X120122242Y-80577342D01*
X120091000Y-80420275D01*
X120091000Y-80260125D01*
X120122242Y-80103058D01*
X120183529Y-79955099D01*
X120272499Y-79821945D01*
X120385745Y-79708699D01*
X120518899Y-79619729D01*
X120666858Y-79558442D01*
X120823925Y-79527200D01*
X120984075Y-79527200D01*
X121141142Y-79558442D01*
G37*
G36*
X118601142Y-79558442D02*
G01*
X118749101Y-79619729D01*
X118882255Y-79708699D01*
X118995501Y-79821945D01*
X119084471Y-79955099D01*
X119145758Y-80103058D01*
X119177000Y-80260125D01*
X119177000Y-80420275D01*
X119145758Y-80577342D01*
X119084471Y-80725301D01*
X118995501Y-80858455D01*
X118882255Y-80971701D01*
X118749101Y-81060671D01*
X118601142Y-81121958D01*
X118444075Y-81153200D01*
X118283925Y-81153200D01*
X118126858Y-81121958D01*
X117978899Y-81060671D01*
X117845745Y-80971701D01*
X117732499Y-80858455D01*
X117643529Y-80725301D01*
X117582242Y-80577342D01*
X117551000Y-80420275D01*
X117551000Y-80260125D01*
X117582242Y-80103058D01*
X117643529Y-79955099D01*
X117732499Y-79821945D01*
X117845745Y-79708699D01*
X117978899Y-79619729D01*
X118126858Y-79558442D01*
X118283925Y-79527200D01*
X118444075Y-79527200D01*
X118601142Y-79558442D01*
G37*
G36*
X127968814Y-78053927D02*
G01*
X128118114Y-78083624D01*
X128282086Y-78151544D01*
X128429656Y-78250147D01*
X128555155Y-78375646D01*
X128653758Y-78523216D01*
X128721678Y-78687188D01*
X128756302Y-78861259D01*
X128756302Y-79038741D01*
X128721678Y-79212812D01*
X128653758Y-79376784D01*
X128555155Y-79524354D01*
X128429656Y-79649853D01*
X128282086Y-79748456D01*
X128118114Y-79816376D01*
X127968814Y-79846073D01*
X127944044Y-79851000D01*
X127766560Y-79851000D01*
X127741790Y-79846073D01*
X127592490Y-79816376D01*
X127428518Y-79748456D01*
X127280948Y-79649853D01*
X127155449Y-79524354D01*
X127056846Y-79376784D01*
X126988926Y-79212812D01*
X126954302Y-79038741D01*
X126954302Y-78861259D01*
X126988926Y-78687188D01*
X127056846Y-78523216D01*
X127155449Y-78375646D01*
X127280948Y-78250147D01*
X127428518Y-78151544D01*
X127592490Y-78083624D01*
X127741790Y-78053927D01*
X127766560Y-78049000D01*
X127944044Y-78049000D01*
X127968814Y-78053927D01*
G37*
G36*
X130508814Y-78053927D02*
G01*
X130658114Y-78083624D01*
X130822086Y-78151544D01*
X130969656Y-78250147D01*
X131095155Y-78375646D01*
X131193758Y-78523216D01*
X131261678Y-78687188D01*
X131296302Y-78861259D01*
X131296302Y-79038741D01*
X131261678Y-79212812D01*
X131193758Y-79376784D01*
X131095155Y-79524354D01*
X130969656Y-79649853D01*
X130822086Y-79748456D01*
X130658114Y-79816376D01*
X130508814Y-79846073D01*
X130484044Y-79851000D01*
X130306560Y-79851000D01*
X130281790Y-79846073D01*
X130132490Y-79816376D01*
X129968518Y-79748456D01*
X129820948Y-79649853D01*
X129695449Y-79524354D01*
X129596846Y-79376784D01*
X129528926Y-79212812D01*
X129494302Y-79038741D01*
X129494302Y-78861259D01*
X129528926Y-78687188D01*
X129596846Y-78523216D01*
X129695449Y-78375646D01*
X129820948Y-78250147D01*
X129968518Y-78151544D01*
X130132490Y-78083624D01*
X130281790Y-78053927D01*
X130306560Y-78049000D01*
X130484044Y-78049000D01*
X130508814Y-78053927D01*
G37*
G36*
X118601142Y-77018442D02*
G01*
X118749101Y-77079729D01*
X118882255Y-77168699D01*
X118995501Y-77281945D01*
X119084471Y-77415099D01*
X119145758Y-77563058D01*
X119177000Y-77720125D01*
X119177000Y-77880275D01*
X119145758Y-78037342D01*
X119084471Y-78185301D01*
X118995501Y-78318455D01*
X118882255Y-78431701D01*
X118749101Y-78520671D01*
X118601142Y-78581958D01*
X118444075Y-78613200D01*
X118283925Y-78613200D01*
X118126858Y-78581958D01*
X117978899Y-78520671D01*
X117845745Y-78431701D01*
X117732499Y-78318455D01*
X117643529Y-78185301D01*
X117582242Y-78037342D01*
X117551000Y-77880275D01*
X117551000Y-77720125D01*
X117582242Y-77563058D01*
X117643529Y-77415099D01*
X117732499Y-77281945D01*
X117845745Y-77168699D01*
X117978899Y-77079729D01*
X118126858Y-77018442D01*
X118283925Y-76987200D01*
X118444075Y-76987200D01*
X118601142Y-77018442D01*
G37*
G36*
X121141142Y-77018442D02*
G01*
X121289101Y-77079729D01*
X121422255Y-77168699D01*
X121535501Y-77281945D01*
X121624471Y-77415099D01*
X121685758Y-77563058D01*
X121717000Y-77720125D01*
X121717000Y-77880275D01*
X121685758Y-78037342D01*
X121624471Y-78185301D01*
X121535501Y-78318455D01*
X121422255Y-78431701D01*
X121289101Y-78520671D01*
X121141142Y-78581958D01*
X120984075Y-78613200D01*
X120823925Y-78613200D01*
X120666858Y-78581958D01*
X120518899Y-78520671D01*
X120385745Y-78431701D01*
X120272499Y-78318455D01*
X120183529Y-78185301D01*
X120122242Y-78037342D01*
X120091000Y-77880275D01*
X120091000Y-77720125D01*
X120122242Y-77563058D01*
X120183529Y-77415099D01*
X120272499Y-77281945D01*
X120385745Y-77168699D01*
X120518899Y-77079729D01*
X120666858Y-77018442D01*
X120823925Y-76987200D01*
X120984075Y-76987200D01*
X121141142Y-77018442D01*
G37*
G36*
X127968814Y-75513927D02*
G01*
X128118114Y-75543624D01*
X128282086Y-75611544D01*
X128429656Y-75710147D01*
X128555155Y-75835646D01*
X128653758Y-75983216D01*
X128721678Y-76147188D01*
X128756302Y-76321259D01*
X128756302Y-76498741D01*
X128721678Y-76672812D01*
X128653758Y-76836784D01*
X128555155Y-76984354D01*
X128429656Y-77109853D01*
X128282086Y-77208456D01*
X128118114Y-77276376D01*
X127968814Y-77306073D01*
X127944044Y-77311000D01*
X127766560Y-77311000D01*
X127741790Y-77306073D01*
X127592490Y-77276376D01*
X127428518Y-77208456D01*
X127280948Y-77109853D01*
X127155449Y-76984354D01*
X127056846Y-76836784D01*
X126988926Y-76672812D01*
X126954302Y-76498741D01*
X126954302Y-76321259D01*
X126988926Y-76147188D01*
X127056846Y-75983216D01*
X127155449Y-75835646D01*
X127280948Y-75710147D01*
X127428518Y-75611544D01*
X127592490Y-75543624D01*
X127741790Y-75513927D01*
X127766560Y-75509000D01*
X127944044Y-75509000D01*
X127968814Y-75513927D01*
G37*
G36*
X130508814Y-75513927D02*
G01*
X130658114Y-75543624D01*
X130822086Y-75611544D01*
X130969656Y-75710147D01*
X131095155Y-75835646D01*
X131193758Y-75983216D01*
X131261678Y-76147188D01*
X131296302Y-76321259D01*
X131296302Y-76498741D01*
X131261678Y-76672812D01*
X131193758Y-76836784D01*
X131095155Y-76984354D01*
X130969656Y-77109853D01*
X130822086Y-77208456D01*
X130658114Y-77276376D01*
X130508814Y-77306073D01*
X130484044Y-77311000D01*
X130306560Y-77311000D01*
X130281790Y-77306073D01*
X130132490Y-77276376D01*
X129968518Y-77208456D01*
X129820948Y-77109853D01*
X129695449Y-76984354D01*
X129596846Y-76836784D01*
X129528926Y-76672812D01*
X129494302Y-76498741D01*
X129494302Y-76321259D01*
X129528926Y-76147188D01*
X129596846Y-75983216D01*
X129695449Y-75835646D01*
X129820948Y-75710147D01*
X129968518Y-75611544D01*
X130132490Y-75543624D01*
X130281790Y-75513927D01*
X130306560Y-75509000D01*
X130484044Y-75509000D01*
X130508814Y-75513927D01*
G37*
G36*
X130508814Y-72973927D02*
G01*
X130658114Y-73003624D01*
X130822086Y-73071544D01*
X130969656Y-73170147D01*
X131095155Y-73295646D01*
X131193758Y-73443216D01*
X131261678Y-73607188D01*
X131296302Y-73781259D01*
X131296302Y-73958741D01*
X131261678Y-74132812D01*
X131193758Y-74296784D01*
X131095155Y-74444354D01*
X130969656Y-74569853D01*
X130822086Y-74668456D01*
X130658114Y-74736376D01*
X130508814Y-74766073D01*
X130484044Y-74771000D01*
X130306560Y-74771000D01*
X130281790Y-74766073D01*
X130132490Y-74736376D01*
X129968518Y-74668456D01*
X129820948Y-74569853D01*
X129695449Y-74444354D01*
X129596846Y-74296784D01*
X129528926Y-74132812D01*
X129494302Y-73958741D01*
X129494302Y-73781259D01*
X129528926Y-73607188D01*
X129596846Y-73443216D01*
X129695449Y-73295646D01*
X129820948Y-73170147D01*
X129968518Y-73071544D01*
X130132490Y-73003624D01*
X130281790Y-72973927D01*
X130306560Y-72969000D01*
X130484044Y-72969000D01*
X130508814Y-72973927D01*
G37*
G36*
X127968814Y-72973927D02*
G01*
X128118114Y-73003624D01*
X128282086Y-73071544D01*
X128429656Y-73170147D01*
X128555155Y-73295646D01*
X128653758Y-73443216D01*
X128721678Y-73607188D01*
X128756302Y-73781259D01*
X128756302Y-73958741D01*
X128721678Y-74132812D01*
X128653758Y-74296784D01*
X128555155Y-74444354D01*
X128429656Y-74569853D01*
X128282086Y-74668456D01*
X128118114Y-74736376D01*
X127968814Y-74766073D01*
X127944044Y-74771000D01*
X127766560Y-74771000D01*
X127741790Y-74766073D01*
X127592490Y-74736376D01*
X127428518Y-74668456D01*
X127280948Y-74569853D01*
X127155449Y-74444354D01*
X127056846Y-74296784D01*
X126988926Y-74132812D01*
X126954302Y-73958741D01*
X126954302Y-73781259D01*
X126988926Y-73607188D01*
X127056846Y-73443216D01*
X127155449Y-73295646D01*
X127280948Y-73170147D01*
X127428518Y-73071544D01*
X127592490Y-73003624D01*
X127741790Y-72973927D01*
X127766560Y-72969000D01*
X127944044Y-72969000D01*
X127968814Y-72973927D01*
G37*
G36*
X130508814Y-70433927D02*
G01*
X130658114Y-70463624D01*
X130822086Y-70531544D01*
X130969656Y-70630147D01*
X131095155Y-70755646D01*
X131193758Y-70903216D01*
X131261678Y-71067188D01*
X131296302Y-71241259D01*
X131296302Y-71418741D01*
X131261678Y-71592812D01*
X131193758Y-71756784D01*
X131095155Y-71904354D01*
X130969656Y-72029853D01*
X130822086Y-72128456D01*
X130658114Y-72196376D01*
X130508814Y-72226073D01*
X130484044Y-72231000D01*
X130306560Y-72231000D01*
X130281790Y-72226073D01*
X130132490Y-72196376D01*
X129968518Y-72128456D01*
X129820948Y-72029853D01*
X129695449Y-71904354D01*
X129596846Y-71756784D01*
X129528926Y-71592812D01*
X129494302Y-71418741D01*
X129494302Y-71241259D01*
X129528926Y-71067188D01*
X129596846Y-70903216D01*
X129695449Y-70755646D01*
X129820948Y-70630147D01*
X129968518Y-70531544D01*
X130132490Y-70463624D01*
X130281790Y-70433927D01*
X130306560Y-70429000D01*
X130484044Y-70429000D01*
X130508814Y-70433927D01*
G37*
G36*
X127968814Y-70433927D02*
G01*
X128118114Y-70463624D01*
X128282086Y-70531544D01*
X128429656Y-70630147D01*
X128555155Y-70755646D01*
X128653758Y-70903216D01*
X128721678Y-71067188D01*
X128756302Y-71241259D01*
X128756302Y-71418741D01*
X128721678Y-71592812D01*
X128653758Y-71756784D01*
X128555155Y-71904354D01*
X128429656Y-72029853D01*
X128282086Y-72128456D01*
X128118114Y-72196376D01*
X127968814Y-72226073D01*
X127944044Y-72231000D01*
X127766560Y-72231000D01*
X127741790Y-72226073D01*
X127592490Y-72196376D01*
X127428518Y-72128456D01*
X127280948Y-72029853D01*
X127155449Y-71904354D01*
X127056846Y-71756784D01*
X126988926Y-71592812D01*
X126954302Y-71418741D01*
X126954302Y-71241259D01*
X126988926Y-71067188D01*
X127056846Y-70903216D01*
X127155449Y-70755646D01*
X127280948Y-70630147D01*
X127428518Y-70531544D01*
X127592490Y-70463624D01*
X127741790Y-70433927D01*
X127766560Y-70429000D01*
X127944044Y-70429000D01*
X127968814Y-70433927D01*
G37*
G36*
X114180600Y-70361200D02*
G01*
X112078600Y-70361200D01*
X112078600Y-68759200D01*
X114180600Y-68759200D01*
X114180600Y-70361200D01*
G37*
G36*
X98180600Y-70361200D02*
G01*
X96078600Y-70361200D01*
X96078600Y-68759200D01*
X98180600Y-68759200D01*
X98180600Y-70361200D01*
G37*
G36*
X103471600Y-70223200D02*
G01*
X100869600Y-70223200D01*
X100869600Y-69121200D01*
X103471600Y-69121200D01*
X103471600Y-70223200D01*
G37*
G36*
X121671600Y-70223200D02*
G01*
X119069600Y-70223200D01*
X119069600Y-69121200D01*
X121671600Y-69121200D01*
X121671600Y-70223200D01*
G37*
G36*
X127968814Y-67893927D02*
G01*
X128118114Y-67923624D01*
X128282086Y-67991544D01*
X128429656Y-68090147D01*
X128555155Y-68215646D01*
X128653758Y-68363216D01*
X128721678Y-68527188D01*
X128756302Y-68701259D01*
X128756302Y-68878741D01*
X128721678Y-69052812D01*
X128653758Y-69216784D01*
X128555155Y-69364354D01*
X128429656Y-69489853D01*
X128282086Y-69588456D01*
X128118114Y-69656376D01*
X127968814Y-69686073D01*
X127944044Y-69691000D01*
X127766560Y-69691000D01*
X127741790Y-69686073D01*
X127592490Y-69656376D01*
X127428518Y-69588456D01*
X127280948Y-69489853D01*
X127155449Y-69364354D01*
X127056846Y-69216784D01*
X126988926Y-69052812D01*
X126954302Y-68878741D01*
X126954302Y-68701259D01*
X126988926Y-68527188D01*
X127056846Y-68363216D01*
X127155449Y-68215646D01*
X127280948Y-68090147D01*
X127428518Y-67991544D01*
X127592490Y-67923624D01*
X127741790Y-67893927D01*
X127766560Y-67889000D01*
X127944044Y-67889000D01*
X127968814Y-67893927D01*
G37*
G36*
X130508814Y-67893927D02*
G01*
X130658114Y-67923624D01*
X130822086Y-67991544D01*
X130969656Y-68090147D01*
X131095155Y-68215646D01*
X131193758Y-68363216D01*
X131261678Y-68527188D01*
X131296302Y-68701259D01*
X131296302Y-68878741D01*
X131261678Y-69052812D01*
X131193758Y-69216784D01*
X131095155Y-69364354D01*
X130969656Y-69489853D01*
X130822086Y-69588456D01*
X130658114Y-69656376D01*
X130508814Y-69686073D01*
X130484044Y-69691000D01*
X130306560Y-69691000D01*
X130281790Y-69686073D01*
X130132490Y-69656376D01*
X129968518Y-69588456D01*
X129820948Y-69489853D01*
X129695449Y-69364354D01*
X129596846Y-69216784D01*
X129528926Y-69052812D01*
X129494302Y-68878741D01*
X129494302Y-68701259D01*
X129528926Y-68527188D01*
X129596846Y-68363216D01*
X129695449Y-68215646D01*
X129820948Y-68090147D01*
X129968518Y-67991544D01*
X130132490Y-67923624D01*
X130281790Y-67893927D01*
X130306560Y-67889000D01*
X130484044Y-67889000D01*
X130508814Y-67893927D01*
G37*
G36*
X98180600Y-68361200D02*
G01*
X96078600Y-68361200D01*
X96078600Y-66759200D01*
X98180600Y-66759200D01*
X98180600Y-68361200D01*
G37*
G36*
X114180600Y-68361200D02*
G01*
X112078600Y-68361200D01*
X112078600Y-66759200D01*
X114180600Y-66759200D01*
X114180600Y-68361200D01*
G37*
G36*
X103471600Y-68223200D02*
G01*
X100869600Y-68223200D01*
X100869600Y-67121200D01*
X103471600Y-67121200D01*
X103471600Y-68223200D01*
G37*
G36*
X121671600Y-68223200D02*
G01*
X119069600Y-68223200D01*
X119069600Y-67121200D01*
X121671600Y-67121200D01*
X121671600Y-68223200D01*
G37*
G36*
X127968814Y-65353927D02*
G01*
X128118114Y-65383624D01*
X128282086Y-65451544D01*
X128429656Y-65550147D01*
X128555155Y-65675646D01*
X128653758Y-65823216D01*
X128721678Y-65987188D01*
X128756302Y-66161259D01*
X128756302Y-66338741D01*
X128721678Y-66512812D01*
X128653758Y-66676784D01*
X128555155Y-66824354D01*
X128429656Y-66949853D01*
X128282086Y-67048456D01*
X128118114Y-67116376D01*
X127968814Y-67146073D01*
X127944044Y-67151000D01*
X127766560Y-67151000D01*
X127741790Y-67146073D01*
X127592490Y-67116376D01*
X127428518Y-67048456D01*
X127280948Y-66949853D01*
X127155449Y-66824354D01*
X127056846Y-66676784D01*
X126988926Y-66512812D01*
X126954302Y-66338741D01*
X126954302Y-66161259D01*
X126988926Y-65987188D01*
X127056846Y-65823216D01*
X127155449Y-65675646D01*
X127280948Y-65550147D01*
X127428518Y-65451544D01*
X127592490Y-65383624D01*
X127741790Y-65353927D01*
X127766560Y-65349000D01*
X127944044Y-65349000D01*
X127968814Y-65353927D01*
G37*
G36*
X130508814Y-65353927D02*
G01*
X130658114Y-65383624D01*
X130822086Y-65451544D01*
X130969656Y-65550147D01*
X131095155Y-65675646D01*
X131193758Y-65823216D01*
X131261678Y-65987188D01*
X131296302Y-66161259D01*
X131296302Y-66338741D01*
X131261678Y-66512812D01*
X131193758Y-66676784D01*
X131095155Y-66824354D01*
X130969656Y-66949853D01*
X130822086Y-67048456D01*
X130658114Y-67116376D01*
X130508814Y-67146073D01*
X130484044Y-67151000D01*
X130306560Y-67151000D01*
X130281790Y-67146073D01*
X130132490Y-67116376D01*
X129968518Y-67048456D01*
X129820948Y-66949853D01*
X129695449Y-66824354D01*
X129596846Y-66676784D01*
X129528926Y-66512812D01*
X129494302Y-66338741D01*
X129494302Y-66161259D01*
X129528926Y-65987188D01*
X129596846Y-65823216D01*
X129695449Y-65675646D01*
X129820948Y-65550147D01*
X129968518Y-65451544D01*
X130132490Y-65383624D01*
X130281790Y-65353927D01*
X130306560Y-65349000D01*
X130484044Y-65349000D01*
X130508814Y-65353927D01*
G37*
G36*
X98180600Y-66361200D02*
G01*
X96078600Y-66361200D01*
X96078600Y-64759200D01*
X98180600Y-64759200D01*
X98180600Y-66361200D01*
G37*
G36*
X114180600Y-66361200D02*
G01*
X112078600Y-66361200D01*
X112078600Y-64759200D01*
X114180600Y-64759200D01*
X114180600Y-66361200D01*
G37*
G36*
X103471600Y-66223200D02*
G01*
X100869600Y-66223200D01*
X100869600Y-65121200D01*
X103471600Y-65121200D01*
X103471600Y-66223200D01*
G37*
G36*
X121671600Y-66223200D02*
G01*
X119069600Y-66223200D01*
X119069600Y-65121200D01*
X121671600Y-65121200D01*
X121671600Y-66223200D01*
G37*
G36*
X130508814Y-62813927D02*
G01*
X130658114Y-62843624D01*
X130822086Y-62911544D01*
X130969656Y-63010147D01*
X131095155Y-63135646D01*
X131193758Y-63283216D01*
X131261678Y-63447188D01*
X131296302Y-63621259D01*
X131296302Y-63798741D01*
X131261678Y-63972812D01*
X131193758Y-64136784D01*
X131095155Y-64284354D01*
X130969656Y-64409853D01*
X130822086Y-64508456D01*
X130658114Y-64576376D01*
X130508814Y-64606073D01*
X130484044Y-64611000D01*
X130306560Y-64611000D01*
X130281790Y-64606073D01*
X130132490Y-64576376D01*
X129968518Y-64508456D01*
X129820948Y-64409853D01*
X129695449Y-64284354D01*
X129596846Y-64136784D01*
X129528926Y-63972812D01*
X129494302Y-63798741D01*
X129494302Y-63621259D01*
X129528926Y-63447188D01*
X129596846Y-63283216D01*
X129695449Y-63135646D01*
X129820948Y-63010147D01*
X129968518Y-62911544D01*
X130132490Y-62843624D01*
X130281790Y-62813927D01*
X130306560Y-62809000D01*
X130484044Y-62809000D01*
X130508814Y-62813927D01*
G37*
G36*
X127968814Y-62813927D02*
G01*
X128118114Y-62843624D01*
X128282086Y-62911544D01*
X128429656Y-63010147D01*
X128555155Y-63135646D01*
X128653758Y-63283216D01*
X128721678Y-63447188D01*
X128756302Y-63621259D01*
X128756302Y-63798741D01*
X128721678Y-63972812D01*
X128653758Y-64136784D01*
X128555155Y-64284354D01*
X128429656Y-64409853D01*
X128282086Y-64508456D01*
X128118114Y-64576376D01*
X127968814Y-64606073D01*
X127944044Y-64611000D01*
X127766560Y-64611000D01*
X127741790Y-64606073D01*
X127592490Y-64576376D01*
X127428518Y-64508456D01*
X127280948Y-64409853D01*
X127155449Y-64284354D01*
X127056846Y-64136784D01*
X126988926Y-63972812D01*
X126954302Y-63798741D01*
X126954302Y-63621259D01*
X126988926Y-63447188D01*
X127056846Y-63283216D01*
X127155449Y-63135646D01*
X127280948Y-63010147D01*
X127428518Y-62911544D01*
X127592490Y-62843624D01*
X127741790Y-62813927D01*
X127766560Y-62809000D01*
X127944044Y-62809000D01*
X127968814Y-62813927D01*
G37*
G36*
X114180600Y-64361200D02*
G01*
X112078600Y-64361200D01*
X112078600Y-62759200D01*
X114180600Y-62759200D01*
X114180600Y-64361200D01*
G37*
G36*
X98180600Y-64361200D02*
G01*
X96078600Y-64361200D01*
X96078600Y-62759200D01*
X98180600Y-62759200D01*
X98180600Y-64361200D01*
G37*
G36*
X121671600Y-64223200D02*
G01*
X119069600Y-64223200D01*
X119069600Y-63121200D01*
X121671600Y-63121200D01*
X121671600Y-64223200D01*
G37*
G36*
X103471600Y-64223200D02*
G01*
X100869600Y-64223200D01*
X100869600Y-63121200D01*
X103471600Y-63121200D01*
X103471600Y-64223200D01*
G37*
G36*
X114180600Y-62361200D02*
G01*
X112078600Y-62361200D01*
X112078600Y-60759200D01*
X114180600Y-60759200D01*
X114180600Y-62361200D01*
G37*
G36*
X98180600Y-62361200D02*
G01*
X96078600Y-62361200D01*
X96078600Y-60759200D01*
X98180600Y-60759200D01*
X98180600Y-62361200D01*
G37*
G36*
X121671600Y-62223200D02*
G01*
X119069600Y-62223200D01*
X119069600Y-61121200D01*
X121671600Y-61121200D01*
X121671600Y-62223200D01*
G37*
G36*
X103471600Y-62223200D02*
G01*
X100869600Y-62223200D01*
X100869600Y-61121200D01*
X103471600Y-61121200D01*
X103471600Y-62223200D01*
G37*
G36*
X130508814Y-60273927D02*
G01*
X130658114Y-60303624D01*
X130822086Y-60371544D01*
X130969656Y-60470147D01*
X131095155Y-60595646D01*
X131193758Y-60743216D01*
X131261678Y-60907188D01*
X131296302Y-61081259D01*
X131296302Y-61258741D01*
X131261678Y-61432812D01*
X131193758Y-61596784D01*
X131095155Y-61744354D01*
X130969656Y-61869853D01*
X130822086Y-61968456D01*
X130658114Y-62036376D01*
X130508814Y-62066073D01*
X130484044Y-62071000D01*
X130306560Y-62071000D01*
X130281790Y-62066073D01*
X130132490Y-62036376D01*
X129968518Y-61968456D01*
X129820948Y-61869853D01*
X129695449Y-61744354D01*
X129596846Y-61596784D01*
X129528926Y-61432812D01*
X129494302Y-61258741D01*
X129494302Y-61081259D01*
X129528926Y-60907188D01*
X129596846Y-60743216D01*
X129695449Y-60595646D01*
X129820948Y-60470147D01*
X129968518Y-60371544D01*
X130132490Y-60303624D01*
X130281790Y-60273927D01*
X130306560Y-60269000D01*
X130484044Y-60269000D01*
X130508814Y-60273927D01*
G37*
G36*
X127968814Y-60273927D02*
G01*
X128118114Y-60303624D01*
X128282086Y-60371544D01*
X128429656Y-60470147D01*
X128555155Y-60595646D01*
X128653758Y-60743216D01*
X128721678Y-60907188D01*
X128756302Y-61081259D01*
X128756302Y-61258741D01*
X128721678Y-61432812D01*
X128653758Y-61596784D01*
X128555155Y-61744354D01*
X128429656Y-61869853D01*
X128282086Y-61968456D01*
X128118114Y-62036376D01*
X127968814Y-62066073D01*
X127944044Y-62071000D01*
X127766560Y-62071000D01*
X127741790Y-62066073D01*
X127592490Y-62036376D01*
X127428518Y-61968456D01*
X127280948Y-61869853D01*
X127155449Y-61744354D01*
X127056846Y-61596784D01*
X126988926Y-61432812D01*
X126954302Y-61258741D01*
X126954302Y-61081259D01*
X126988926Y-60907188D01*
X127056846Y-60743216D01*
X127155449Y-60595646D01*
X127280948Y-60470147D01*
X127428518Y-60371544D01*
X127592490Y-60303624D01*
X127741790Y-60273927D01*
X127766560Y-60269000D01*
X127944044Y-60269000D01*
X127968814Y-60273927D01*
G37*
G36*
X114180600Y-60361200D02*
G01*
X112078600Y-60361200D01*
X112078600Y-58759200D01*
X114180600Y-58759200D01*
X114180600Y-60361200D01*
G37*
G36*
X98180600Y-60361200D02*
G01*
X96078600Y-60361200D01*
X96078600Y-58759200D01*
X98180600Y-58759200D01*
X98180600Y-60361200D01*
G37*
G36*
X103471600Y-60223200D02*
G01*
X100869600Y-60223200D01*
X100869600Y-59121200D01*
X103471600Y-59121200D01*
X103471600Y-60223200D01*
G37*
G36*
X121671600Y-60223200D02*
G01*
X119069600Y-60223200D01*
X119069600Y-59121200D01*
X121671600Y-59121200D01*
X121671600Y-60223200D01*
G37*
G36*
X127968814Y-57733927D02*
G01*
X128118114Y-57763624D01*
X128282086Y-57831544D01*
X128429656Y-57930147D01*
X128555155Y-58055646D01*
X128653758Y-58203216D01*
X128721678Y-58367188D01*
X128756302Y-58541259D01*
X128756302Y-58718741D01*
X128721678Y-58892812D01*
X128653758Y-59056784D01*
X128555155Y-59204354D01*
X128429656Y-59329853D01*
X128282086Y-59428456D01*
X128118114Y-59496376D01*
X127968814Y-59526073D01*
X127944044Y-59531000D01*
X127766560Y-59531000D01*
X127741790Y-59526073D01*
X127592490Y-59496376D01*
X127428518Y-59428456D01*
X127280948Y-59329853D01*
X127155449Y-59204354D01*
X127056846Y-59056784D01*
X126988926Y-58892812D01*
X126954302Y-58718741D01*
X126954302Y-58541259D01*
X126988926Y-58367188D01*
X127056846Y-58203216D01*
X127155449Y-58055646D01*
X127280948Y-57930147D01*
X127428518Y-57831544D01*
X127592490Y-57763624D01*
X127741790Y-57733927D01*
X127766560Y-57729000D01*
X127944044Y-57729000D01*
X127968814Y-57733927D01*
G37*
G36*
X130508814Y-57733927D02*
G01*
X130658114Y-57763624D01*
X130822086Y-57831544D01*
X130969656Y-57930147D01*
X131095155Y-58055646D01*
X131193758Y-58203216D01*
X131261678Y-58367188D01*
X131296302Y-58541259D01*
X131296302Y-58718741D01*
X131261678Y-58892812D01*
X131193758Y-59056784D01*
X131095155Y-59204354D01*
X130969656Y-59329853D01*
X130822086Y-59428456D01*
X130658114Y-59496376D01*
X130508814Y-59526073D01*
X130484044Y-59531000D01*
X130306560Y-59531000D01*
X130281790Y-59526073D01*
X130132490Y-59496376D01*
X129968518Y-59428456D01*
X129820948Y-59329853D01*
X129695449Y-59204354D01*
X129596846Y-59056784D01*
X129528926Y-58892812D01*
X129494302Y-58718741D01*
X129494302Y-58541259D01*
X129528926Y-58367188D01*
X129596846Y-58203216D01*
X129695449Y-58055646D01*
X129820948Y-57930147D01*
X129968518Y-57831544D01*
X130132490Y-57763624D01*
X130281790Y-57733927D01*
X130306560Y-57729000D01*
X130484044Y-57729000D01*
X130508814Y-57733927D01*
G37*
G36*
X98180600Y-58361200D02*
G01*
X96078600Y-58361200D01*
X96078600Y-56759200D01*
X98180600Y-56759200D01*
X98180600Y-58361200D01*
G37*
G36*
X114180600Y-58361200D02*
G01*
X112078600Y-58361200D01*
X112078600Y-56759200D01*
X114180600Y-56759200D01*
X114180600Y-58361200D01*
G37*
G36*
X121671600Y-58223200D02*
G01*
X119069600Y-58223200D01*
X119069600Y-57121200D01*
X121671600Y-57121200D01*
X121671600Y-58223200D01*
G37*
G36*
X103471600Y-58223200D02*
G01*
X100869600Y-58223200D01*
X100869600Y-57121200D01*
X103471600Y-57121200D01*
X103471600Y-58223200D01*
G37*
G36*
X127968814Y-55193927D02*
G01*
X128118114Y-55223624D01*
X128282086Y-55291544D01*
X128429656Y-55390147D01*
X128555155Y-55515646D01*
X128653758Y-55663216D01*
X128721678Y-55827188D01*
X128756302Y-56001259D01*
X128756302Y-56178741D01*
X128721678Y-56352812D01*
X128653758Y-56516784D01*
X128555155Y-56664354D01*
X128429656Y-56789853D01*
X128282086Y-56888456D01*
X128118114Y-56956376D01*
X127968814Y-56986073D01*
X127944044Y-56991000D01*
X127766560Y-56991000D01*
X127741790Y-56986073D01*
X127592490Y-56956376D01*
X127428518Y-56888456D01*
X127280948Y-56789853D01*
X127155449Y-56664354D01*
X127056846Y-56516784D01*
X126988926Y-56352812D01*
X126954302Y-56178741D01*
X126954302Y-56001259D01*
X126988926Y-55827188D01*
X127056846Y-55663216D01*
X127155449Y-55515646D01*
X127280948Y-55390147D01*
X127428518Y-55291544D01*
X127592490Y-55223624D01*
X127741790Y-55193927D01*
X127766560Y-55189000D01*
X127944044Y-55189000D01*
X127968814Y-55193927D01*
G37*
G36*
X130508814Y-55193927D02*
G01*
X130658114Y-55223624D01*
X130822086Y-55291544D01*
X130969656Y-55390147D01*
X131095155Y-55515646D01*
X131193758Y-55663216D01*
X131261678Y-55827188D01*
X131296302Y-56001259D01*
X131296302Y-56178741D01*
X131261678Y-56352812D01*
X131193758Y-56516784D01*
X131095155Y-56664354D01*
X130969656Y-56789853D01*
X130822086Y-56888456D01*
X130658114Y-56956376D01*
X130508814Y-56986073D01*
X130484044Y-56991000D01*
X130306560Y-56991000D01*
X130281790Y-56986073D01*
X130132490Y-56956376D01*
X129968518Y-56888456D01*
X129820948Y-56789853D01*
X129695449Y-56664354D01*
X129596846Y-56516784D01*
X129528926Y-56352812D01*
X129494302Y-56178741D01*
X129494302Y-56001259D01*
X129528926Y-55827188D01*
X129596846Y-55663216D01*
X129695449Y-55515646D01*
X129820948Y-55390147D01*
X129968518Y-55291544D01*
X130132490Y-55223624D01*
X130281790Y-55193927D01*
X130306560Y-55189000D01*
X130484044Y-55189000D01*
X130508814Y-55193927D01*
G37*
G36*
X98180600Y-56361200D02*
G01*
X96078600Y-56361200D01*
X96078600Y-54759200D01*
X98180600Y-54759200D01*
X98180600Y-56361200D01*
G37*
G36*
X114180600Y-56361200D02*
G01*
X112078600Y-56361200D01*
X112078600Y-54759200D01*
X114180600Y-54759200D01*
X114180600Y-56361200D01*
G37*
G36*
X103471600Y-56223200D02*
G01*
X100869600Y-56223200D01*
X100869600Y-55121200D01*
X103471600Y-55121200D01*
X103471600Y-56223200D01*
G37*
G36*
X121671600Y-56223200D02*
G01*
X119069600Y-56223200D01*
X119069600Y-55121200D01*
X121671600Y-55121200D01*
X121671600Y-56223200D01*
G37*
G36*
X128756302Y-54451000D02*
G01*
X126954302Y-54451000D01*
X126954302Y-52649000D01*
X128756302Y-52649000D01*
X128756302Y-54451000D01*
G37*
G36*
X130508814Y-52653927D02*
G01*
X130658114Y-52683624D01*
X130822086Y-52751544D01*
X130969656Y-52850147D01*
X131095155Y-52975646D01*
X131193758Y-53123216D01*
X131261678Y-53287188D01*
X131296302Y-53461259D01*
X131296302Y-53638741D01*
X131261678Y-53812812D01*
X131193758Y-53976784D01*
X131095155Y-54124354D01*
X130969656Y-54249853D01*
X130822086Y-54348456D01*
X130658114Y-54416376D01*
X130508814Y-54446073D01*
X130484044Y-54451000D01*
X130306560Y-54451000D01*
X130281790Y-54446073D01*
X130132490Y-54416376D01*
X129968518Y-54348456D01*
X129820948Y-54249853D01*
X129695449Y-54124354D01*
X129596846Y-53976784D01*
X129528926Y-53812812D01*
X129494302Y-53638741D01*
X129494302Y-53461259D01*
X129528926Y-53287188D01*
X129596846Y-53123216D01*
X129695449Y-52975646D01*
X129820948Y-52850147D01*
X129968518Y-52751544D01*
X130132490Y-52683624D01*
X130281790Y-52653927D01*
X130306560Y-52649000D01*
X130484044Y-52649000D01*
X130508814Y-52653927D01*
G37*
G36*
X108037800Y-53284600D02*
G01*
X106185800Y-53284600D01*
X106185800Y-52582600D01*
X108037800Y-52582600D01*
X108037800Y-53284600D01*
G37*
G36*
X106287800Y-52284600D02*
G01*
X104435800Y-52284600D01*
X104435800Y-51582600D01*
X106287800Y-51582600D01*
X106287800Y-52284600D01*
G37*
G36*
X108037800Y-51284600D02*
G01*
X106185800Y-51284600D01*
X106185800Y-50582600D01*
X108037800Y-50582600D01*
X108037800Y-51284600D01*
G37*
M02*
