M48
; DRILL file {KiCad (5.1.5-0-10_14)} date 2020 May 04, Monday 22:30:11
; FORMAT={-:-/ absolute / metric / decimal}
; #@! TF.CreationDate,2020-05-04T22:30:11+03:00
; #@! TF.GenerationSoftware,Kicad,Pcbnew,(5.1.5-0-10_14)
; #@! TF.FileFunction,Plated,1,2,PTH
FMAT,2
METRIC
T1C0.400
T2C0.762
T3C0.800
T4C1.000
%
G90
G05
T1
X94.971Y-53.086
X108.966Y-82.956
X108.966Y-84.658
X110.261Y-62.433
X110.261Y-65.253
X116.586Y-69.621
X116.652Y-55.56
X117.563Y-65.672
X123.063Y-77.597
X123.088Y-74.905
T2
X118.364Y-77.8
X118.364Y-80.34
X118.364Y-82.88
X118.364Y-85.42
X120.904Y-77.8
X120.904Y-80.34
X120.904Y-82.88
X120.904Y-85.42
T3
X113.817Y-81.371
X113.817Y-83.871
T4
X127.855Y-53.55
X127.855Y-56.09
X127.855Y-58.63
X127.855Y-61.17
X127.855Y-63.71
X127.855Y-66.25
X127.855Y-68.79
X127.855Y-71.33
X127.855Y-73.87
X127.855Y-76.41
X127.855Y-78.95
X127.855Y-81.49
X127.855Y-84.03
X130.395Y-53.55
X130.395Y-56.09
X130.395Y-58.63
X130.395Y-61.17
X130.395Y-63.71
X130.395Y-66.25
X130.395Y-68.79
X130.395Y-71.33
X130.395Y-73.87
X130.395Y-76.41
X130.395Y-78.95
X130.395Y-81.49
X130.395Y-84.03
T0
M30
